<svg width="48" height="49" viewBox="0 0 48 49" fill="none" xmlns="http://www.w3.org/2000/svg">
<path d="M12.1678 29.0676V27.1284C12.1813 27.0311 12.1974 26.9338 12.2084 26.8359C12.2922 26.1102 12.3415 25.379 12.4647 24.6602C12.9575 21.8045 14.086 19.2044 15.6845 16.8002C15.744 16.7131 15.8257 16.6434 15.921 16.5981C17.3792 15.9381 18.913 15.46 20.4879 15.1746C20.6161 15.1506 20.6875 15.1814 20.7436 15.2978C20.8902 15.6027 21.0608 15.8972 21.1902 16.2088C21.2647 16.3887 21.3577 16.417 21.5363 16.3992C22.217 16.3308 22.9001 16.231 23.5814 16.2378C24.5485 16.2476 25.515 16.3363 26.4815 16.4029C26.6423 16.414 26.7279 16.3862 26.7926 16.2273C26.9231 15.9193 27.0882 15.6193 27.2324 15.3132C27.2897 15.19 27.3556 15.1481 27.5016 15.1746C29.069 15.4589 30.5955 15.9348 32.0469 16.5914C32.1504 16.6372 32.2388 16.7113 32.3019 16.8051C32.7196 17.487 33.1551 18.1603 33.5308 18.865C34.6901 21.017 35.4232 23.3725 35.6899 25.8022C35.7379 26.2445 35.778 26.6868 35.8217 27.1291V29.0232C35.7915 29.3442 35.7724 29.6657 35.7256 29.9842C35.7089 30.099 35.6516 30.2041 35.5642 30.2805C33.9492 31.4659 32.1598 32.3932 30.2599 33.029C29.7216 33.2095 29.7105 33.2138 29.4019 32.7339C29.0705 32.2183 28.7619 31.6868 28.4274 31.1398C28.8025 30.9753 29.1358 30.841 29.4579 30.6852C29.7801 30.5293 30.1004 30.3501 30.4306 30.1764C30.0844 29.7661 30.0216 29.7526 29.6095 29.93C25.8575 31.5229 22.1055 31.502 18.3554 29.9232C17.9698 29.7612 17.8423 29.7944 17.5429 30.1979L19.5522 31.1699C19.1512 31.8044 18.7582 32.4179 18.3751 33.037C18.2882 33.1768 18.2014 33.1898 18.0523 33.1417C16.0322 32.5008 14.1302 31.5347 12.421 30.2817C12.334 30.2051 12.2772 30.1001 12.2608 29.9854C12.2146 29.6786 12.1967 29.3725 12.1678 29.0676ZM30.0561 25.0082C30.052 24.8858 30.0415 24.7637 30.0246 24.6423C29.9984 24.4826 29.9595 24.3252 29.9082 24.1717C29.3896 22.6829 27.6617 22.2005 26.5646 23.2416C25.5643 24.1883 25.5575 25.9162 26.5505 26.8722C27.3654 27.657 28.5697 27.6428 29.3618 26.8334C29.8429 26.3418 30.0487 25.7375 30.0561 25.0082ZM22.233 25.0513C22.1714 24.7594 22.1419 24.4575 22.0482 24.1779C21.5493 22.7137 19.8682 22.2166 18.7601 23.1923C17.6975 24.1304 17.6784 25.9414 18.7213 26.9011C19.5436 27.6576 20.7121 27.6323 21.4975 26.834C21.9798 26.3449 22.1856 25.7394 22.233 25.0513Z" fill="#606161"/>
</svg>
