<svg width="26" height="31" viewBox="0 0 26 31" fill="none" xmlns="http://www.w3.org/2000/svg">
<path d="M20.9529 11.0882H18.1471V2.26471C18.1471 1.29412 17.3529 0.5 16.3824 0.5H9.32353C8.35294 0.5 7.55882 1.29412 7.55882 2.26471V11.0882H4.75294C3.18235 11.0882 2.38823 12.9941 3.5 14.1059L11.6 22.2059C12.2882 22.8941 13.4 22.8941 14.0882 22.2059L22.1882 14.1059C23.3 12.9941 22.5235 11.0882 20.9529 11.0882ZM0.5 28.7353C0.5 29.7059 1.29412 30.5 2.26471 30.5H23.4412C24.4118 30.5 25.2059 29.7059 25.2059 28.7353C25.2059 27.7647 24.4118 26.9706 23.4412 26.9706H2.26471C1.29412 26.9706 0.5 27.7647 0.5 28.7353Z" fill="white"/>
</svg>
