<svg width="48" height="49" viewBox="0 0 48 49" fill="none" xmlns="http://www.w3.org/2000/svg">
<g filter="url(#filter0_d_156_3129)">
<path d="M23.9947 13.167C17.9204 13.167 12.9506 18.1258 12.9506 24.2333C12.9506 29.7553 16.9927 34.3387 22.2718 35.167V27.4361H19.4666V24.2333H22.2718V21.7925C22.2718 19.0204 23.9174 17.4963 26.4465 17.4963C27.6504 17.4963 28.9094 17.7061 28.9094 17.7061V20.4341H27.5178C26.1484 20.4341 25.7176 21.2845 25.7176 22.157V24.2333H28.7879L28.2909 27.4361H25.7176V35.167C28.3201 34.756 30.6899 33.4281 32.3993 31.4231C34.1086 29.4181 35.0448 26.868 35.0389 24.2333C35.0389 18.1258 30.069 13.167 23.9947 13.167Z" fill="white"/>
</g>
<defs>
<filter id="filter0_d_156_3129" x="7.95056" y="8.16699" width="32.0884" height="32" filterUnits="userSpaceOnUse" color-interpolation-filters="sRGB">
<feFlood flood-opacity="0" result="BackgroundImageFix"/>
<feColorMatrix in="SourceAlpha" type="matrix" values="0 0 0 0 0 0 0 0 0 0 0 0 0 0 0 0 0 0 127 0" result="hardAlpha"/>
<feOffset/>
<feGaussianBlur stdDeviation="2.5"/>
<feComposite in2="hardAlpha" operator="out"/>
<feColorMatrix type="matrix" values="0 0 0 0 0.376471 0 0 0 0 0.380392 0 0 0 0 0.380392 0 0 0 1 0"/>
<feBlend mode="lighten" in2="BackgroundImageFix" result="effect1_dropShadow_156_3129"/>
<feBlend mode="normal" in="SourceGraphic" in2="effect1_dropShadow_156_3129" result="shape"/>
</filter>
</defs>
</svg>
