<svg width="48" height="49" viewBox="0 0 48 49" fill="none" xmlns="http://www.w3.org/2000/svg">
<path d="M12.9957 29.6267V18.7182C13.0086 18.6424 13.0253 18.5665 13.0339 18.4896C13.0979 17.898 13.2313 17.3144 13.4873 16.7766C14.5899 14.459 16.4309 13.2193 18.9997 13.1881C22.3278 13.1478 25.6571 13.1773 28.9858 13.179C30.0286 13.179 31.0226 13.4054 31.9224 13.9357C33.9382 15.1233 34.9709 16.9035 34.9838 19.2415C35.0015 22.5266 34.9918 25.8118 34.9838 29.0969C34.991 29.5121 34.9533 29.9269 34.8714 30.334C34.3297 32.7585 32.8512 34.314 30.4578 34.9852C30.1303 35.0772 29.785 35.1078 29.4478 35.167H18.5355C18.3031 35.1315 18.0676 35.1094 17.8363 35.0594C15.4069 34.5081 13.8455 33.035 13.1732 30.6357C13.0855 30.3065 13.0544 29.9628 12.9957 29.6267ZM23.9849 18.1604C20.6766 18.1691 17.9708 20.8798 17.9788 24.1794C17.9869 27.4872 20.6987 30.192 23.9989 30.1839C27.3072 30.1758 30.013 27.4651 30.005 24.1654C29.9969 20.8658 27.2851 18.1529 23.9849 18.1604ZM30.1529 19.5766C31.121 19.5766 31.9315 18.7623 31.9277 17.8017C31.924 16.8411 31.1129 16.0268 30.1491 16.0268C29.678 16.0273 29.2264 16.2148 28.8936 16.5482C28.5608 16.8816 28.3741 17.3336 28.3745 17.8047C28.3749 18.2757 28.5625 18.7274 28.8959 19.0602C29.2293 19.393 29.6812 19.5797 30.1523 19.5793L30.1529 19.5766Z" fill="#606161"/>
<path d="M24.0016 19.4497C26.6037 19.4593 28.7297 21.5956 28.7152 24.1875C28.7012 26.7912 26.5639 28.914 23.9715 28.8947C21.3791 28.8753 19.2643 26.7557 19.2686 24.1681C19.2729 21.5687 21.4076 19.4405 24.0016 19.4497Z" fill="#606161"/>
<path d="M30.6321 17.8082C30.631 17.9042 30.6013 17.9977 30.5469 18.0769C30.4925 18.156 30.4157 18.2172 30.3265 18.2526C30.2372 18.288 30.1394 18.296 30.0455 18.2757C29.9516 18.2553 29.8659 18.2075 29.7993 18.1383C29.7327 18.0691 29.6882 17.9817 29.6714 17.8871C29.6547 17.7925 29.6664 17.6951 29.7052 17.6072C29.744 17.5193 29.808 17.445 29.8892 17.3936C29.9703 17.3422 30.0649 17.3162 30.1609 17.3187C30.287 17.3251 30.4058 17.3793 30.4933 17.4702C30.5809 17.5611 30.6305 17.682 30.6321 17.8082Z" fill="#606161"/>
</svg>
