<svg width="48" height="49" viewBox="0 0 48 49" fill="none" xmlns="http://www.w3.org/2000/svg">
<path d="M32.5503 13.167C33.1986 13.167 33.8204 13.4245 34.2788 13.883C34.7372 14.3414 34.9948 14.9631 34.9948 15.6114V32.7225C34.9948 33.3709 34.7372 33.9926 34.2788 34.451C33.8204 34.9095 33.1986 35.167 32.5503 35.167H15.4392C14.7909 35.167 14.1691 34.9095 13.7107 34.451C13.2523 33.9926 12.9948 33.3709 12.9948 32.7225V15.6114C12.9948 14.9631 13.2523 14.3414 13.7107 13.883C14.1691 13.4245 14.7909 13.167 15.4392 13.167H32.5503ZM31.9392 32.1114V25.6337C31.9392 24.5769 31.5194 23.5635 30.7722 22.8162C30.025 22.069 29.0115 21.6492 27.9548 21.6492C26.9159 21.6492 25.7059 22.2848 25.1192 23.2381V21.8814H21.7092V32.1114H25.1192V26.0859C25.1192 25.1448 25.877 24.3748 26.8181 24.3748C27.2719 24.3748 27.7071 24.555 28.028 24.8759C28.3489 25.1968 28.5292 25.6321 28.5292 26.0859V32.1114H31.9392ZM17.737 19.9625C18.2816 19.9625 18.8038 19.7462 19.1889 19.3611C19.574 18.9761 19.7903 18.4538 19.7903 17.9092C19.7903 16.7725 18.8736 15.8437 17.737 15.8437C17.1892 15.8437 16.6638 16.0613 16.2764 16.4486C15.889 16.836 15.6714 17.3614 15.6714 17.9092C15.6714 19.0459 16.6003 19.9625 17.737 19.9625ZM19.4359 32.1114V21.8814H16.0503V32.1114H19.4359Z" fill="#606161"/>
</svg>
