<svg width="48" height="49" viewBox="0 0 48 49" fill="none" xmlns="http://www.w3.org/2000/svg">
<path d="M34.9948 17.3318C34.185 17.6998 33.3122 17.9417 32.4078 18.0574C33.3332 17.5 34.0483 16.6167 34.3848 15.5545C33.512 16.0803 32.5445 16.4484 31.5244 16.6587C30.6936 15.7543 29.5263 15.2285 28.2013 15.2285C25.7299 15.2285 23.7108 17.2476 23.7108 19.74C23.7108 20.0975 23.7529 20.4446 23.8265 20.7706C20.0827 20.5813 16.7491 18.783 14.5301 16.0593C14.141 16.7218 13.9202 17.5 13.9202 18.3203C13.9202 19.8872 14.7089 21.2754 15.9288 22.0641C15.1821 22.0641 14.4881 21.8538 13.8781 21.5383C13.8781 21.5383 13.8781 21.5383 13.8781 21.5698C13.8781 23.7572 15.4345 25.587 17.4957 25.9972C17.1171 26.1023 16.7175 26.1549 16.3074 26.1549C16.0234 26.1549 15.7395 26.1234 15.4661 26.0708C16.0339 27.848 17.685 29.1731 19.6726 29.2046C18.1372 30.4245 16.1917 31.1396 14.0674 31.1396C13.7099 31.1396 13.3523 31.1186 12.9948 31.0765C14.9928 32.3595 17.3695 33.1061 19.9144 33.1061C28.2013 33.1061 32.7548 26.2285 32.7548 20.2658C32.7548 20.066 32.7548 19.8767 32.7443 19.6769C33.6276 19.0459 34.3848 18.2467 34.9948 17.3318Z" fill="#606161"/>
</svg>
