<svg width="48" height="49" viewBox="0 0 48 49" fill="none" xmlns="http://www.w3.org/2000/svg">
<path d="M21.7948 27.4668L27.5038 24.1668L21.7948 20.8668V27.4668ZM34.5108 18.8538C34.6538 19.3708 34.7528 20.0638 34.8188 20.9438C34.8958 21.8238 34.9288 22.5828 34.9288 23.2428L34.9948 24.1668C34.9948 26.5758 34.8188 28.3468 34.5108 29.4798C34.2358 30.4698 33.5978 31.1078 32.6078 31.3828C32.0908 31.5258 31.1448 31.6248 29.6928 31.6908C28.2628 31.7678 26.9538 31.8008 25.7438 31.8008L23.9948 31.8668C19.3858 31.8668 16.5148 31.6908 15.3818 31.3828C14.3918 31.1078 13.7538 30.4698 13.4788 29.4798C13.3358 28.9628 13.2368 28.2698 13.1708 27.3898C13.0938 26.5098 13.0608 25.7508 13.0608 25.0908L12.9948 24.1668C12.9948 21.7578 13.1708 19.9868 13.4788 18.8538C13.7538 17.8638 14.3918 17.2258 15.3818 16.9508C15.8988 16.8078 16.8448 16.7088 18.2968 16.6428C19.7268 16.5658 21.0358 16.5328 22.2458 16.5328L23.9948 16.4668C28.6038 16.4668 31.4748 16.6428 32.6078 16.9508C33.5978 17.2258 34.2358 17.8638 34.5108 18.8538Z" fill="#606161"/>
</svg>
