<svg width="95" height="96" viewBox="0 0 95 96" fill="none" xmlns="http://www.w3.org/2000/svg">
<rect y="0.569946" width="10.96" height="10.96" fill="#E7E7E7"/>
<rect x="20.96" y="0.569946" width="10.96" height="10.96" fill="#292929"/>
<rect x="41.92" y="0.569946" width="10.96" height="10.96" fill="#292929"/>
<rect x="62.88" y="0.569946" width="10.96" height="10.96" fill="#EA2128"/>
<rect x="83.84" y="0.569946" width="10.96" height="10.96" fill="#292929"/>
<rect y="21.5299" width="10.96" height="10.96" fill="#292929"/>
<rect x="20.96" y="21.5299" width="10.96" height="10.96" fill="#292929"/>
<rect x="41.92" y="21.5299" width="10.96" height="10.96" fill="#EA2128"/>
<rect x="62.88" y="21.5299" width="10.96" height="10.96" fill="#EA2128"/>
<rect x="83.84" y="21.5299" width="10.96" height="10.96" fill="#292929"/>
<rect y="42.49" width="10.96" height="10.96" fill="#292929"/>
<rect x="20.96" y="42.49" width="10.96" height="10.96" fill="#EA2128"/>
<rect x="41.92" y="42.49" width="10.96" height="10.96" fill="#292929"/>
<rect x="62.88" y="42.49" width="10.96" height="10.96" fill="#EA2128"/>
<rect x="83.84" y="42.49" width="10.96" height="10.96" fill="#292929"/>
<rect y="63.45" width="10.96" height="10.96" fill="#292929"/>
<rect x="20.96" y="63.45" width="10.96" height="10.96" fill="#292929"/>
<rect x="41.92" y="63.45" width="10.96" height="10.96" fill="#292929"/>
<rect x="62.88" y="63.45" width="10.96" height="10.96" fill="#292929"/>
<rect x="83.84" y="63.45" width="10.96" height="10.96" fill="#292929"/>
<rect y="84.4099" width="10.96" height="10.96" fill="#E7E7E7"/>
<rect x="20.96" y="84.4099" width="10.96" height="10.96" fill="#292929"/>
</svg>
