<svg width="179" height="54" viewBox="0 0 179 54" fill="none" xmlns="http://www.w3.org/2000/svg">
<rect y="0.411865" width="10.96" height="10.96" fill="#292929"/>
<rect x="20.96" y="0.411865" width="10.96" height="10.96" fill="#292929"/>
<rect x="41.92" y="0.411865" width="10.96" height="10.96" fill="#292929"/>
<rect x="62.88" y="0.411865" width="10.96" height="10.96" fill="#EA2128"/>
<rect x="83.84" y="0.411865" width="10.96" height="10.96" fill="#292929"/>
<rect x="104.8" y="0.411865" width="10.96" height="10.96" fill="#292929"/>
<rect x="125.76" y="0.411865" width="10.96" height="10.96" fill="#292929"/>
<rect x="146.72" y="0.411865" width="10.96" height="10.96" fill="#292929"/>
<rect x="167.68" y="0.411865" width="10.96" height="10.96" fill="#292929"/>
<rect y="21.3719" width="10.96" height="10.96" fill="#E7E7E7"/>
<rect x="20.96" y="21.3719" width="10.96" height="10.96" fill="#292929"/>
<rect x="41.92" y="21.3719" width="10.96" height="10.96" fill="#EA2128"/>
<rect x="62.88" y="21.3719" width="10.96" height="10.96" fill="#292929"/>
<rect x="83.84" y="21.3719" width="10.96" height="10.96" fill="#292929"/>
<rect x="104.8" y="21.3719" width="10.96" height="10.96" fill="#292929"/>
<rect x="125.76" y="21.3719" width="10.96" height="10.96" fill="#292929"/>
<rect x="146.72" y="21.3719" width="10.96" height="10.96" fill="#EA2128"/>
<rect x="167.68" y="21.3719" width="10.96" height="10.96" fill="#292929"/>
<rect y="42.3318" width="10.96" height="10.96" fill="#292929"/>
<rect x="20.96" y="42.3318" width="10.96" height="10.96" fill="#292929"/>
</svg>
