<svg width="899" height="721" viewBox="0 0 899 721" fill="none" xmlns="http://www.w3.org/2000/svg">
<g clip-path="url(#clip0_56_153)">
<path d="M851.12 29.6909L837.284 38.2627H860.623L869.131 29.6909L898.025 0.540283L851.12 29.6909Z" fill="#EA2128"/>
<path d="M805.596 57.9746H841.104L849.611 49.3706H819.305L805.596 57.9746Z" fill="#EA2128"/>
<path d="M773.941 77.6867H821.552L830.091 69.0828H787.746L773.941 77.6867Z" fill="#EA2128"/>
<path d="M742.255 97.3665H802.033L810.54 88.7947H755.963L742.255 97.3665Z" fill="#EA2128"/>
<path d="M710.568 117.078H782.481L791.021 108.474H724.405L710.568 117.078Z" fill="#EA2128"/>
<path d="M678.913 136.79H762.962L771.502 128.187H692.718L678.913 136.79Z" fill="#EA2128"/>
<path d="M647.258 156.471H743.571L752.078 147.899H661.063L647.258 156.471Z" fill="#EA2128"/>
<path d="M615.604 176.182H723.891L732.431 167.578H629.409L615.604 176.182Z" fill="#EA2128"/>
<path d="M583.917 195.894H704.372L712.879 187.29H597.786L583.917 195.894Z" fill="#EA2128"/>
<path d="M552.263 215.574H684.821L693.36 207.002H566.1L552.263 215.574Z" fill="#EA2128"/>
<path d="M273.052 215.574H402.721C400.731 212.588 398.804 209.699 396.974 207.002H267.338L273.052 215.574Z" fill="#EA2128"/>
<path d="M389.591 195.894L383.844 187.29H254.271L260.018 195.894H389.591Z" fill="#EA2128"/>
<path d="M520.736 235.286H665.205C668.03 232.428 670.887 229.571 673.712 226.682H534.445L520.736 235.286Z" fill="#EA2128"/>
<path d="M286.151 235.286H415.884L410.137 226.682H280.436L286.151 235.286Z" fill="#EA2128"/>
<path d="M299.217 254.998H429.014L423.268 246.394H293.535L299.217 254.998Z" fill="#EA2128"/>
<path d="M654.289 246.394H502.789L488.985 254.998H645.749L654.289 246.394Z" fill="#EA2128"/>
<path d="M312.348 274.838H442.177L436.43 266.267H306.633L312.348 274.838Z" fill="#EA2128"/>
<path d="M634.77 266.106H471.039L457.234 274.678H626.134L634.77 266.106Z" fill="#EA2128"/>
<path d="M615.218 285.786H319.86L325.575 294.39H606.807C609.504 291.564 612.361 288.707 615.218 285.786Z" fill="#EA2128"/>
<path d="M595.667 305.498H332.862L338.577 314.102H587.16L595.667 305.498Z" fill="#EA2128"/>
<path d="M576.148 325.21H345.961L351.675 333.814H567.608L576.148 325.21Z" fill="#EA2128"/>
<path d="M548.089 353.494L556.597 344.89H359.06L363.297 351.31L361.114 353.526L548.089 353.494Z" fill="#EA2128"/>
<path d="M341.755 373.206H528.537L537.077 364.602H350.199L341.755 373.206Z" fill="#EA2128"/>
<path d="M322.396 392.917H521.057L516.209 385.63L517.526 384.313H330.84L322.396 392.917Z" fill="#EA2128"/>
<path d="M303.038 412.597H534.188L528.441 403.993H311.481L303.038 412.597Z" fill="#EA2128"/>
<path d="M283.679 432.309H547.382L541.636 423.706H292.122L283.679 432.309Z" fill="#EA2128"/>
<path d="M264.32 452.022H560.513C558.587 449.068 556.661 446.211 554.799 443.418H272.764L264.32 452.022Z" fill="#EA2128"/>
<path d="M244.961 471.701H392.994L406.541 463.129H253.405L244.961 471.701Z" fill="#EA2128"/>
<path d="M567.929 463.129H437.779L443.525 471.701H573.676L567.929 463.129Z" fill="#EA2128"/>
<path d="M581.092 482.81H450.942L456.656 491.413H586.839L581.092 482.81Z" fill="#EA2128"/>
<path d="M225.602 491.413H361.917L375.465 482.81H234.046L225.602 491.413Z" fill="#EA2128"/>
<path d="M206.115 511.125H330.712L344.26 502.521H214.559L206.115 511.125Z" fill="#EA2128"/>
<path d="M594.254 502.521H464.072L469.818 511.125H599.969C598.075 508.236 596.148 505.379 594.254 502.521Z" fill="#EA2128"/>
<path d="M607.417 522.233H477.203C479.129 525.059 481.023 527.948 482.949 530.805H613.132L607.417 522.233Z" fill="#EA2128"/>
<path d="M186.853 530.805H299.731L313.279 522.233H195.328L186.853 530.805Z" fill="#EA2128"/>
<path d="M167.59 550.516H268.751L282.299 541.913H176.034L167.59 550.516Z" fill="#EA2128"/>
<path d="M620.548 541.913H490.366L496.08 550.516H626.295L620.548 541.913Z" fill="#EA2128"/>
<path d="M148.328 570.197H237.77L251.318 561.593H156.611L148.328 570.197Z" fill="#EA2128"/>
<path d="M633.71 561.625H503.496C505.454 564.514 507.348 567.403 509.242 570.229H639.521L633.71 561.625Z" fill="#EA2128"/>
<path d="M646.841 581.336H516.627L522.373 589.908H652.588L646.841 581.336Z" fill="#EA2128"/>
<path d="M529.79 601.017L533.706 606.924H663.953L660.004 601.017H529.79Z" fill="#EA2128"/>
<path d="M128.808 589.908H206.532L220.08 581.336H137.252L128.808 589.908Z" fill="#EA2128"/>
<path d="M109.45 609.62H175.456L189.004 601.017H117.893L109.45 609.62Z" fill="#EA2128"/>
<path d="M90.0908 629.333H144.379L157.927 620.729H98.5342L90.0908 629.333Z" fill="#EA2128"/>
<path d="M32.0142 688.436L0.52002 720.541L51.1162 688.436L64.6641 679.833H40.4576L32.0142 688.436Z" fill="#EA2128"/>
<path d="M51.3728 668.724H82.2249L95.7408 660.152H59.8162L51.3728 668.724Z" fill="#EA2128"/>
<path d="M70.7317 649.012H113.302L126.85 640.44H79.1751L70.7317 649.012Z" fill="#EA2128"/>
</g>
<defs>
<clipPath id="clip0_56_153">
<rect width="899" height="721" fill="white"/>
</clipPath>
</defs>
</svg>
