<svg width="326" height="323" viewBox="0 0 326 323" fill="none" xmlns="http://www.w3.org/2000/svg">
<path d="M32.1949 242.506L34.0857 245.384C34.149 245.487 34.169 245.611 34.1413 245.729C34.1135 245.847 34.0404 245.949 33.9378 246.014L31.2467 247.833C31.1971 247.87 31.1408 247.896 31.0811 247.91C31.0215 247.924 30.9595 247.927 30.8989 247.917C30.8383 247.907 30.7802 247.886 30.728 247.854C30.6757 247.821 30.6304 247.779 30.5945 247.729L28.6543 244.77C28.5917 244.664 28.5733 244.538 28.603 244.419C28.6328 244.3 28.7083 244.198 28.8132 244.134L31.5536 242.391C31.6543 242.323 31.7778 242.296 31.8977 242.318C32.0176 242.339 32.1242 242.407 32.1949 242.506Z" fill="#292929"/>
<path d="M37.248 249.883L38.2565 251.281L38.3825 251.451L38.5141 251.626L38.7771 251.966L39.3252 252.651C39.3956 252.75 39.4236 252.874 39.4031 252.994C39.3825 253.114 39.3151 253.222 39.2156 253.292L36.6341 255.265C36.5371 255.342 36.4138 255.378 36.2907 255.364C36.1676 255.351 36.0548 255.29 35.9765 255.194L35.4284 254.492L35.1598 254.142L35.0228 253.966L34.8912 253.785L33.8444 252.371C33.7748 252.27 33.7484 252.144 33.771 252.023C33.7936 251.902 33.8634 251.794 33.965 251.725L36.6013 249.823C36.6962 249.748 36.8163 249.712 36.9367 249.724C37.057 249.735 37.1685 249.792 37.248 249.883Z" fill="#292929"/>
<path d="M42.7017 256.98L42.9702 257.315L43.2497 257.644L43.7978 258.301L44.894 259.617C44.9699 259.713 45.0045 259.836 44.9901 259.959C44.9757 260.081 44.9136 260.192 44.8173 260.269L42.3564 262.384C42.3118 262.426 42.2594 262.458 42.2022 262.479C42.145 262.5 42.0841 262.509 42.0233 262.506C41.9625 262.503 41.9029 262.488 41.8481 262.461C41.7932 262.435 41.7443 262.397 41.7041 262.352L40.5641 260.998L40.0161 260.324L39.7311 259.984L39.4515 259.639C39.3782 259.54 39.3463 259.416 39.3627 259.295C39.3791 259.173 39.4424 259.062 39.5392 258.986L42.0604 256.936C42.1513 256.857 42.2699 256.818 42.3901 256.826C42.5103 256.834 42.6224 256.89 42.7017 256.98Z" fill="#292929"/>
<path d="M48.566 263.738L49.7389 264.999L50.3254 265.629L50.9228 266.249C50.9634 266.293 50.9949 266.345 51.0153 266.402C51.0357 266.459 51.0446 266.519 51.0415 266.579C51.0385 266.639 51.0235 266.698 50.9975 266.752C50.9714 266.807 50.9349 266.855 50.8899 266.895L48.5551 269.153C48.4668 269.241 48.3477 269.29 48.2235 269.29C48.0993 269.29 47.9801 269.241 47.8919 269.153L47.2945 268.523L46.6916 267.876L45.4913 266.583C45.4509 266.537 45.4201 266.483 45.4005 266.425C45.3808 266.367 45.3728 266.306 45.3769 266.245C45.381 266.184 45.397 266.124 45.4242 266.069C45.4513 266.015 45.489 265.966 45.5351 265.925L47.9303 263.733C48.0172 263.653 48.1312 263.609 48.2492 263.61C48.3672 263.611 48.4805 263.657 48.566 263.738Z" fill="#292929"/>
<path d="M54.8087 270.145L55.4225 270.748C55.6308 270.95 55.8446 271.142 56.0529 271.339L57.3079 272.512C57.3509 272.555 57.3849 272.606 57.4082 272.662C57.4314 272.718 57.4434 272.778 57.4434 272.838C57.4434 272.899 57.4314 272.959 57.4082 273.015C57.3849 273.071 57.3509 273.122 57.3079 273.165L55.1156 275.554C55.0762 275.601 55.0279 275.639 54.9735 275.666C54.9191 275.694 54.8597 275.71 54.7988 275.714C54.738 275.718 54.6769 275.71 54.6193 275.69C54.5617 275.67 54.5087 275.639 54.4634 275.598L53.1699 274.392C52.9562 274.19 52.7369 273.992 52.5287 273.784L51.8984 273.165C51.8114 273.077 51.7625 272.959 51.7625 272.836C51.7625 272.713 51.8114 272.594 51.8984 272.507L54.1674 270.178C54.249 270.09 54.3616 270.037 54.4814 270.031C54.6012 270.025 54.7186 270.066 54.8087 270.145Z" fill="#292929"/>
<path d="M61.4132 276.191L62.7231 277.287L63.3808 277.835C63.6 278.021 63.8192 278.208 64.044 278.383C64.0893 278.423 64.1263 278.471 64.1528 278.525C64.1794 278.579 64.1949 278.638 64.1984 278.698C64.202 278.758 64.1936 278.819 64.1736 278.876C64.1537 278.933 64.1227 278.985 64.0823 279.03L62.0215 281.54C61.9466 281.638 61.8358 281.702 61.7136 281.719C61.5913 281.735 61.4675 281.702 61.3693 281.628C61.1391 281.441 60.9144 281.249 60.6897 281.08L60.0156 280.531L58.6673 279.386C58.6215 279.346 58.5842 279.297 58.5577 279.242C58.5312 279.187 58.5159 279.128 58.5128 279.067C58.5098 279.006 58.519 278.945 58.5398 278.888C58.5607 278.831 58.5929 278.778 58.6344 278.734L60.761 276.278C60.8368 276.182 60.9474 276.118 61.0692 276.102C61.1911 276.085 61.3145 276.117 61.4132 276.191Z" fill="#292929"/>
<path d="M68.3571 281.83C68.812 282.175 69.2669 282.532 69.7273 282.877L71.114 283.891C71.1615 283.928 71.2012 283.975 71.2308 284.028C71.2603 284.08 71.2792 284.138 71.2863 284.198C71.2935 284.259 71.2887 284.319 71.2723 284.378C71.2559 284.436 71.2282 284.49 71.1907 284.538L69.2834 287.168C69.2127 287.269 69.1049 287.338 68.9838 287.359C68.8626 287.381 68.7378 287.354 68.6367 287.284L67.2062 286.242C66.7348 285.886 66.2689 285.524 65.8031 285.146C65.7072 285.068 65.646 284.955 65.6327 284.832C65.6193 284.709 65.655 284.585 65.7318 284.488L67.7159 281.967C67.7487 281.916 67.7914 281.871 67.8415 281.837C67.8916 281.802 67.9482 281.777 68.0078 281.765C68.0675 281.752 68.1291 281.751 68.1891 281.762C68.249 281.774 68.3062 281.797 68.3571 281.83Z" fill="#292929"/>
<path d="M83.1719 291.86L84.6517 292.732C84.8983 292.88 85.145 293.028 85.3971 293.17L86.148 293.587C86.1994 293.618 86.244 293.66 86.2793 293.708C86.3146 293.757 86.3399 293.812 86.3537 293.871C86.3674 293.93 86.3694 293.991 86.3595 294.05C86.3496 294.109 86.328 294.166 86.296 294.217L84.7065 297.051C84.6493 297.159 84.5516 297.241 84.4347 297.278C84.3177 297.315 84.1908 297.304 84.0817 297.248L83.3089 296.815C83.0513 296.673 82.7992 296.519 82.5416 296.371L81.0179 295.472C80.9143 295.406 80.8411 295.301 80.8144 295.181C80.7877 295.061 80.8096 294.935 80.8754 294.831L82.5471 292.047C82.5752 291.993 82.6139 291.945 82.6608 291.907C82.7077 291.868 82.7619 291.839 82.8201 291.822C82.8784 291.804 82.9395 291.799 82.9999 291.805C83.0603 291.812 83.1188 291.831 83.1719 291.86Z" fill="#292929"/>
<path d="M129.715 303.371L132.943 304.056C133 304.071 133.054 304.096 133.101 304.132C133.149 304.167 133.188 304.212 133.218 304.263C133.248 304.314 133.268 304.37 133.276 304.429C133.285 304.487 133.281 304.547 133.266 304.604L132.642 307.788C132.633 307.851 132.612 307.911 132.579 307.965C132.547 308.019 132.503 308.065 132.452 308.102C132.401 308.138 132.342 308.164 132.281 308.177C132.219 308.19 132.155 308.19 132.093 308.177L128.805 307.476C128.69 307.445 128.592 307.37 128.532 307.268C128.471 307.165 128.453 307.043 128.482 306.928L129.2 303.76C129.208 303.7 129.227 303.643 129.258 303.591C129.288 303.54 129.328 303.494 129.376 303.458C129.424 303.422 129.479 303.396 129.537 303.381C129.595 303.366 129.655 303.362 129.715 303.371Z" fill="#292929"/>
<path d="M136.851 304.779L140.14 305.327C140.259 305.353 140.363 305.426 140.428 305.528C140.494 305.631 140.516 305.756 140.49 305.875L140.019 309.092C140.013 309.151 139.995 309.209 139.967 309.261C139.938 309.313 139.9 309.359 139.853 309.396C139.807 309.434 139.753 309.461 139.696 309.478C139.639 309.494 139.579 309.499 139.52 309.492L136.166 308.944C136.048 308.917 135.945 308.844 135.881 308.741C135.816 308.639 135.794 308.514 135.821 308.396L136.369 305.195C136.379 305.077 136.435 304.966 136.525 304.888C136.615 304.811 136.732 304.771 136.851 304.779Z" fill="#292929"/>
<path d="M75.6137 287.07C76.5674 287.706 77.5265 288.331 78.4857 288.966C78.584 289.038 78.6505 289.145 78.671 289.265C78.6914 289.384 78.6643 289.508 78.5953 289.608L76.8414 292.348C76.8105 292.401 76.7693 292.446 76.7203 292.483C76.6712 292.519 76.6154 292.545 76.5561 292.56C76.4968 292.574 76.4352 292.576 76.375 292.566C76.3148 292.556 76.2572 292.534 76.2057 292.501C75.2246 291.855 74.238 291.208 73.257 290.556C73.2072 290.52 73.165 290.475 73.1328 290.422C73.1006 290.37 73.079 290.312 73.0694 290.251C73.0597 290.191 73.0621 290.129 73.0764 290.069C73.0907 290.009 73.1167 289.953 73.1528 289.904L74.9834 287.218C75.0143 287.166 75.0553 287.121 75.1041 287.085C75.1528 287.049 75.2083 287.024 75.2671 287.01C75.326 286.996 75.387 286.994 75.4465 287.005C75.5061 287.015 75.563 287.037 75.6137 287.07Z" fill="#292929"/>
<path d="M1.54042 186.821L1.76513 188.142L1.88023 188.805L2.00629 189.463L2.52148 192.099L2.65303 192.756L2.80101 193.414L3.0915 194.724L3.38198 196.034C3.4313 196.253 3.47514 196.473 3.52995 196.686L3.6889 197.338L4.33563 199.947C4.43977 200.38 4.56035 200.813 4.67545 201.246L5.0317 202.54C5.4866 204.272 6.02373 205.976 6.53344 207.692L6.63209 208.015L6.73075 208.333L6.93902 208.969L7.35557 210.246L7.77758 211.523C7.84335 211.737 7.92008 211.945 7.99133 212.159L8.21605 212.789L9.1149 215.321C9.42183 216.16 9.75068 216.993 10.0631 217.831L10.5454 219.086L11.0496 220.325L12.0691 222.808L13.1652 225.269C13.3461 225.68 13.5215 226.091 13.7133 226.496L14.2614 227.713L14.8095 228.93L15.0945 229.538C15.1876 229.741 15.2808 229.944 15.385 230.141L16.5743 232.547L16.8757 233.145L17.0237 233.446L17.1827 233.742L17.8075 234.931L18.4323 236.121C18.6406 236.515 18.8433 236.91 19.0681 237.299L20.3725 239.645L20.7013 240.231L21.0412 240.779L21.7208 241.936L22.4004 243.092L22.7457 243.64L23.0965 244.188L24.516 246.468L24.8722 247.017L25.2395 247.565L25.9794 248.688C26.4671 249.434 26.9495 250.184 27.4647 250.919L28.9938 253.111L29.383 253.659L29.7721 254.207L30.5613 255.304L31.3506 256.4C31.6191 256.761 31.8987 257.112 32.1617 257.496L33.806 259.628L35.4831 261.727L36.3271 262.768L37.1931 263.799L36.4861 264.385L35.6201 263.355L34.7706 262.303L33.0825 260.198L31.4383 258.049C31.1642 257.693 30.8902 257.337 30.6216 256.953L29.8269 255.857L29.0322 254.761L28.6376 254.213C28.506 254.032 28.3745 253.851 28.2484 253.665L26.7138 251.472C26.1931 250.738 25.7108 249.982 25.2175 249.231L24.4776 248.102L24.1049 247.554C23.9789 247.367 23.8638 247.17 23.7487 247.006L22.3182 244.715L21.9619 244.139L21.6221 243.558L20.937 242.396L20.2519 241.234C20.1368 241.042 20.0217 240.851 19.9121 240.653L19.5833 240.061L18.2679 237.705C18.0431 237.316 17.8404 236.915 17.6266 236.521L17.0018 235.381L16.377 234.186L16.218 233.885L16.0701 233.583L15.7686 232.98L14.5683 230.563C14.4642 230.36 14.371 230.158 14.2778 229.955L13.9928 229.341L13.4447 228.119L12.8967 226.897L12.3486 225.663L11.2524 223.191L10.2275 220.692L9.71779 219.443L9.23548 218.182C8.91759 217.343 8.58874 216.499 8.27634 215.661L7.37748 213.112L7.15277 212.476C7.07604 212.263 6.99931 212.054 6.93354 211.841L6.51152 210.558L6.09498 209.276L5.8867 208.629L5.78257 208.311L5.64007 207.977C5.12487 206.25 4.58776 204.535 4.12737 202.792L3.77111 201.493C3.65601 201.054 3.53544 200.621 3.4313 200.183L2.79552 197.563L2.63658 196.911L2.48312 196.253L2.19264 194.932L1.90215 193.617L1.75417 192.954L1.62263 192.296L1.10743 189.643L0.975899 188.98L0.860798 188.317L0.636082 186.985L1.54042 186.821Z" fill="#292929"/>
<path d="M83.7091 285.377C90.2399 289.439 97.079 292.983 104.164 295.977C107.711 297.464 111.309 298.82 114.955 300.044C118.605 301.249 122.305 302.307 126.032 303.25L125.813 304.138C122.06 303.195 118.344 302.121 114.665 300.915C110.985 299.709 107.366 298.346 103.807 296.826C96.6801 293.812 89.799 290.246 83.2268 286.161L83.7091 285.377Z" fill="#292929"/>
<path d="M21.0688 207.126C26.0486 221.77 33.2686 235.554 42.4714 247.986L41.737 248.534C32.477 236.028 25.2127 222.161 20.2029 207.428L21.0688 207.126Z" fill="#292929"/>
<path d="M42.8325 61.7974L41.7364 63.1402L41.1883 63.8088L40.9197 64.1432L40.7827 64.3131L40.6512 64.483C40.6127 64.5287 40.5656 64.5664 40.5125 64.5939C40.4594 64.6214 40.4015 64.6382 40.3419 64.6432C40.2824 64.6483 40.2224 64.6416 40.1654 64.6235C40.1085 64.6054 40.0556 64.5763 40.0099 64.5378L37.4449 62.5373C37.3464 62.4631 37.2809 62.3532 37.2625 62.2313C37.244 62.1094 37.2741 61.9851 37.3463 61.8851L37.4833 61.7097L37.6203 61.5398L37.8998 61.1945L38.4479 60.5039L39.5441 59.1282C39.6245 59.036 39.738 58.9791 39.8601 58.9698C39.9821 58.9606 40.1029 58.9998 40.1963 59.0789L42.701 61.1506C42.7522 61.1844 42.7962 61.2279 42.8305 61.2787C42.8649 61.3295 42.8888 61.3866 42.9011 61.4467C42.9133 61.5068 42.9135 61.5687 42.9018 61.6289C42.89 61.689 42.8665 61.7463 42.8325 61.7974Z" fill="#292929"/>
<path d="M37.363 68.879L36.3436 70.2656L35.3625 71.6797C35.2895 71.7766 35.1812 71.8407 35.0611 71.8582C34.941 71.8756 34.8189 71.8449 34.7213 71.7728L32.0466 69.9258C31.9952 69.893 31.9508 69.8503 31.916 69.8002C31.8812 69.75 31.8567 69.6935 31.844 69.6338C31.8312 69.5742 31.8305 69.5126 31.8417 69.4526C31.853 69.3926 31.8761 69.3355 31.9096 69.2845L32.9181 67.8266L33.9649 66.4016C34.002 66.3529 34.0484 66.3121 34.1014 66.2815C34.1545 66.2509 34.213 66.2312 34.2738 66.2236C34.3345 66.2159 34.3962 66.2205 34.4551 66.2369C34.5141 66.2534 34.5692 66.2814 34.6171 66.3194L37.237 68.2377C37.3379 68.3067 37.4077 68.4126 37.4313 68.5325C37.4549 68.6525 37.4304 68.7769 37.363 68.879Z" fill="#292929"/>
<path d="M32.2934 76.2503C32.1344 76.4914 31.9864 76.7381 31.833 76.9792L31.3781 77.7082L30.4682 79.177C30.3993 79.278 30.2934 79.3478 30.1734 79.3714C30.0535 79.3949 29.929 79.3704 29.827 79.3031L27.0482 77.615C26.996 77.5844 26.9504 77.5439 26.9138 77.4956C26.8773 77.4474 26.8507 77.3925 26.8354 77.3339C26.8201 77.2754 26.8165 77.2144 26.8248 77.1545C26.8332 77.0946 26.8532 77.0369 26.8838 76.9847L27.821 75.483L28.2869 74.7321C28.4458 74.48 28.5938 74.2279 28.7582 73.9867C28.8291 73.8847 28.9374 73.8149 29.0596 73.7923C29.1817 73.7697 29.3078 73.7962 29.4105 73.8661L32.1509 75.6309C32.2519 75.6942 32.3236 75.795 32.3504 75.9111C32.3771 76.0273 32.3566 76.1493 32.2934 76.2503Z" fill="#292929"/>
<path d="M27.6841 83.918L26.8455 85.4252L26.429 86.1761L26.0234 86.9379C25.9934 86.9899 25.9533 87.0355 25.9056 87.0719C25.8579 87.1084 25.8034 87.1351 25.7453 87.1503C25.6872 87.1656 25.6267 87.1692 25.5672 87.161C25.5077 87.1528 25.4504 87.1328 25.3986 87.1024L22.5267 85.5842C22.4173 85.5278 22.3342 85.4309 22.2953 85.3142C22.2564 85.1974 22.2647 85.0701 22.3184 84.9594L22.7295 84.1756L23.1624 83.4028L24.0229 81.8572C24.054 81.8047 24.0951 81.7589 24.144 81.7225C24.1928 81.686 24.2484 81.6596 24.3076 81.6449C24.3667 81.6301 24.4282 81.6272 24.4885 81.6363C24.5488 81.6455 24.6066 81.6666 24.6587 81.6983L27.4813 83.2987C27.5353 83.326 27.5834 83.3637 27.6229 83.4096C27.6623 83.4555 27.6923 83.5088 27.7112 83.5663C27.73 83.6238 27.7373 83.6845 27.7327 83.7448C27.728 83.8052 27.7115 83.864 27.6841 83.918Z" fill="#292929"/>
<path d="M23.524 91.8431C23.0033 92.8626 22.532 93.9094 22.0442 94.9508C21.9879 95.0588 21.8916 95.1406 21.7759 95.1785C21.6601 95.2164 21.5341 95.2074 21.4248 95.1535L18.4707 93.7998C18.4147 93.7759 18.364 93.7412 18.3215 93.6976C18.279 93.6541 18.2456 93.6025 18.2232 93.5459C18.2008 93.4893 18.1898 93.4289 18.1909 93.368C18.192 93.3072 18.2051 93.2472 18.2295 93.1914C18.7283 92.1227 19.2106 91.0484 19.7422 89.9961C19.8005 89.8872 19.8992 89.8055 20.017 89.7686C20.1349 89.7317 20.2626 89.7425 20.3725 89.7988L23.2883 91.2348C23.3994 91.2851 23.4864 91.377 23.5304 91.4908C23.5745 91.6046 23.5722 91.7311 23.524 91.8431Z" fill="#292929"/>
<path d="M19.8244 100.004L18.5309 103.194C18.4815 103.304 18.391 103.392 18.2784 103.437C18.1658 103.482 18.0401 103.481 17.928 103.435L14.8971 102.256C14.8397 102.236 14.7869 102.205 14.7417 102.164C14.6965 102.123 14.6598 102.074 14.6338 102.019C14.6078 101.964 14.593 101.904 14.5902 101.843C14.5874 101.783 14.5967 101.722 14.6176 101.665L15.944 98.3761C15.9688 98.3204 16.0045 98.2702 16.0489 98.2284C16.0933 98.1866 16.1456 98.154 16.2027 98.1326C16.2598 98.1112 16.3206 98.1013 16.3816 98.1036C16.4426 98.1059 16.5024 98.1202 16.5578 98.1459L19.5558 99.4065C19.6702 99.4507 19.7625 99.5382 19.8128 99.65C19.8631 99.7618 19.8672 99.889 19.8244 100.004Z" fill="#292929"/>
<path d="M16.6019 108.346L16.0538 109.99L15.9113 110.401L15.8401 110.604L15.7743 110.807L15.5167 111.629C15.4735 111.743 15.3874 111.836 15.2767 111.887C15.166 111.938 15.0397 111.944 14.9248 111.903L11.8336 110.906C11.7148 110.87 11.6149 110.789 11.5554 110.68C11.4959 110.572 11.4816 110.444 11.5157 110.325L11.7843 109.481L11.8555 109.272L11.9268 109.064L12.0693 108.647L12.6502 106.976C12.6721 106.919 12.705 106.866 12.7472 106.822C12.7894 106.777 12.8399 106.741 12.8959 106.716C12.9519 106.691 13.0123 106.678 13.0736 106.676C13.1349 106.675 13.1959 106.685 13.2531 106.707L16.3169 107.803C16.4227 107.843 16.5102 107.92 16.5628 108.02C16.6154 108.12 16.6293 108.236 16.6019 108.346Z" fill="#292929"/>
<path d="M11.6689 125.54L10.9509 128.905C10.9222 129.022 10.8488 129.124 10.7463 129.187C10.6438 129.251 10.5205 129.271 10.4028 129.245L7.21846 128.615C7.15749 128.604 7.09925 128.582 7.04723 128.548C6.99521 128.515 6.95047 128.471 6.91568 128.42C6.88089 128.369 6.85677 128.311 6.84476 128.25C6.83275 128.19 6.83309 128.127 6.84576 128.067L7.57471 124.603C7.60804 124.489 7.68269 124.391 7.78406 124.33C7.88542 124.268 8.00621 124.246 8.1228 124.268L11.2907 124.992C11.3522 125.002 11.411 125.024 11.4637 125.057C11.5163 125.09 11.5617 125.134 11.597 125.185C11.6324 125.236 11.657 125.294 11.6693 125.355C11.6817 125.416 11.6815 125.479 11.6689 125.54Z" fill="#292929"/>
<path d="M15.078 173.382L15.2315 175.026C15.2315 175.3 15.2918 175.574 15.3246 175.842L15.4178 176.659C15.4215 176.718 15.4135 176.777 15.3943 176.833C15.3751 176.889 15.345 176.941 15.3058 176.985C15.2666 177.029 15.219 177.066 15.1658 177.091C15.1126 177.117 15.0549 177.132 14.9958 177.136L11.7676 177.52C11.7069 177.534 11.644 177.535 11.5827 177.524C11.5214 177.513 11.4631 177.489 11.4115 177.454C11.36 177.419 11.3163 177.373 11.2833 177.321C11.2502 177.268 11.2285 177.209 11.2195 177.147L11.1154 176.308C11.0825 176.023 11.0441 175.76 11.0222 175.464L10.8633 173.776C10.8603 173.716 10.8692 173.657 10.8894 173.6C10.9095 173.544 10.9406 173.492 10.9808 173.448C11.0211 173.404 11.0696 173.368 11.1237 173.342C11.1779 173.317 11.2365 173.302 11.2963 173.299L14.5354 173.009C14.5957 172.995 14.6581 172.994 14.7187 173.006C14.7794 173.018 14.837 173.042 14.8879 173.077C14.9388 173.112 14.982 173.157 15.0147 173.209C15.0474 173.262 15.0689 173.32 15.078 173.382Z" fill="#292929"/>
<path d="M15.9331 180.6L16.1688 182.244C16.2071 182.518 16.2564 182.792 16.3003 183.061L16.4428 183.872C16.4551 183.99 16.4198 184.109 16.3448 184.201C16.2698 184.294 16.1611 184.353 16.0427 184.365L12.8364 184.913C12.7774 184.927 12.7162 184.929 12.6564 184.918C12.5967 184.908 12.5396 184.886 12.4885 184.853C12.4375 184.821 12.3935 184.778 12.3591 184.728C12.3247 184.678 12.3007 184.622 12.2883 184.563L12.1458 183.73C12.102 183.45 12.0472 183.181 12.0088 182.891L11.7677 181.214C11.7616 181.154 11.7675 181.094 11.785 181.037C11.8025 180.98 11.8313 180.927 11.8695 180.881C11.9078 180.835 11.9549 180.797 12.008 180.769C12.0611 180.742 12.1191 180.725 12.1787 180.721L15.396 180.266C15.5115 180.239 15.6327 180.26 15.7333 180.322C15.8339 180.385 15.9057 180.485 15.9331 180.6Z" fill="#292929"/>
<path d="M13.9108 116.869C13.5765 117.965 13.297 119.061 13.001 120.19C12.9643 120.306 12.8835 120.404 12.7759 120.461C12.6683 120.518 12.5425 120.531 12.4255 120.497L9.27952 119.68C9.16137 119.653 9.05883 119.58 8.99417 119.477C8.92952 119.375 8.90798 119.251 8.93423 119.132C9.23567 117.998 9.52616 116.852 9.86597 115.723C9.88464 115.665 9.91462 115.611 9.95421 115.564C9.9938 115.517 10.0422 115.479 10.0967 115.451C10.1512 115.423 10.2106 115.406 10.2717 115.401C10.3327 115.396 10.3941 115.403 10.4524 115.422L13.5765 116.326C13.6914 116.356 13.7904 116.429 13.8527 116.53C13.915 116.631 13.9358 116.753 13.9108 116.869Z" fill="#292929"/>
<path d="M86.3452 15.474L85.1559 16.0988L84.5639 16.4112C84.3666 16.5154 84.1748 16.6305 83.9775 16.7346L81.6317 18.0445L81.0453 18.3734L80.4698 18.7132L79.3133 19.3928L78.1569 20.0724C77.965 20.1875 77.7732 20.2971 77.5814 20.4177L77.0333 20.774L74.7533 22.188C74.3751 22.4237 74.0024 22.6758 73.6297 22.917L72.5062 23.6514L71.41 24.3913L71.1305 24.5722L70.8564 24.764L70.3083 25.1476L68.116 26.6713C67.3871 27.1865 66.6691 27.7181 65.9237 28.2443L64.8275 29.0335L63.7369 29.8502L61.6048 31.4944L59.5112 33.177L58.9905 33.5936C58.8151 33.7361 58.6397 33.8731 58.4698 34.0211L57.4394 34.8816L56.4145 35.7475L55.8993 36.1805L55.6472 36.3943L55.3951 36.619C54.0577 37.8028 52.6985 38.9703 51.3995 40.2034L50.4185 41.1132L49.9252 41.5682C49.7608 41.7216 49.6018 41.8806 49.4429 42.034L47.5191 43.9085L47.0368 44.3743L46.5655 44.8512L45.6282 45.8103L44.691 46.7694C44.5321 46.9284 44.3731 47.0873 44.2197 47.2518L43.7648 47.7396L41.9287 49.7017C41.6218 50.0251 41.3313 50.3649 41.0298 50.6992L40.1365 51.6967L39.2486 52.6997L39.0239 52.9518L38.8046 53.2094L38.3716 53.7191L36.6397 55.769C36.4917 55.9334 36.3547 56.1142 36.2122 56.2842L35.7902 56.8048L34.9461 57.8517L34.0856 58.8985L33.269 59.9563L31.6248 62.0883L30.0408 64.2807L29.2516 65.3768L28.4897 66.473C27.98 67.2129 27.4648 67.9418 26.9606 68.6653L25.4862 70.907L25.1135 71.455L24.7518 72.0031L24.0393 73.1431L23.261 72.6553L23.9845 71.5044C24.0996 71.3125 24.2257 71.1262 24.3517 70.9563L24.7189 70.4082L26.2042 68.1556L27.7389 65.9304L28.5117 64.8342L29.3064 63.738L30.8958 61.5457L32.54 59.4082C32.8196 59.052 33.0881 58.6902 33.3677 58.3395L34.2117 57.2542L35.0612 56.2074L35.4887 55.6593C35.6257 55.4839 35.7683 55.3086 35.9162 55.1387L37.6591 53.0779L38.0976 52.5627L38.3168 52.3051L38.5361 52.053L39.4349 51.0445L40.3338 50.036C40.6352 49.7017 40.9257 49.3619 41.2381 49.0385L43.0797 47.0654L43.54 46.5721C43.6935 46.4077 43.8525 46.2488 44.0114 46.0898L44.9541 45.1252L45.9023 44.1606L46.3736 43.6783L46.856 43.2069L48.7907 41.3599L49.2785 40.894L49.7717 40.4336L50.7583 39.5183C52.0682 38.2797 53.4329 37.1068 54.7757 35.912L55.0278 35.6872L55.2854 35.4735L55.8061 35.035L56.8365 34.1691L57.8669 33.2976C58.0368 33.1551 58.2177 33.0126 58.415 32.8756L58.9631 32.4536L60.9964 30.7545L63.1394 29.1103L64.2356 28.2881L65.3318 27.4989C66.0607 26.9508 66.7842 26.4356 67.5241 25.915L69.7438 24.3803L70.2919 23.9967L70.5714 23.8048L70.851 23.624L71.9581 22.8841L73.0871 22.1442C73.4598 21.903 73.8325 21.6509 74.2217 21.4152L76.5126 19.9902L77.0607 19.6339C77.2525 19.5134 77.4498 19.4037 77.6417 19.2886L78.8036 18.6035L79.9655 17.9184L80.5465 17.5732L81.133 17.2443L83.4897 15.9344C83.687 15.8248 83.8843 15.7097 84.0816 15.6055L84.679 15.2931L85.8739 14.6628L86.3452 15.474Z" fill="#292929"/>
<path d="M18.0215 124.038L17.3528 126.844L16.7554 129.667L16.6074 130.374C16.5526 130.609 16.5143 130.845 16.4704 131.086L16.2073 132.5L15.9443 133.92L15.8785 134.276L15.8237 134.632L15.7086 135.345L15.4839 136.77L15.3688 137.482L15.314 137.839L15.2592 138.195L14.8755 141.056L14.7823 141.774L14.7056 142.492L14.5466 143.922L14.3932 145.358L14.3274 146.076L14.2726 146.794C13.9164 150.631 13.7574 154.467 13.7245 158.304L13.7245 159.745L13.7245 160.469L13.7245 161.192L13.7793 164.075C13.7793 164.311 13.7793 164.552 13.7793 164.793L13.8067 165.511L13.8725 166.953L13.9054 167.671L13.9054 168.032L13.9054 168.394L14.004 169.83L13.0887 169.896L12.9901 168.449L12.9901 168.087L12.9901 167.726L12.9627 166.997L12.8969 165.55L12.864 164.826L12.864 164.103L12.8092 161.198C12.8092 160.957 12.8092 160.716 12.8092 160.474L12.8092 159.745L12.8092 158.293C12.8531 154.424 13.012 150.554 13.3573 146.701L13.4121 145.978C13.4121 145.737 13.4505 145.495 13.4779 145.254L13.6368 143.813L13.7903 142.366C13.7903 142.125 13.8396 141.884 13.8725 141.648L13.9657 140.924L14.3493 138.047L14.4042 137.691L14.459 137.329L14.5741 136.611L14.8042 135.18L14.9193 134.462L14.9742 134.106L15.0399 133.744L15.303 132.319L15.5716 130.894L15.7031 130.176L15.8566 129.469L16.454 126.63L17.15 123.824L18.0215 124.038Z" fill="#292929"/>
<path d="M73.0537 40.3235C66.8688 44.942 61.0492 50.0305 55.6466 55.5437C52.9446 58.2841 50.3357 61.1451 47.8694 64.1103C45.403 67.0754 43.0298 70.1392 40.7882 73.2577L40.0373 72.7097C42.2954 69.5527 44.6704 66.4871 47.1624 63.5128C49.6452 60.5258 52.2705 57.6648 54.9835 54.8915C60.427 49.3435 66.2907 44.2238 72.5221 39.5781L73.0537 40.3235Z" fill="#292929"/>
<path d="M218.011 16.0708L214.788 14.8596C214.676 14.8122 214.586 14.7225 214.539 14.6097C214.492 14.4969 214.491 14.3701 214.536 14.2567L215.632 11.2038C215.652 11.1461 215.682 11.0927 215.722 11.0468C215.762 11.0008 215.81 10.9633 215.865 10.9363C215.92 10.9093 215.979 10.8933 216.04 10.8894C216.1 10.8855 216.161 10.8936 216.219 10.9134L219.507 12.1575C219.564 12.1819 219.614 12.2172 219.657 12.2613C219.699 12.3054 219.733 12.3574 219.755 12.4144C219.778 12.4714 219.789 12.5323 219.787 12.5936C219.786 12.6548 219.773 12.7152 219.748 12.7714L218.559 15.7968C218.519 15.9033 218.441 15.9908 218.339 16.0417C218.237 16.0925 218.12 16.1029 218.011 16.0708Z" fill="#292929"/>
<path d="M209.581 13.0733L207.937 12.5252L207.121 12.2676L206.293 12.0265C206.236 12.0074 206.183 11.9771 206.138 11.9374C206.093 11.8978 206.056 11.8496 206.029 11.7955C206.003 11.7415 205.987 11.6827 205.983 11.6226C205.98 11.5626 205.988 11.5024 206.008 11.4455L206.929 8.32693C206.961 8.21256 207.036 8.11482 207.137 8.05369C207.239 7.99256 207.361 7.97268 207.477 7.99809L208.326 8.24472L209.17 8.51329L210.853 9.06137C210.911 9.08045 210.964 9.11091 211.01 9.15094C211.055 9.19096 211.093 9.23975 211.119 9.29442C211.146 9.34909 211.161 9.40853 211.164 9.46922C211.168 9.52992 211.159 9.59064 211.138 9.64781L210.124 12.739C210.095 12.8547 210.023 12.9545 209.921 13.0171C209.82 13.0796 209.698 13.0998 209.581 13.0733Z" fill="#292929"/>
<path d="M200.993 10.5625L200.16 10.3432C199.88 10.2665 199.612 10.1898 199.327 10.1295L197.65 9.72937C197.537 9.69608 197.441 9.62069 197.381 9.51872C197.322 9.41675 197.305 9.29598 197.332 9.18129L198.072 6.01338C198.084 5.95389 198.108 5.89743 198.142 5.84727C198.177 5.7971 198.221 5.75422 198.272 5.7211C198.323 5.68798 198.38 5.66529 198.439 5.65431C198.499 5.64333 198.56 5.64429 198.62 5.65713L200.341 6.06272C200.631 6.12849 200.889 6.2107 201.201 6.28195L202.056 6.51214C202.174 6.54768 202.272 6.62801 202.331 6.73573C202.389 6.84346 202.403 6.96989 202.369 7.08763L201.541 10.2281C201.511 10.3443 201.437 10.4442 201.335 10.5066C201.233 10.569 201.11 10.5891 200.993 10.5625Z" fill="#292929"/>
<path d="M192.273 8.53978C191.994 8.47949 191.725 8.43017 191.429 8.37536L190.58 8.22189L188.886 7.90949C188.768 7.88073 188.666 7.80775 188.601 7.70569C188.536 7.60363 188.512 7.48034 188.535 7.36141L189.083 4.16062C189.093 4.09884 189.115 4.03967 189.148 3.98654C189.181 3.93341 189.225 3.8874 189.276 3.85118C189.327 3.81496 189.385 3.78926 189.446 3.77557C189.507 3.76189 189.57 3.76049 189.631 3.77147L191.369 4.09484L192.235 4.25927C192.523 4.30677 192.814 4.36158 193.106 4.42369C193.222 4.45478 193.322 4.5285 193.386 4.6301C193.45 4.73171 193.474 4.85373 193.451 4.97177L192.805 8.15613C192.796 8.21673 192.775 8.27499 192.744 8.32739C192.712 8.37979 192.67 8.42526 192.621 8.46108C192.571 8.4969 192.515 8.52234 192.455 8.53586C192.395 8.54939 192.333 8.55072 192.273 8.53978Z" fill="#292929"/>
<path d="M183.449 7.03921L181.744 6.81449L180.889 6.69939L180.462 6.6391C180.319 6.6391 180.177 6.60074 180.034 6.58978C179.915 6.57085 179.807 6.5056 179.735 6.40815C179.664 6.31071 179.633 6.1889 179.65 6.0691L180.029 2.8409C180.04 2.71774 180.099 2.6039 180.193 2.52393C180.288 2.44396 180.41 2.40426 180.533 2.4134C180.681 2.4134 180.829 2.44628 180.971 2.4682L181.41 2.52849L182.287 2.64359L184.041 2.87926C184.102 2.88833 184.162 2.91004 184.215 2.94303C184.268 2.97602 184.313 3.01958 184.349 3.071C184.384 3.12242 184.409 3.1806 184.421 3.24191C184.433 3.30322 184.432 3.36634 184.419 3.42734L183.953 6.64459C183.936 6.76294 183.875 6.87026 183.781 6.9439C183.686 7.01754 183.567 7.05172 183.449 7.03921Z" fill="#292929"/>
<path d="M174.559 6.04107L172.838 5.90405L172.41 5.86569L171.983 5.86569L171.122 5.81636C171.002 5.80254 170.891 5.74208 170.814 5.64787C170.738 5.55367 170.701 5.43318 170.711 5.31212L170.898 2.06748C170.903 1.94439 170.957 1.82843 171.047 1.74443C171.137 1.66042 171.257 1.61506 171.38 1.61806L172.262 1.66738L172.701 1.69479L173.145 1.73315L174.904 1.87566C175.026 1.88946 175.137 1.9507 175.214 2.04611C175.291 2.14153 175.328 2.26342 175.315 2.38537L175.036 5.62453C175.026 5.7423 174.971 5.85162 174.882 5.92937C174.793 6.00711 174.677 6.04717 174.559 6.04107Z" fill="#292929"/>
<path d="M165.62 5.5529L164.759 5.5529C164.617 5.5529 164.474 5.5529 164.332 5.5529L163.899 5.5529L162.178 5.5529C162.057 5.54721 161.943 5.49394 161.86 5.40465C161.778 5.31537 161.735 5.19729 161.739 5.07608L161.739 1.82595C161.738 1.76477 161.748 1.7039 161.771 1.64682C161.793 1.58974 161.826 1.53756 161.868 1.49328C161.91 1.449 161.961 1.41348 162.017 1.38875C162.073 1.36401 162.133 1.35054 162.194 1.34912L163.959 1.34912L164.403 1.34912C164.551 1.34912 164.699 1.34912 164.847 1.34912L165.729 1.37653C165.852 1.38499 165.967 1.44139 166.049 1.53362C166.131 1.62585 166.174 1.74655 166.168 1.8698L166.075 5.11444C166.069 5.23176 166.019 5.34251 165.934 5.42402C165.85 5.50553 165.737 5.55164 165.62 5.5529Z" fill="#292929"/>
<path d="M147.741 6.13977L146.031 6.29871L145.598 6.34256L145.384 6.34256L145.171 6.36996L144.316 6.4741C144.195 6.48174 144.076 6.44194 143.983 6.36315C143.891 6.28435 143.834 6.17276 143.822 6.05207L143.45 2.82387C143.437 2.76213 143.437 2.69846 143.45 2.63681C143.463 2.57516 143.489 2.51684 143.525 2.46546C143.562 2.41408 143.609 2.37074 143.662 2.33811C143.716 2.30549 143.776 2.28428 143.839 2.27579L144.721 2.16618L144.941 2.16618L145.16 2.16618L145.598 2.12233L147.363 1.9579C147.486 1.95038 147.606 1.99167 147.699 2.07278C147.791 2.15389 147.848 2.26823 147.856 2.39089L148.141 5.62457C148.155 5.74573 148.121 5.86755 148.046 5.96388C147.972 6.0602 147.862 6.12336 147.741 6.13977Z" fill="#292929"/>
<path d="M103.319 24.1718L101.807 24.835L101.428 24.9994L101.242 25.0816L101.056 25.1693L100.305 25.5146C100.25 25.5367 100.192 25.5477 100.133 25.547C100.074 25.5463 100.016 25.5338 99.9615 25.5104C99.9074 25.4869 99.8585 25.4529 99.8177 25.4103C99.7769 25.3678 99.745 25.3175 99.7239 25.2625L98.3536 22.3138C98.2992 22.2067 98.2888 22.0825 98.3246 21.9678C98.3605 21.8531 98.4397 21.757 98.5455 21.6999L99.3183 21.3382L99.5101 21.2505L99.7019 21.1628L100.091 20.9929L101.642 20.3133C101.755 20.2705 101.88 20.2742 101.99 20.3235C102.1 20.3729 102.186 20.4638 102.229 20.5764L103.517 23.5634C103.57 23.6704 103.58 23.7942 103.543 23.9081C103.506 24.022 103.426 24.1168 103.319 24.1718Z" fill="#292929"/>
<path d="M96.7203 27.23L95.246 27.9644L94.8733 28.1453L94.5115 28.3371L93.7826 28.7208C93.6735 28.7692 93.5496 28.7728 93.4379 28.7308C93.3261 28.6887 93.2354 28.6044 93.1852 28.4961L91.6889 25.6186C91.6584 25.5669 91.6385 25.5096 91.6303 25.4501C91.622 25.3906 91.6257 25.3301 91.641 25.272C91.6562 25.2139 91.6829 25.1594 91.7193 25.1117C91.7558 25.0639 91.8013 25.0239 91.8533 24.9938L92.6042 24.5992L92.9769 24.4019L93.3606 24.2156L94.8788 23.4592C94.9893 23.4114 95.1142 23.4094 95.2262 23.4536C95.3381 23.4978 95.428 23.5845 95.4762 23.6949L96.9067 26.6107C96.9633 26.7177 96.9754 26.8427 96.9406 26.9586C96.9057 27.0745 96.8266 27.172 96.7203 27.23Z" fill="#292929"/>
<path d="M156.675 5.57529L153.233 5.72875C153.111 5.72879 152.995 5.68121 152.908 5.5962C152.82 5.51119 152.77 5.39549 152.767 5.27384L152.575 2.0292C152.566 1.90646 152.606 1.7851 152.686 1.69165C152.766 1.5982 152.88 1.54025 153.003 1.53045L156.538 1.37699C156.599 1.37626 156.659 1.38763 156.716 1.41045C156.772 1.43326 156.824 1.46705 156.867 1.50987C156.91 1.5527 156.945 1.6037 156.968 1.65992C156.992 1.71613 157.004 1.77645 157.004 1.83737L157.097 5.0875C157.102 5.14727 157.094 5.20733 157.075 5.26424C157.057 5.32116 157.027 5.37379 156.988 5.41912C156.948 5.46445 156.901 5.50158 156.847 5.52838C156.793 5.55518 156.735 5.57113 156.675 5.57529Z" fill="#292929"/>
<path d="M275.505 43.1519C274.239 41.8858 272.918 40.6856 271.608 39.4579L271.367 39.2277L271.115 39.0084L270.616 38.559L269.613 37.6656L268.61 36.7777C268.446 36.6243 268.27 36.4818 268.1 36.3393L267.591 35.9063L265.541 34.1689C264.85 33.6208 264.154 33.0398 263.458 32.4808L262.411 31.6367L261.348 30.8201L259.216 29.1758L257.051 27.5919C256.689 27.3288 256.328 27.0438 255.955 26.8027L254.859 26.0353L253.763 25.2735L253.215 24.8898C253.028 24.7638 252.847 24.6322 252.667 24.5117L250.425 23.0373L249.877 22.6701L249.597 22.4838L249.312 22.3029L248.145 21.6288L247.005 20.9163C246.627 20.6806 246.248 20.4394 245.865 20.2147C244.319 19.3104 242.79 18.3786 241.217 17.5236L240.044 16.8714L239.458 16.5426C239.266 16.433 239.063 16.3343 238.866 16.2302L236.487 14.9805L235.895 14.6681C235.698 14.564 235.495 14.4653 235.292 14.3667L234.092 13.7693L232.886 13.1774L232.283 12.8814C232.086 12.7827 231.883 12.6896 231.68 12.5964L229.258 11.4399L228.65 11.1604C228.447 11.0672 228.239 10.9795 228.036 10.8919L226.803 10.3438L225.575 9.79569L224.956 9.52713C224.753 9.43943 224.544 9.35723 224.336 9.27501L221.848 8.26654L221.223 8.01442C221.015 7.93221 220.807 7.85548 220.598 7.77874L219.338 7.30192L218.083 6.83057L217.458 6.5949C217.244 6.51816 217.036 6.44691 216.822 6.37566L214.284 5.49325L213.654 5.27402C213.44 5.19729 213.227 5.13151 213.013 5.06574L211.736 4.65468C208.332 3.55852 204.879 2.59938 201.415 1.71149L201.635 0.818112C205.12 1.71148 208.595 2.65967 212.015 3.78323L213.303 4.1943C213.517 4.26007 213.731 4.32584 213.945 4.40257L214.58 4.6218L217.129 5.50969L217.77 5.7344L218.4 5.97007L219.661 6.44691L220.927 6.91826C221.135 7.00047 221.349 7.07721 221.557 7.15942L222.182 7.41153L224.687 8.42549L225.312 8.68308L225.931 8.95164L227.17 9.49972L228.408 10.0478C228.617 10.1355 228.819 10.2232 229.028 10.3164L229.636 10.6014L232.086 11.7359C232.294 11.8345 232.497 11.9277 232.7 12.0264L233.303 12.3223L234.514 12.9198L235.725 13.5172C235.928 13.6213 236.131 13.7145 236.328 13.8241L236.926 14.1365L239.315 15.3916C239.513 15.4957 239.715 15.5999 239.913 15.7095L240.499 16.0383L241.683 16.696C243.261 17.5565 244.802 18.4883 246.353 19.4036C246.742 19.6283 247.12 19.8694 247.504 20.1106L248.649 20.8231L249.795 21.5356L250.08 21.7165L250.365 21.9028L250.913 22.27L253.165 23.7553L253.713 24.139L254.261 24.5226L255.358 25.2899L256.454 26.0573C256.821 26.3203 257.183 26.6053 257.55 26.852L259.742 28.4469L261.885 30.0911L262.954 30.9133L264.001 31.7628C264.702 32.3255 265.402 32.8918 266.1 33.4618L268.161 35.2047L268.676 35.6432C268.846 35.7912 269.021 35.9337 269.186 36.0817L270.194 36.9805L271.203 37.8794L271.707 38.3288L271.959 38.5535L272.206 38.7837C273.516 40.0114 274.847 41.2227 276.119 42.4997L275.505 43.1519Z" fill="#292929"/>
<path d="M151.112 11.6975C143.441 12.2487 135.825 13.3996 128.334 15.1395C124.588 16.0237 120.882 17.0413 117.213 18.1923L114.473 19.0857C114.243 19.1569 114.018 19.2391 113.793 19.3213L113.113 19.5625L111.754 20.0448C110.844 20.3517 109.951 20.708 109.052 21.0478L107.704 21.563C107.479 21.6452 107.26 21.7438 107.035 21.8315L106.367 22.1056L106.027 21.2561L106.695 20.9765C106.92 20.8888 107.139 20.7902 107.37 20.708L108.723 20.1928C109.628 19.8475 110.527 19.4912 111.464 19.1788L112.834 18.6965L113.519 18.4554C113.744 18.3732 113.968 18.2909 114.204 18.2142L116.945 17.3154C120.635 16.1534 124.364 15.1303 128.131 14.2461C135.669 12.4958 143.333 11.3377 151.052 10.7822L151.112 11.6975Z" fill="#292929"/>
<path d="M247.772 38.1695L245.393 36.5252C245.004 36.2457 244.593 35.9772 244.193 35.7196L242.987 34.9249L242.384 34.5247C242.181 34.3932 241.979 34.2617 241.776 34.1356L240.548 33.3683C239.726 32.8586 238.904 32.3379 238.082 31.8611C234.793 29.8661 231.379 28.0245 227.931 26.3255C226.21 25.4485 224.451 24.6812 222.702 23.8481L220.05 22.7246C219.831 22.6259 219.611 22.5272 219.387 22.4395L218.718 22.1655L217.375 21.6174L216.032 21.0693L214.684 20.5651L213.33 20.0554L212.651 19.7978C212.426 19.7156 212.196 19.6389 211.971 19.5621L209.231 18.6085C208.315 18.307 207.395 18.022 206.49 17.7261L206.764 16.8491C207.685 17.1451 208.611 17.4356 209.505 17.737L212.245 18.6962C212.475 18.7729 212.706 18.8551 212.93 18.9373L213.61 19.1894L214.975 19.7046L216.334 20.2143L217.682 20.7624L219.036 21.3105L219.71 21.5845C219.929 21.6777 220.154 21.7764 220.373 21.875L223.042 23.0315C224.807 23.8481 226.572 24.6428 228.304 25.5252C231.779 27.2462 235.199 29.0878 238.52 31.0938C239.359 31.5761 240.164 32.1022 241.003 32.6119L242.236 33.3847C242.444 33.5108 242.642 33.6423 242.844 33.7794L243.453 34.1795L244.67 34.9796C245.075 35.2427 245.486 35.5277 245.881 35.7853L248.271 37.4296L247.772 38.1695Z" fill="#292929"/>
<path d="M315.581 168.547L315.679 166.826L315.723 165.971L315.723 165.111C315.727 165.051 315.742 164.992 315.768 164.937C315.795 164.883 315.832 164.835 315.877 164.795C315.923 164.755 315.976 164.725 316.033 164.706C316.09 164.686 316.151 164.679 316.211 164.683L319.461 164.798C319.522 164.798 319.582 164.811 319.638 164.834C319.695 164.858 319.746 164.892 319.788 164.935C319.831 164.979 319.865 165.03 319.888 165.086C319.911 165.143 319.922 165.203 319.921 165.264L319.894 166.152L319.85 167.035L319.746 168.799C319.742 168.86 319.726 168.92 319.698 168.974C319.671 169.028 319.632 169.077 319.586 169.116C319.539 169.155 319.485 169.185 319.427 169.203C319.369 169.221 319.308 169.227 319.247 169.221L316.003 169.019C315.885 169.009 315.776 168.955 315.698 168.867C315.619 168.779 315.577 168.665 315.581 168.547Z" fill="#292929"/>
<path d="M315.854 159.603L315.854 157.882L315.822 156.161C315.824 156.04 315.875 155.924 315.962 155.84C316.049 155.756 316.166 155.71 316.287 155.711L319.538 155.635C319.66 155.629 319.78 155.671 319.872 155.753C319.963 155.836 320.018 155.95 320.025 156.073L320.058 157.843L320.058 159.614C320.053 159.737 319.999 159.853 319.909 159.937C319.819 160.021 319.699 160.066 319.576 160.063L316.326 160.063C316.264 160.065 316.203 160.055 316.145 160.033C316.088 160.011 316.036 159.977 315.991 159.934C315.947 159.891 315.913 159.839 315.889 159.782C315.865 159.725 315.854 159.664 315.854 159.603Z" fill="#292929"/>
<path d="M315.624 150.658L315.389 147.221C315.387 147.1 315.432 146.983 315.515 146.894C315.598 146.805 315.711 146.752 315.833 146.745L319.072 146.482C319.132 146.474 319.194 146.479 319.253 146.495C319.312 146.512 319.366 146.54 319.414 146.579C319.462 146.617 319.501 146.665 319.53 146.719C319.558 146.773 319.576 146.832 319.581 146.893L319.823 150.422C319.824 150.483 319.813 150.544 319.791 150.601C319.769 150.658 319.736 150.711 319.694 150.755C319.652 150.799 319.601 150.835 319.545 150.859C319.489 150.884 319.429 150.898 319.368 150.899L316.123 151.074C316.002 151.085 315.881 151.047 315.788 150.969C315.694 150.891 315.635 150.779 315.624 150.658Z" fill="#292929"/>
<path d="M314.852 141.747L314.649 140.037L314.545 139.182L314.419 138.327C314.413 138.267 314.419 138.206 314.436 138.149C314.453 138.091 314.482 138.038 314.52 137.991C314.558 137.945 314.606 137.907 314.659 137.879C314.712 137.851 314.77 137.833 314.83 137.828L318.047 137.373C318.108 137.36 318.171 137.36 318.232 137.372C318.293 137.385 318.351 137.409 318.402 137.445C318.453 137.48 318.497 137.525 318.53 137.578C318.563 137.631 318.585 137.69 318.595 137.751L318.721 138.628L318.831 139.505L319.039 141.264C319.05 141.387 319.011 141.509 318.932 141.604C318.853 141.698 318.74 141.757 318.617 141.768L315.389 142.13C315.328 142.14 315.266 142.139 315.207 142.125C315.147 142.111 315.09 142.086 315.041 142.05C314.991 142.014 314.948 141.969 314.916 141.917C314.883 141.865 314.862 141.807 314.852 141.747Z" fill="#292929"/>
<path d="M313.569 132.889C313.388 131.754 313.153 130.631 312.933 129.507C312.921 129.446 312.921 129.383 312.934 129.321C312.946 129.26 312.971 129.202 313.007 129.151C313.043 129.099 313.089 129.056 313.142 129.023C313.196 128.99 313.255 128.968 313.317 128.959L316.501 128.312C316.621 128.286 316.745 128.309 316.848 128.374C316.951 128.44 317.023 128.544 317.049 128.663C317.274 129.825 317.515 130.976 317.702 132.144C317.714 132.206 317.714 132.27 317.7 132.332C317.687 132.394 317.661 132.452 317.624 132.504C317.587 132.555 317.54 132.598 317.485 132.631C317.431 132.663 317.37 132.684 317.307 132.692L314.106 133.24C313.989 133.263 313.867 133.239 313.767 133.173C313.666 133.108 313.595 133.006 313.569 132.889Z" fill="#292929"/>
<path d="M311.771 124.119L310.944 120.776C310.918 120.657 310.94 120.532 311.006 120.429C311.072 120.327 311.175 120.254 311.295 120.228L314.435 119.4C314.554 119.368 314.681 119.383 314.79 119.442C314.898 119.501 314.979 119.6 315.016 119.718L315.866 123.149C315.89 123.27 315.865 123.395 315.798 123.498C315.73 123.601 315.624 123.672 315.504 123.697L312.341 124.432C312.224 124.464 312.099 124.45 311.993 124.391C311.886 124.333 311.807 124.235 311.771 124.119Z" fill="#292929"/>
<path d="M309.453 115.482L308.96 113.838L308.697 113.016L308.434 112.199C308.405 112.085 308.421 111.965 308.479 111.862C308.538 111.76 308.633 111.685 308.746 111.651L311.837 110.637C311.954 110.598 312.08 110.606 312.191 110.66C312.301 110.713 312.387 110.807 312.429 110.922L312.709 111.761L312.972 112.605L313.481 114.298C313.507 114.415 313.487 114.536 313.426 114.638C313.365 114.74 313.267 114.814 313.153 114.847L310.039 115.767C309.924 115.806 309.798 115.798 309.688 115.745C309.578 115.691 309.494 115.597 309.453 115.482Z" fill="#292929"/>
<path d="M303.342 98.6721L302.651 97.0937L302.306 96.3044C302.196 96.0413 302.065 95.7837 301.95 95.5207C301.926 95.4653 301.914 95.4058 301.914 95.3457C301.914 95.2856 301.926 95.2261 301.949 95.1705C301.971 95.115 302.005 95.0645 302.048 95.0221C302.09 94.9796 302.141 94.9461 302.196 94.9233L305.145 93.564C305.256 93.5088 305.383 93.4997 305.501 93.5388C305.618 93.5779 305.715 93.6618 305.77 93.7723C305.89 94.0408 306.022 94.3204 306.143 94.578L306.493 95.3836L307.206 97.0279C307.251 97.142 307.249 97.2694 307.201 97.3823C307.153 97.4952 307.062 97.5845 306.948 97.6308L303.961 98.9078C303.848 98.9579 303.719 98.9613 303.603 98.9172C303.487 98.873 303.393 98.785 303.342 98.6721Z" fill="#292929"/>
<path d="M272.446 61.9785L271.35 60.7453L271.076 60.4384L270.796 60.1315L270.248 59.5286C270.173 59.4369 270.137 59.3191 270.149 59.201C270.16 59.083 270.218 58.9742 270.309 58.8983L272.693 56.706C272.735 56.6632 272.786 56.6293 272.841 56.6061C272.897 56.583 272.956 56.571 273.016 56.571C273.076 56.571 273.136 56.583 273.191 56.6061C273.247 56.6293 273.297 56.6632 273.34 56.706L273.915 57.3253L274.2 57.6377L274.485 57.9501L275.581 59.2217C275.619 59.2684 275.647 59.3221 275.664 59.3796C275.68 59.4372 275.686 59.4975 275.679 59.5571C275.672 59.6167 275.654 59.6744 275.625 59.7269C275.596 59.7794 275.557 59.8256 275.51 59.8629L273.066 62.0059C272.977 62.0793 272.865 62.1172 272.751 62.1121C272.636 62.107 272.528 62.0594 272.446 61.9785Z" fill="#292929"/>
<path d="M267.508 56.6451L266.357 55.4613C265.974 55.0721 265.574 54.6885 265.184 54.3048C265.145 54.2609 265.114 54.2097 265.094 54.154C265.075 54.0982 265.066 54.0392 265.069 53.9801C265.072 53.921 265.087 53.8631 265.112 53.8098C265.138 53.7564 265.173 53.7086 265.217 53.669L267.492 51.3452C267.573 51.2565 267.685 51.2028 267.805 51.1956C267.924 51.1885 268.042 51.2284 268.133 51.3068C268.533 51.7069 268.944 52.096 269.339 52.4961L270.523 53.7129C270.603 53.8031 270.643 53.9212 270.636 54.0414C270.629 54.1616 270.574 54.2741 270.484 54.3541L268.144 56.6122C268.105 56.6562 268.057 56.692 268.003 56.7174C267.95 56.7429 267.892 56.7576 267.833 56.7606C267.774 56.7637 267.715 56.7551 267.659 56.7352C267.603 56.7154 267.552 56.6848 267.508 56.6451Z" fill="#292929"/>
<path d="M306.647 106.987C306.46 106.439 306.246 105.891 306.049 105.37L305.441 103.764C305.421 103.707 305.413 103.646 305.416 103.586C305.42 103.526 305.435 103.466 305.462 103.412C305.488 103.357 305.525 103.309 305.57 103.269C305.616 103.228 305.669 103.198 305.726 103.178L308.729 101.988C308.785 101.965 308.846 101.953 308.906 101.953C308.967 101.953 309.027 101.966 309.083 101.989C309.139 102.012 309.19 102.047 309.233 102.09C309.276 102.133 309.309 102.184 309.332 102.241L309.962 103.885C310.171 104.433 310.39 104.981 310.582 105.529C310.62 105.646 310.61 105.773 310.555 105.883C310.499 105.993 310.403 106.077 310.286 106.116L307.228 107.212C307.12 107.254 307.001 107.254 306.893 107.212C306.786 107.171 306.698 107.09 306.647 106.987Z" fill="#292929"/>
<path d="M307.633 231.616L308.231 230.41L308.527 229.807L308.812 229.199L309.941 226.765L310.22 226.157L310.489 225.537L311.037 224.31L311.585 223.076L311.854 222.463L312.106 221.838L313.114 219.35L313.366 218.725L313.602 218.1L314.073 216.845L314.55 215.584L314.786 214.959L315.005 214.324L315.855 211.813L316.074 211.183L316.277 210.542L316.688 209.265L317.115 207.977L317.323 207.336L317.51 206.694L318.266 204.118L318.452 203.472C318.518 203.258 318.568 203.039 318.628 202.825L318.973 201.526C319.916 198.073 320.683 194.576 321.401 191.074L321.889 188.438L322.13 187.117L322.344 185.796L322.766 183.143L323.122 180.491L323.298 179.159C323.33 178.939 323.352 178.715 323.38 178.496L323.451 177.827L323.736 175.158C323.791 174.714 323.818 174.27 323.857 173.826L323.966 172.489L324.076 171.151L324.131 170.483L324.169 169.808L324.317 167.134L324.355 166.46L324.355 165.791L324.399 164.448L324.443 163.111L324.443 162.437L324.443 161.768L324.443 159.082L324.443 158.414C324.443 158.189 324.443 157.964 324.443 157.74L324.443 156.402L324.416 155.06C324.416 154.61 324.416 154.161 324.377 153.717C324.295 151.93 324.24 150.138 324.098 148.357L325.013 148.291C325.156 150.088 325.216 151.886 325.298 153.684C325.298 154.133 325.325 154.583 325.336 155.032L325.336 156.386L325.364 157.734L325.364 158.408L325.364 159.082L325.364 161.779L325.364 162.459L325.364 163.133L325.32 164.481L325.276 165.829L325.276 166.504L325.238 167.178L325.084 169.869L325.046 170.543C325.046 170.768 325.008 170.992 324.991 171.217L324.881 172.56L324.772 173.903C324.733 174.352 324.706 174.801 324.651 175.251L324.361 177.931L324.29 178.6L324.213 179.268L324.032 180.606L323.67 183.28L323.248 185.944L323.034 187.276L322.793 188.602L322.3 191.255C321.577 194.774 320.809 198.292 319.861 201.762L319.516 203.066C319.455 203.285 319.401 203.504 319.335 203.718L319.149 204.365L318.392 206.957L318.2 207.604L317.992 208.245L317.581 209.533L317.17 210.816L316.967 211.463L316.742 212.098L315.86 214.647L315.635 215.288L315.4 215.919L314.923 217.185L314.451 218.445L314.21 219.075L313.958 219.706L312.944 222.205L312.692 222.83L312.424 223.449L311.875 224.688L311.327 225.926L311.059 226.546L310.774 227.16L309.639 229.61L309.354 230.223L309.058 230.826L308.455 232.038L307.633 231.616Z" fill="#292929"/>
<path d="M299.1 103.6C298.738 102.712 298.382 101.818 298.003 100.941L297.455 99.6204L297.165 98.9627C297.066 98.7435 296.973 98.5188 296.869 98.305L295.575 95.6907L295.427 95.3619L295.268 95.0385L294.945 94.3918L294.304 93.1038L293.986 92.457L293.821 92.1337L293.657 91.8158L292.983 90.5387L292.309 89.2617L292.144 88.9438L291.969 88.6314L291.613 88.0011L290.911 86.7405C290.676 86.324 290.451 85.8965 290.204 85.4854L288.763 83.0136C286.768 79.7251 284.654 76.5133 282.421 73.3783L280.728 71.0435L278.979 68.7635L278.541 68.2154L278.086 67.6673L277.187 66.5437L276.283 65.4202L275.351 64.324L276.058 63.7375L276.99 64.8337L277.9 65.9682L278.81 67.0973L279.264 67.6454L279.703 68.2263L281.462 70.5338L283.167 72.8796C285.414 75.9817 287.54 79.1971 289.546 82.5258L291.021 85.025C291.267 85.4416 291.498 85.8691 291.733 86.2911L292.44 87.5572L292.797 88.1875L292.972 88.5053L293.142 88.8287L293.821 90.1386L294.501 91.4211L294.666 91.7445L294.83 92.0679L295.153 92.7201L295.795 93.9752L296.118 94.6219L296.282 94.9508L296.436 95.2796L297.664 97.905C297.768 98.1242 297.861 98.3489 297.959 98.5681L298.25 99.2313L298.831 100.563C299.231 101.446 299.582 102.344 299.927 103.238L299.1 103.6Z" fill="#292929"/>
<path d="M303.797 203.707C303.873 203.477 303.95 203.247 304.016 203.017L304.219 202.321L304.624 200.934L305.03 199.542L305.397 198.144L305.77 196.747L305.956 196.051L306.126 195.344L306.795 192.532C307.633 188.767 308.351 184.968 308.921 181.154C309.491 177.339 309.891 173.481 310.171 169.644C310.45 165.808 310.544 161.938 310.527 158.08L311.443 158.08C311.464 161.96 311.346 165.839 311.086 169.715C310.827 173.592 310.407 177.449 309.826 181.285C309.248 185.126 308.536 188.942 307.688 192.735L307.014 195.568C306.954 195.804 306.904 196.04 306.839 196.275L306.652 196.977L306.28 198.386L305.907 199.789L305.501 201.186L305.09 202.584L304.887 203.28C304.822 203.516 304.745 203.746 304.668 203.976L303.797 203.707Z" fill="#292929"/>
<path d="M200.757 308.511L204.046 307.601C204.163 307.578 204.284 307.599 204.386 307.661C204.487 307.723 204.562 307.821 204.594 307.936L205.493 311.06C205.512 311.118 205.52 311.179 205.515 311.24C205.511 311.301 205.494 311.36 205.465 311.414C205.437 311.468 205.399 311.516 205.351 311.555C205.304 311.594 205.25 311.623 205.191 311.641L201.782 312.578C201.663 312.602 201.539 312.58 201.437 312.514C201.335 312.449 201.262 312.346 201.234 312.227L200.418 309.081C200.401 309.021 200.397 308.959 200.406 308.898C200.414 308.836 200.435 308.777 200.466 308.724C200.498 308.671 200.54 308.624 200.59 308.588C200.64 308.551 200.697 308.525 200.757 308.511Z" fill="#292929"/>
<path d="M209.346 305.985L210.99 305.437L211.401 305.3L211.807 305.157L212.618 304.867C212.731 304.84 212.85 304.857 212.952 304.914C213.053 304.971 213.129 305.063 213.166 305.174L214.262 308.237C214.284 308.294 214.295 308.355 214.293 308.416C214.291 308.477 214.278 308.537 214.253 308.592C214.228 308.648 214.192 308.698 214.148 308.739C214.103 308.781 214.051 308.814 213.994 308.835L213.161 309.131L212.744 309.279L212.327 309.416L210.645 309.964C210.53 309.991 210.409 309.973 210.307 309.914C210.206 309.855 210.13 309.759 210.097 309.646L209.099 306.555C209.063 306.446 209.068 306.328 209.114 306.223C209.159 306.118 209.242 306.033 209.346 305.985Z" fill="#292929"/>
<path d="M217.748 302.975L218.153 302.822L218.351 302.745L218.554 302.669L219.348 302.34L220.965 301.698C221.022 301.677 221.082 301.668 221.143 301.67C221.204 301.673 221.263 301.687 221.318 301.713C221.373 301.738 221.422 301.774 221.463 301.819C221.504 301.863 221.536 301.916 221.557 301.972L222.818 304.965C222.868 305.078 222.871 305.206 222.827 305.321C222.782 305.436 222.694 305.529 222.582 305.579L220.938 306.247L220.121 306.582L219.918 306.67L219.71 306.746L219.293 306.905C219.177 306.946 219.05 306.938 218.939 306.885C218.828 306.831 218.743 306.736 218.702 306.62L217.529 303.589C217.502 303.535 217.486 303.475 217.483 303.415C217.48 303.354 217.488 303.293 217.509 303.236C217.529 303.179 217.561 303.126 217.602 303.082C217.643 303.037 217.693 303.001 217.748 302.975Z" fill="#292929"/>
<path d="M226.008 299.506L227.57 298.777C228.118 298.536 228.611 298.295 229.121 298.037C229.232 297.987 229.358 297.983 229.473 298.026C229.587 298.07 229.679 298.156 229.729 298.267L231.16 301.189C231.216 301.299 231.227 301.426 231.19 301.544C231.153 301.662 231.071 301.761 230.962 301.819C230.414 302.082 229.899 302.329 229.367 302.581L227.761 303.326C227.706 303.351 227.646 303.364 227.585 303.365C227.524 303.366 227.464 303.355 227.407 303.332C227.35 303.31 227.299 303.277 227.255 303.234C227.212 303.192 227.177 303.141 227.153 303.085L225.805 300.125C225.751 300.016 225.742 299.89 225.78 299.774C225.818 299.659 225.9 299.562 226.008 299.506Z" fill="#292929"/>
<path d="M234.026 295.511L234.788 295.111L235.171 294.908L235.544 294.7L237.051 293.861C237.16 293.805 237.286 293.795 237.402 293.832C237.518 293.869 237.614 293.95 237.671 294.058L239.265 296.892C239.328 296.998 239.346 297.124 239.317 297.243C239.287 297.362 239.211 297.464 239.106 297.528L237.561 298.388L237.172 298.602L236.783 298.81L235.999 299.221C235.888 299.275 235.761 299.283 235.644 299.244C235.527 299.206 235.43 299.122 235.374 299.013L233.861 296.136C233.831 296.084 233.811 296.027 233.803 295.967C233.794 295.908 233.798 295.847 233.813 295.789C233.829 295.731 233.855 295.676 233.892 295.629C233.928 295.581 233.974 295.541 234.026 295.511Z" fill="#292929"/>
<path d="M241.809 291.088L244.73 289.268C244.835 289.207 244.96 289.19 245.077 289.22C245.195 289.249 245.297 289.324 245.36 289.427L247.114 292.168C247.184 292.269 247.21 292.395 247.187 292.516C247.165 292.637 247.095 292.745 246.993 292.814L243.99 294.689C243.937 294.719 243.879 294.738 243.819 294.746C243.758 294.753 243.697 294.749 243.638 294.733C243.58 294.716 243.525 294.689 243.477 294.651C243.429 294.613 243.389 294.567 243.36 294.513L241.677 291.729C241.643 291.679 241.62 291.622 241.608 291.562C241.597 291.502 241.597 291.441 241.609 291.381C241.621 291.322 241.645 291.265 241.679 291.215C241.714 291.164 241.758 291.121 241.809 291.088Z" fill="#292929"/>
<path d="M249.312 286.216L250.726 285.256C251.197 284.928 251.658 284.582 252.123 284.248C252.225 284.181 252.348 284.157 252.467 284.18C252.586 284.204 252.691 284.273 252.759 284.374L254.672 286.999C254.71 287.047 254.738 287.102 254.755 287.161C254.771 287.22 254.776 287.282 254.768 287.343C254.76 287.403 254.741 287.462 254.71 287.515C254.679 287.568 254.639 287.615 254.59 287.652C254.107 287.997 253.636 288.348 253.154 288.687L251.701 289.696C251.65 289.73 251.592 289.753 251.532 289.764C251.472 289.775 251.41 289.775 251.35 289.762C251.289 289.749 251.232 289.725 251.182 289.69C251.131 289.655 251.088 289.611 251.055 289.559L249.219 286.879C249.179 286.83 249.149 286.774 249.132 286.713C249.115 286.653 249.111 286.589 249.12 286.527C249.128 286.464 249.15 286.405 249.183 286.351C249.216 286.297 249.26 286.251 249.312 286.216Z" fill="#292929"/>
<path d="M263.425 275.221L264.713 274.081C264.927 273.889 265.146 273.703 265.36 273.505L265.979 272.919C266.025 272.88 266.078 272.85 266.136 272.831C266.193 272.813 266.254 272.806 266.314 272.811C266.374 272.816 266.433 272.833 266.486 272.861C266.54 272.889 266.587 272.927 266.626 272.974L268.818 275.363C268.904 275.451 268.952 275.569 268.952 275.692C268.952 275.815 268.904 275.933 268.818 276.021L268.171 276.618C267.952 276.821 267.728 277.013 267.508 277.21L266.182 278.378C266.135 278.417 266.081 278.447 266.023 278.465C265.965 278.483 265.904 278.49 265.843 278.484C265.783 278.478 265.724 278.461 265.67 278.432C265.616 278.404 265.568 278.365 265.53 278.318L263.398 275.868C263.357 275.824 263.325 275.772 263.304 275.715C263.283 275.659 263.274 275.599 263.276 275.539C263.279 275.478 263.293 275.419 263.319 275.365C263.344 275.31 263.381 275.261 263.425 275.221Z" fill="#292929"/>
<path d="M288.812 234.537L289.645 233.117C289.788 232.881 289.925 232.64 290.056 232.399L290.457 231.681C290.521 231.581 290.622 231.51 290.738 231.485C290.854 231.459 290.975 231.48 291.076 231.544L293.915 233.128C294.024 233.182 294.106 233.277 294.145 233.392C294.184 233.507 294.176 233.633 294.123 233.742L293.707 234.482C293.57 234.728 293.438 234.975 293.29 235.216L292.43 236.68C292.363 236.78 292.259 236.849 292.141 236.873C292.022 236.897 291.9 236.872 291.799 236.806L289.004 235.161C288.95 235.134 288.902 235.095 288.862 235.049C288.823 235.002 288.794 234.948 288.776 234.89C288.758 234.831 288.752 234.77 288.758 234.709C288.764 234.649 288.783 234.59 288.812 234.537Z" fill="#292929"/>
<path d="M292.353 228.196L293.12 226.732C293.252 226.491 293.367 226.244 293.493 225.998L293.855 225.258C293.915 225.156 294.013 225.081 294.128 225.051C294.243 225.02 294.365 225.035 294.468 225.093L297.384 226.535C297.495 226.583 297.581 226.673 297.625 226.785C297.67 226.897 297.668 227.022 297.62 227.132L297.242 227.894C297.116 228.146 296.995 228.404 296.864 228.65L296.074 230.152C296.044 230.204 296.003 230.249 295.955 230.285C295.908 230.321 295.853 230.347 295.795 230.361C295.737 230.376 295.676 230.379 295.617 230.371C295.558 230.362 295.501 230.342 295.45 230.311L292.578 228.804C292.522 228.78 292.472 228.745 292.43 228.7C292.389 228.656 292.357 228.604 292.336 228.548C292.315 228.491 292.305 228.43 292.308 228.37C292.311 228.309 292.326 228.25 292.353 228.196Z" fill="#292929"/>
<path d="M256.53 280.926C256.76 280.751 256.985 280.57 257.21 280.378L257.878 279.83L259.221 278.734C259.32 278.661 259.443 278.63 259.564 278.648C259.685 278.665 259.794 278.73 259.868 278.827L261.929 281.337C261.969 281.383 262 281.436 262.02 281.494C262.039 281.552 262.047 281.613 262.042 281.674C262.038 281.734 262.021 281.794 261.993 281.848C261.965 281.902 261.926 281.95 261.879 281.989L260.498 283.085L259.808 283.633C259.577 283.82 259.353 284.006 259.117 284.182C259.016 284.253 258.892 284.282 258.77 284.263C258.648 284.243 258.538 284.177 258.465 284.077L256.47 281.507C256.41 281.418 256.383 281.312 256.394 281.205C256.405 281.099 256.453 281 256.53 280.926Z" fill="#292929"/>
<path d="M138.331 320.394L140.989 320.744L142.315 320.925C142.759 320.98 143.209 321.024 143.653 321.073L146.316 321.358L146.651 321.397L146.985 321.397L147.654 321.451L148.991 321.561C150.772 321.725 152.559 321.802 154.346 321.906C154.57 321.906 154.79 321.934 155.014 321.945L155.683 321.945L157.026 321.983L158.369 322.027L159.037 322.027L159.711 322.027L162.392 322.027L163.066 322.027L163.734 322.027L165.077 322.027L166.42 321.999L167.089 321.999C167.313 321.999 167.538 321.999 167.763 321.999L170.443 321.879L171.112 321.852C171.336 321.852 171.561 321.819 171.786 321.808L173.123 321.714L174.46 321.621L175.129 321.572C175.354 321.572 175.578 321.534 175.798 321.517L178.472 321.265L179.141 321.199C179.366 321.199 179.585 321.15 179.81 321.123L181.141 320.964L182.473 320.805L183.142 320.722C183.361 320.722 183.58 320.662 183.805 320.635L186.463 320.246L187.127 320.152C187.346 320.12 187.565 320.076 187.79 320.043L189.111 319.818L190.437 319.593L191.095 319.478C191.319 319.44 191.539 319.391 191.758 319.352L194.389 318.837L195.052 318.706L195.704 318.563L197.014 318.273L198.324 317.982L198.982 317.834L199.634 317.675L202.237 317.045C205.701 316.14 209.148 315.165 212.541 314.03L213.818 313.614L214.136 313.51L214.454 313.395L215.084 313.17L217.616 312.277C217.83 312.205 218.038 312.123 218.247 312.041L218.871 311.805L220.127 311.328L221.382 310.846C221.798 310.687 222.209 310.512 222.626 310.342L222.966 311.197C222.549 311.361 222.138 311.537 221.716 311.701L220.455 312.183L219.195 312.666L218.564 312.907C218.356 312.984 218.142 313.066 217.934 313.137L215.386 314.041L214.75 314.266L214.432 314.376L214.114 314.48L212.826 314.902C209.417 316.042 205.948 317.023 202.467 317.933L199.848 318.585L199.19 318.744L198.532 318.892L197.211 319.182L195.896 319.478L195.238 319.621L194.575 319.752L191.922 320.268L191.259 320.399L190.596 320.509L189.264 320.739L187.932 320.964C187.713 321.002 187.488 321.04 187.269 321.073L186.6 321.172L183.926 321.561C183.706 321.561 183.482 321.627 183.257 321.654L182.588 321.731L181.251 321.895L179.908 322.054C179.684 322.054 179.459 322.109 179.24 322.131L178.566 322.191L175.88 322.443C175.655 322.443 175.43 322.493 175.206 322.504L174.532 322.553L173.183 322.646L171.841 322.739C171.616 322.739 171.391 322.772 171.166 322.783L170.492 322.783L167.796 322.904C167.571 322.904 167.346 322.904 167.116 322.904L166.442 322.904L165.094 322.904L163.745 322.904L163.071 322.904L162.392 322.904L159.69 322.904L159.015 322.904L158.341 322.904L156.993 322.865L155.645 322.822L154.971 322.822C154.746 322.822 154.521 322.822 154.296 322.789C152.499 322.679 150.701 322.602 148.909 322.438L147.566 322.323L146.897 322.268L146.558 322.268L146.223 322.235L143.543 321.945C143.094 321.895 142.65 321.851 142.2 321.797L140.863 321.616L138.194 321.26L138.331 320.394Z" fill="#292929"/>
<path d="M257.423 272.699L258.52 271.773C258.706 271.619 258.881 271.455 259.068 271.302L259.616 270.819L260.712 269.866L261.26 269.389C261.446 269.23 261.616 269.065 261.808 268.901L263.924 266.939L265.995 264.933C268.732 262.225 271.365 259.425 273.893 256.531C276.422 253.637 278.826 250.637 281.106 247.531C281.654 246.753 282.241 245.98 282.805 245.196L284.449 242.829L284.652 242.533L284.855 242.237L285.25 241.634L286.044 240.428L286.439 239.825L286.636 239.524L286.806 239.217L287.568 237.995L288.346 238.482L287.579 239.71L287.382 240.017L287.184 240.318L286.784 240.927L285.984 242.138L285.589 242.741L285.387 243.042L285.178 243.338L283.534 245.723C282.986 246.512 282.394 247.285 281.829 248.068C279.52 251.178 277.101 254.196 274.573 257.123C272.044 260.049 269.395 262.868 266.626 265.58L264.543 267.602L262.411 269.575C262.236 269.74 262.06 269.904 261.863 270.063L261.315 270.545L260.219 271.504L259.671 271.987C259.49 272.146 259.309 272.31 259.122 272.463L258.026 273.395L257.423 272.699Z" fill="#292929"/>
<path d="M163.691 308.106L166.585 308.051C167.549 308.018 168.508 307.969 169.473 307.93C170.438 307.892 171.397 307.815 172.361 307.755L173.803 307.651C173.923 307.651 174.044 307.651 174.165 307.651L174.526 307.612L175.244 307.547L176.68 307.41L177.404 307.344L177.76 307.311L178.122 307.267L180.994 306.922C181.471 306.872 181.947 306.796 182.424 306.73L183.855 306.522L184.573 306.418C184.808 306.379 185.05 306.352 185.285 306.308L186.71 306.067C188.618 305.76 190.503 305.371 192.394 304.998L195.216 304.373C195.452 304.318 195.688 304.269 195.923 304.214L196.625 304.039L198.028 303.688C198.494 303.573 198.965 303.463 199.431 303.337L200.829 302.959L202.221 302.575C202.451 302.51 202.687 302.455 202.917 302.384L203.608 302.175C204.534 301.896 205.46 301.627 206.381 301.337L209.121 300.438L209.417 301.309L206.677 302.214C205.751 302.499 204.819 302.762 203.893 303.052L203.191 303.266C202.961 303.337 202.725 303.392 202.495 303.458L201.092 303.842L199.683 304.225C199.217 304.351 198.746 304.461 198.275 304.581L196.861 304.932L196.154 305.108C195.923 305.168 195.682 305.212 195.447 305.267L192.608 305.897C190.7 306.27 188.804 306.664 186.886 306.993L185.411 307.179C185.17 307.223 184.929 307.256 184.688 307.289L183.97 307.393L182.528 307.601C182.052 307.673 181.569 307.749 181.087 307.804L178.199 308.149L177.837 308.188L177.475 308.226L176.752 308.292L175.305 308.429L174.581 308.495L174.219 308.533C174.099 308.533 173.973 308.533 173.852 308.533L172.405 308.637C171.435 308.698 170.471 308.78 169.5 308.813C168.53 308.846 167.56 308.9 166.59 308.939L163.68 308.994L163.691 308.106Z" fill="#292929"/>
<path d="M294.901 160.293C294.934 177.718 291.452 194.97 284.663 211.018C278.114 226.504 268.621 240.572 256.711 252.442C244.842 264.351 230.773 273.844 215.287 280.394C199.244 287.172 182 290.647 164.584 290.61C147.159 290.643 129.907 287.161 113.859 280.372C98.3727 273.822 84.3046 264.33 72.4351 252.42C60.5254 240.55 51.0325 226.482 44.483 210.996C37.7047 194.953 34.23 177.709 34.2667 160.293C34.234 142.868 37.7162 125.616 44.5049 109.568C51.0545 94.0815 60.5474 80.0134 72.4571 68.1439C84.3266 56.2342 98.3946 46.7413 113.881 40.1918C129.924 33.4135 147.168 29.9388 164.584 29.9756C182.009 29.9428 199.261 33.425 215.309 40.2137C230.795 46.7633 244.864 56.2562 256.733 68.1659C268.643 80.0353 278.136 94.1034 284.685 109.59C291.463 125.633 294.938 142.877 294.901 160.293ZM295.998 160.293C295.998 87.7159 237.161 28.8794 164.584 28.8794C92.0071 28.8794 33.1706 87.7159 33.1706 160.293C33.1706 232.87 92.0071 291.706 164.584 291.706C237.161 291.706 295.998 232.87 295.998 160.293Z" fill="#292929"/>
</svg>
