<svg width="25" height="31" viewBox="0 0 25 31" fill="none" xmlns="http://www.w3.org/2000/svg">
<path d="M20.6 11.0882H17.7942V2.26471C17.7942 1.29412 17 0.5 16.0294 0.5H8.97062C8.00004 0.5 7.20592 1.29412 7.20592 2.26471V11.0882H4.40004C2.82945 11.0882 2.03533 12.9941 3.14709 14.1059L11.2471 22.2059C11.9353 22.8941 13.0471 22.8941 13.7353 22.2059L21.8353 14.1059C22.9471 12.9941 22.1706 11.0882 20.6 11.0882ZM0.147095 28.7353C0.147095 29.7059 0.941212 30.5 1.9118 30.5H23.0883C24.0589 30.5 24.853 29.7059 24.853 28.7353C24.853 27.7647 24.0589 26.9706 23.0883 26.9706H1.9118C0.941212 26.9706 0.147095 27.7647 0.147095 28.7353Z" fill="white"/>
</svg>
