<svg width="59" height="19" viewBox="0 0 59 19" fill="none" xmlns="http://www.w3.org/2000/svg">
<g clip-path="url(#clip0_156_3122)">
<path d="M53.179 7.18388H46.8746C46.5656 7.18354 46.2695 7.06057 46.0511 6.84198C45.8328 6.62339 45.7101 6.32706 45.7101 6.0181C45.7194 5.70634 45.8498 5.41048 46.0737 5.19331C46.2976 4.97613 46.5972 4.85473 46.9091 4.85487H56.6725L52.0145 0.193022H46.8746C46.1085 0.192512 45.3498 0.343328 44.6422 0.636812C43.9345 0.930296 43.2918 1.36067 42.7509 1.90322C42.21 2.44577 41.7816 3.08981 41.4903 3.79837C41.199 4.50693 41.0505 5.26606 41.0534 6.03216C41.0623 9.25467 43.7377 11.8368 46.9615 11.8368H53.179C53.3351 11.8316 53.4907 11.8579 53.6364 11.914C53.7821 11.9702 53.915 12.0551 54.0273 12.1637C54.1395 12.2723 54.2288 12.4023 54.2897 12.5461C54.3507 12.6899 54.3821 12.8445 54.3821 13.0006C54.3821 13.1568 54.3507 13.3114 54.2897 13.4552C54.2288 13.599 54.1395 13.729 54.0273 13.8376C53.915 13.9462 53.7821 14.0311 53.6364 14.0872C53.4907 14.1434 53.3351 14.1697 53.179 14.1645H33.95L31.621 11.8368H35.2309C36.0027 11.8482 36.769 11.7061 37.4854 11.4186C38.2018 11.1312 38.8538 10.7042 39.4036 10.1624C39.9535 9.62068 40.3901 8.97502 40.6881 8.26299C40.9862 7.55096 41.1396 6.78678 41.1396 6.0149C41.1396 5.24302 40.9862 4.47884 40.6881 3.76681C40.3901 3.05478 39.9535 2.40912 39.4036 1.86737C38.8538 1.32562 38.2018 0.898611 37.4854 0.611167C36.769 0.323723 36.0027 0.181585 35.2309 0.193022H30.0909L25.4342 4.85487H35.2309C35.5397 4.85487 35.8359 4.97756 36.0543 5.19595C36.2727 5.41433 36.3954 5.71053 36.3954 6.01937C36.3954 6.32822 36.2727 6.62442 36.0543 6.8428C35.8359 7.06119 35.5397 7.18388 35.2309 7.18388H23.1052L16.1195 14.1696H6.32152C6.16543 14.1748 6.0099 14.1485 5.86417 14.0924C5.71845 14.0362 5.58551 13.9513 5.47327 13.8427C5.36102 13.7341 5.27177 13.6041 5.21081 13.4603C5.14985 13.3165 5.11844 13.1619 5.11844 13.0058C5.11844 12.8496 5.14985 12.695 5.21081 12.5512C5.27177 12.4074 5.36102 12.2774 5.47327 12.1688C5.58551 12.0602 5.71845 11.9753 5.86417 11.9192C6.0099 11.863 6.16543 11.8367 6.32152 11.8419H15.1544L26.7981 0.193022H20.2112L13.2255 7.18388H6.3228C4.79368 7.20654 3.33486 7.82988 2.26153 8.91923C1.18821 10.0086 0.586548 11.4765 0.586548 13.0058C0.586548 14.535 1.18821 16.0029 2.26153 17.0923C3.33486 18.1816 4.79368 18.805 6.3228 18.8276H18.0496L25.0354 11.8419L32.0211 18.8276H53.179C54.7081 18.805 56.167 18.1816 57.2403 17.0923C58.3136 16.0029 58.9153 14.535 58.9153 13.0058C58.9153 11.4765 58.3136 10.0086 57.2403 8.91923C56.167 7.82988 54.7081 7.20654 53.179 7.18388Z" fill="#FFCA0C"/>
</g>
<defs>
<clipPath id="clip0_156_3122">
<rect width="58.5" height="18.6295" fill="white" transform="translate(0.5 0.198242)"/>
</clipPath>
</defs>
</svg>
