<svg width="1336" height="381" viewBox="0 0 1336 381" fill="none" xmlns="http://www.w3.org/2000/svg">
<path d="M0 274.852C8.39188 250.228 16.3141 226.957 24.2676 203.654C28.6827 190.729 32.816 177.741 37.6069 164.973C40.1119 158.369 40.3311 153.275 33.0039 150.004C31.3698 149.095 29.819 148.043 28.3696 146.859L29.3403 144.595C32.4716 144.406 35.3524 144.061 38.3584 144.061C74.765 144.061 111.172 144.061 147.578 144.061C174.257 144.061 184.246 159.784 172.629 183.685C169.121 190.855 163.61 197.05 158.663 204.22C170.28 216.799 167.337 231.391 160.385 245.668C152.776 261.392 141.034 272.462 122.81 274.789C120.536 274.931 118.257 274.931 115.983 274.789L0 274.852ZM57.7725 243.718C72.5209 243.718 88.741 244.159 104.93 243.435C109.729 242.945 114.185 240.708 117.455 237.146C118.588 235.464 119.359 233.564 119.721 231.566C120.082 229.568 120.025 227.516 119.553 225.542C119.115 223.718 113.729 222.397 110.504 222.114C101.736 221.642 92.9683 222.114 84.2006 222.114H53.2321L57.7725 243.718ZM74.1492 196.767C85.8289 196.767 100.045 197.019 114.23 196.578C117.753 196.467 121.105 195.03 123.624 192.553C126.285 189.408 129.135 184.314 128.258 180.949C127.6 178.307 121.588 175.697 117.768 175.414C107.811 174.628 97.7278 175.162 87.7077 175.162H66.4775L74.1492 196.767Z" fill="#1E1E1E"/>
<path d="M213.492 144.722H379.451C375.599 155.949 371.779 167.081 368.053 178.214C358.408 207.114 348.576 235.983 339.401 265.009C336.99 272.62 333.139 275.387 325.373 275.01C314.664 274.444 303.924 274.852 291.774 274.852L302.734 243.593C282.756 243.593 263.968 243.593 245.181 243.751C243.208 243.751 241.266 246.172 239.325 247.493C239.106 247.493 239.043 248.09 239.012 248.405C236.538 275.639 218.314 277.714 196.927 274.915C193.256 274.705 189.576 274.705 185.905 274.915L208.732 207.9C213.492 194.095 217.938 180.132 223.262 166.546C226.393 158.653 225.923 152.992 217.656 149.219C216.623 148.747 215.966 147.458 213.492 144.722ZM249.752 218.309C269.761 218.309 288.518 218.309 307.274 218.309C308.333 218.3 309.375 218.045 310.32 217.565C311.265 217.085 312.087 216.393 312.723 215.542C317.107 202.963 321.052 189.975 325.467 176.075H252.852C262.966 183.874 258.489 192.365 255.451 200.824C253.51 206.139 251.882 211.674 249.752 218.309Z" fill="#1E1E1E"/>
<path d="M977.717 145.004C975.248 153.454 972.204 161.723 968.604 169.753C967.07 172.709 961.434 175.005 957.614 175.068C929.432 175.508 901.031 175.319 872.755 175.319H862.203L874.979 196.704H933.628C931.535 204.401 928.866 211.928 925.643 219.22C924.171 221.925 918.879 223.875 915.278 223.969C897.086 224.441 878.861 224.158 860.637 224.221C857.506 224.221 854.375 224.504 849.678 224.755L857.255 233.907C856.567 237.051 855.878 239.976 855.063 243.718H944.118C940.642 253.373 937.855 262.209 934.16 270.48C933.125 271.804 931.81 272.88 930.31 273.631C928.81 274.382 927.162 274.788 925.486 274.82C892.086 275.135 858.592 275.135 825.003 274.82C810.756 274.82 803.836 263.405 808.752 248.624C817.864 221.202 826.976 193.779 836.651 166.545C839.501 158.526 840.378 152.425 831.109 148.715C830.138 148.337 829.575 146.922 827.978 144.878L977.717 145.004Z" fill="#1E1E1E"/>
<path d="M538.051 144.783C538.125 145.305 538.125 145.834 538.051 146.356C529.377 175.162 529.377 175.162 499.567 175.162H474.517C474.924 177.174 474.767 178.935 475.425 179.376C486.979 186.483 484.286 195.697 480.404 206.043C472.982 225.793 466.219 245.793 459.706 265.794C457.545 272.524 454.038 275.229 447.024 274.883C436.033 274.442 425.105 274.883 412.799 274.883L447.243 175.508H393.322L401.057 155.601L387.561 146.639L388.375 144.783H538.051Z" fill="#1E1E1E"/>
<path d="M551.578 175.193L559.156 155.79L543.499 145.066H696.933C694.405 153.381 691.394 161.54 687.915 169.501C686.763 171.071 685.284 172.368 683.58 173.303C681.876 174.237 679.989 174.786 678.051 174.91C663.24 175.476 648.367 175.162 633.18 175.162C633.336 177.175 633.18 178.59 633.524 178.873C645.298 186.2 642.918 195.572 638.816 206.39C631.27 226.107 624.631 246.171 618.024 266.14C615.989 272.43 612.764 275.103 606.094 274.883C595.072 274.474 584.175 274.883 571.305 274.883L605.374 175.193H551.578Z" fill="#1E1E1E"/>
<path d="M706.233 144.752H766.636C751.95 176.986 748.662 213.214 726.18 243.309H807.218C803.93 252.744 801.519 261.172 798.012 269.096C797.196 270.559 796.058 271.815 794.685 272.769C793.312 273.723 791.74 274.349 790.089 274.6C753.046 274.946 716.034 274.851 677.738 274.851C682.247 261.423 686.381 248.875 690.702 236.391C698.749 213.056 706.609 189.659 715.189 166.545C718.101 158.715 718.32 153.054 709.866 149.249C708.613 148.746 707.987 147.048 706.233 144.752Z" fill="#1E1E1E"/>
<path d="M1336 1.75906L1139.64 201.012C1162.31 235.164 1184.51 268.593 1207.68 303.437C1184.73 304.318 1163.84 305.387 1142.83 305.639C1139.98 305.639 1136.32 301.959 1134.41 299.098C1120.44 278.342 1106.85 257.366 1092.64 235.667L864.99 380.327L863.581 378.598C871.566 370.327 879.55 361.993 887.598 353.754C947.406 292.556 1007.22 231.37 1067.05 170.193C1069.85 167.081 1073.01 164.305 1076.45 161.922C1161.64 108.713 1246.83 55.5347 1332.02 2.38802C1333.03 1.75907 1334.15 1.31879 1335.15 0.78418L1336 1.75906Z" fill="#EA2128"/>
<path d="M1049.14 174.596L984.167 85.4102C1007.43 85.4102 1028.73 85.4101 1049.92 85.5988C1051.14 85.815 1052.31 86.2708 1053.35 86.94C1054.39 87.6092 1055.29 88.4786 1056 89.4984C1068.68 106.354 1081.05 123.368 1093.57 140.318L1049.14 174.596Z" fill="#EA2128"/>
</svg>
