<svg width="898" height="720" viewBox="0 0 898 720" fill="none" xmlns="http://www.w3.org/2000/svg">
<path d="M551.742 215.034H684.3L692.84 206.462H565.579L551.742 215.034Z" fill="#292929"/>
<path d="M272.532 215.034H402.201C400.21 212.048 398.284 209.159 396.454 206.462H266.818L272.532 215.034Z" fill="#292929"/>
<path d="M520.216 234.746H664.685C667.51 231.888 670.367 229.031 673.192 226.142H533.924L520.216 234.746Z" fill="#292929"/>
<path d="M285.631 234.746H415.363L409.617 226.142H279.916L285.631 234.746Z" fill="#292929"/>
<path d="M298.697 254.458H428.494L422.748 245.854H293.015L298.697 254.458Z" fill="#292929"/>
<path d="M653.769 245.854H502.269L488.465 254.458H645.229L653.769 245.854Z" fill="#292929"/>
<path d="M311.828 274.298H441.657L435.91 265.726H306.113L311.828 274.298Z" fill="#292929"/>
<path d="M634.25 265.566H470.519L456.714 274.137H625.614L634.25 265.566Z" fill="#292929"/>
<path d="M614.698 285.245H319.34L325.055 293.849H606.287C608.984 291.024 611.841 288.167 614.698 285.245Z" fill="#292929"/>
<path d="M595.147 304.958H332.342L338.057 313.562H586.639L595.147 304.958Z" fill="#292929"/>
<path d="M575.628 324.669H345.441L351.155 333.273H567.088L575.628 324.669Z" fill="#292929"/>
<path d="M302.517 412.057H533.667L527.921 403.453H310.961L302.517 412.057Z" fill="#292929"/>
<path d="M283.159 431.769H546.862L541.116 423.165H291.602L283.159 431.769Z" fill="#292929"/>
<path d="M263.8 451.481H559.993C558.067 448.527 556.14 445.67 554.278 442.877H272.243L263.8 451.481Z" fill="#292929"/>
<path d="M244.441 471.161H392.473L406.021 462.589H252.885L244.441 471.161Z" fill="#292929"/>
<path d="M567.409 462.589H437.259L443.005 471.161H573.155L567.409 462.589Z" fill="#292929"/>
<path d="M580.572 482.269H450.422L456.136 490.873H586.318L580.572 482.269Z" fill="#292929"/>
<path d="M225.082 490.873H361.397L374.944 482.269H233.526L225.082 490.873Z" fill="#292929"/>
<path d="M205.595 510.585H330.191L343.739 501.981H214.039L205.595 510.585Z" fill="#292929"/>
<path d="M593.734 501.981H463.552L469.298 510.585H599.449C597.554 507.695 595.628 504.838 593.734 501.981Z" fill="#292929"/>
<path d="M606.897 521.693H476.682C478.609 524.518 480.503 527.407 482.429 530.264H612.612L606.897 521.693Z" fill="#292929"/>
<path d="M186.333 530.264H299.211L312.759 521.693H194.808L186.333 530.264Z" fill="#292929"/>
<path d="M167.07 549.976H268.23L281.778 541.373H175.514L167.07 549.976Z" fill="#292929"/>
<path d="M620.028 541.373H489.846L495.56 549.976H625.775L620.028 541.373Z" fill="#292929"/>
<path d="M147.808 569.656H237.25L250.798 561.052H156.091L147.808 569.656Z" fill="#292929"/>
<path d="M633.19 561.084H502.976C504.934 563.974 506.828 566.863 508.722 569.688H639.001L633.19 561.084Z" fill="#292929"/>
<path d="M646.321 580.796H516.107L521.853 589.368H652.068L646.321 580.796Z" fill="#292929"/>
<path d="M128.288 589.368H206.012L219.56 580.796H136.731L128.288 589.368Z" fill="#292929"/>
<path d="M108.93 609.08H174.936L188.484 600.476H117.373L108.93 609.08Z" fill="#292929"/>
<path d="M89.5707 628.792H143.859L157.407 620.188H98.0141L89.5707 628.792Z" fill="#292929"/>
<path d="M31.4942 687.896L0 720L50.5961 687.896L64.1441 679.292H39.9375L31.4942 687.896Z" fill="#292929"/>
<path d="M50.8529 668.184H81.705L95.2208 659.612H59.2963L50.8529 668.184Z" fill="#292929"/>
<path d="M70.2118 648.472H112.782L126.33 639.9H78.6552L70.2118 648.472Z" fill="#292929"/>
<path d="M850.6 29.1506L836.763 37.7224H860.103L868.611 29.1506L897.504 0L850.6 29.1506Z" fill="#292929"/>
<path d="M805.076 57.4344H840.583L849.091 48.8304H818.785L805.076 57.4344Z" fill="#292929"/>
<path d="M773.421 77.1462H821.032L829.571 68.5424H787.226L773.421 77.1462Z" fill="#292929"/>
<path d="M741.735 96.8261H801.513L810.02 88.2543H755.443L741.735 96.8261Z" fill="#292929"/>
<path d="M710.047 116.538H781.961L790.501 107.934H723.884L710.047 116.538Z" fill="#292929"/>
<path d="M678.393 136.25H762.442L770.982 127.646H692.198L678.393 136.25Z" fill="#292929"/>
<path d="M646.738 155.93H743.051L751.558 147.358H660.543L646.738 155.93Z" fill="#292929"/>
<path d="M615.084 175.642H723.371L731.911 167.038H628.889L615.084 175.642Z" fill="#292929"/>
<path d="M583.397 195.354H703.852L712.359 186.75H597.266L583.397 195.354Z" fill="#292929"/>
<path d="M389.07 195.354L383.324 186.75H253.751L259.498 195.354H389.07Z" fill="#292929"/>
</svg>
