<svg width="177" height="54" viewBox="0 0 177 54" fill="none" xmlns="http://www.w3.org/2000/svg">
<rect x="18.4871" y="0.453125" width="10.96" height="10.96" fill="#E7E7E7"/>
<rect x="39.4471" y="0.453125" width="10.96" height="10.96" fill="#292929"/>
<rect x="60.4071" y="0.453125" width="10.96" height="10.96" fill="#292929"/>
<rect x="81.3671" y="0.453125" width="10.96" height="10.96" fill="#EA2128"/>
<rect x="102.327" y="0.453125" width="10.96" height="10.96" fill="#292929"/>
<rect x="123.287" y="0.453125" width="10.96" height="10.96" fill="#292929"/>
<rect x="144.247" y="0.453125" width="10.96" height="10.96" fill="#292929"/>
<rect x="165.207" y="0.453125" width="10.96" height="10.96" fill="#EA2128"/>
<rect x="18.4871" y="21.4131" width="10.96" height="10.96" fill="#EA2128"/>
<rect x="39.4471" y="21.4131" width="10.96" height="10.96" fill="#292929"/>
<rect x="60.4071" y="21.4131" width="10.96" height="10.96" fill="#292929"/>
<rect x="81.3671" y="21.4131" width="10.96" height="10.96" fill="#EA2128"/>
<rect x="102.327" y="21.4131" width="10.96" height="10.96" fill="#292929"/>
<rect x="123.287" y="21.4131" width="10.96" height="10.96" fill="#EA2128"/>
<rect x="144.247" y="21.4131" width="10.96" height="10.96" fill="#292929"/>
<rect x="165.207" y="21.4131" width="10.96" height="10.96" fill="#292929"/>
<rect x="60.4071" y="42.373" width="10.96" height="10.96" fill="#292929"/>
<rect x="81.3671" y="42.373" width="10.96" height="10.96" fill="#292929"/>
<rect x="102.327" y="42.373" width="10.96" height="10.96" fill="#292929"/>
<rect x="123.287" y="42.373" width="10.96" height="10.96" fill="#292929"/>
<rect x="144.247" y="42.373" width="10.96" height="10.96" fill="#E7E7E7"/>
<rect x="165.207" y="42.373" width="10.96" height="10.96" fill="#292929"/>
</svg>
