<svg width="419" height="364" viewBox="0 0 419 364" fill="none" xmlns="http://www.w3.org/2000/svg">
<g clip-path="url(#clip0_1_2)">
<path d="M397.767 13.6443L391.612 17.4634H402.003L405.788 13.6443L418.648 0.670044L397.767 13.6443Z" fill="#ea2128"/>
<path d="M377.504 26.2359H393.311L397.096 22.41H383.605L377.504 26.2359Z" fill="#ea2128"/>
<path d="M363.415 35.0152H384.605L388.411 31.1826H369.557L363.415 35.0152Z" fill="#ea2128"/>
<path d="M349.307 43.7743H375.92L379.705 39.9552H355.408L349.307 43.7743Z" fill="#ea2128"/>
<path d="M335.198 52.5535H367.214L371.013 48.7209H341.36L335.198 52.5535Z" fill="#ea2128"/>
<path d="M321.11 61.3261H358.522L362.328 57.4935H327.251L321.11 61.3261Z" fill="#ea2128"/>
<path d="M307.015 70.0854H349.891L353.676 66.2729H313.163L307.015 70.0854Z" fill="#ea2128"/>
<path d="M292.926 78.8644H341.132L344.931 75.0319H299.068L292.926 78.8644Z" fill="#ea2128"/>
<path d="M278.818 87.637H332.44L336.232 83.8044H284.993L278.818 87.637Z" fill="#ea2128"/>
<path d="M264.723 96.3963H323.734L327.54 92.5839H270.884L264.723 96.3963Z" fill="#ea2128"/>
<path d="M195.589 92.5839H137.866L140.41 96.403H198.133C197.267 95.074 196.408 93.7853 195.589 92.5839Z" fill="#ea2128"/>
<path d="M189.75 83.8044H132.067L134.624 87.637H192.307L189.75 83.8044Z" fill="#ea2128"/>
<path d="M250.695 105.176H315.009C316.264 103.907 317.539 102.632 318.794 101.343H256.796L250.695 105.176Z" fill="#ea2128"/>
<path d="M201.455 101.343H143.712L146.256 105.176H204.013L201.455 101.343Z" fill="#ea2128"/>
<path d="M207.302 110.115H149.545L152.075 113.948H209.859L207.302 110.115Z" fill="#ea2128"/>
<path d="M236.559 113.948H306.343L310.142 110.115H242.701L236.559 113.948Z" fill="#ea2128"/>
<path d="M213.161 118.969H155.378L157.922 122.781H215.718L213.161 118.969Z" fill="#ea2128"/>
<path d="M222.424 122.707H297.611L301.457 118.895H228.565L222.424 122.707Z" fill="#ea2128"/>
<path d="M163.808 131.487H289.006C290.208 130.232 291.483 128.956 292.752 127.661H161.264L163.808 131.487Z" fill="#ea2128"/>
<path d="M169.6 140.259H280.261L284.046 136.426H167.057L169.6 140.259Z" fill="#ea2128"/>
<path d="M175.427 149.038H271.555L275.361 145.206H172.883L175.427 149.038Z" fill="#ea2128"/>
<path d="M266.656 153.965L262.87 157.798L181.259 157.811L180.608 156.824L178.715 153.965H266.656Z" fill="#ea2128"/>
<path d="M230.361 214.818L232.515 218.067H144.078L147.837 214.235H229.971L230.361 214.818Z" fill="#ea2128"/>
<path d="M235.804 222.993H139.219L135.46 226.826H238.361L235.804 222.993Z" fill="#ea2128"/>
<path d="M241.677 231.766H130.6L126.842 235.599H244.234L241.677 231.766Z" fill="#ea2128"/>
<path d="M247.537 240.545H121.982L118.224 244.378H250.06C249.221 243.062 248.369 241.787 247.537 240.545Z" fill="#ea2128"/>
<path d="M109.605 253.137H175.504L181.538 249.318H113.364L109.605 253.137Z" fill="#ea2128"/>
<path d="M253.383 249.318H195.438L197.995 253.137H255.94L253.383 249.318Z" fill="#ea2128"/>
<path d="M259.242 258.077H201.298L203.841 261.91H261.799L259.242 258.077Z" fill="#ea2128"/>
<path d="M100.987 261.91H161.67L167.698 258.077H104.746L100.987 261.91Z" fill="#ea2128"/>
<path d="M92.3086 270.682H147.776L153.81 266.856H96.0673L92.3086 270.682Z" fill="#ea2128"/>
<path d="M265.102 266.856H207.144L209.708 270.689H267.646C266.8 269.4 265.947 268.132 265.102 266.856Z" fill="#ea2128"/>
<path d="M270.961 275.635H212.99C213.849 276.891 214.695 278.179 215.554 279.448H273.505L270.961 275.635Z" fill="#ea2128"/>
<path d="M83.7374 279.448H133.983L140.017 275.629H87.5096L83.7374 279.448Z" fill="#ea2128"/>
<path d="M75.1595 288.221H120.19L126.224 284.395H78.9183L75.1595 288.221Z" fill="#ea2128"/>
<path d="M276.807 284.395H218.849L221.393 288.221H279.365L276.807 284.395Z" fill="#ea2128"/>
<path d="M66.5817 296.98H106.404L112.431 293.154H70.2733L66.5817 296.98Z" fill="#ea2128"/>
<path d="M282.667 293.167H224.696C225.568 294.456 226.414 295.744 227.253 296.999H285.251L282.667 293.167Z" fill="#ea2128"/>
<path d="M288.513 301.94H230.542L233.099 305.759H291.07L288.513 301.94Z" fill="#ea2128"/>
<path d="M57.8964 305.759H92.4966L98.5239 301.94H61.6551L57.8964 305.759Z" fill="#ea2128"/>
<path d="M49.2782 314.531H78.6632L84.6906 310.705H53.0369L49.2782 314.531Z" fill="#ea2128"/>
<path d="M40.66 323.311H64.8231L70.8572 319.478H44.4187L40.66 323.311Z" fill="#ea2128"/>
<path d="M14.8055 349.622L0.78418 363.911L23.3096 349.622L29.3369 345.789H18.5642L14.8055 349.622Z" fill="#ea2128"/>
<path d="M23.4236 340.843H37.1563L43.1769 337.03H27.1823L23.4236 340.843Z" fill="#ea2128"/>
<path d="M32.0419 332.07H50.9898L57.0238 328.257H35.8006L32.0419 332.07Z" fill="#ea2128"/>
<path d="M373.5 46.5L308.5 113L385 111V46.5H373.5Z" fill="#111111"/>
<path d="M70 292.5L13.5 350H0V292.5H70Z" fill="#111111"/>
</g>
<defs>
<clipPath id="clip0_1_2">
<rect width="419" height="364" fill="white"/>
</clipPath>
</defs>
</svg>
