<svg width="170" height="49" viewBox="0 0 170 49" fill="none" xmlns="http://www.w3.org/2000/svg">
<g clip-path="url(#clip0_156_3773)">
<path d="M0 35.1521C1.06561 32.0388 2.07157 29.0964 3.08151 26.1501C3.64215 24.5159 4.167 22.8738 4.77535 21.2594C5.09344 20.4245 5.12127 19.7803 4.19086 19.3668C3.98336 19.2519 3.78644 19.1188 3.60239 18.9692L3.72565 18.6829C4.12326 18.659 4.48907 18.6153 4.87078 18.6153C9.4937 18.6153 14.1166 18.6153 18.7396 18.6153C22.1272 18.6153 23.3956 20.6034 21.9205 23.6252C21.4752 24.5318 20.7753 25.3151 20.1471 26.2217C21.6223 27.8121 21.2485 29.6571 20.3658 31.4622C19.3996 33.4503 17.9086 34.8499 15.5944 35.1441C15.3058 35.162 15.0163 35.162 14.7276 35.1441L0 35.1521ZM7.33599 31.2157C9.20875 31.2157 11.2684 31.2714 13.3241 31.1799C13.9335 31.1179 14.4992 30.835 14.9145 30.3847C15.0583 30.172 15.1563 29.9317 15.2022 29.6791C15.2481 29.4265 15.2408 29.1671 15.1809 28.9175C15.1253 28.6869 14.4414 28.5199 14.0318 28.4841C12.9185 28.4245 11.8052 28.4841 10.6918 28.4841H6.75944L7.33599 31.2157ZM9.41551 25.2793C10.8986 25.2793 12.7038 25.3111 14.505 25.2555C14.9523 25.2413 15.3781 25.0597 15.6978 24.7465C16.0358 24.3489 16.3976 23.7048 16.2863 23.2793C16.2028 22.9453 15.4394 22.6153 14.9543 22.5795C13.6899 22.4801 12.4095 22.5477 11.1372 22.5477H8.44135L9.41551 25.2793Z" fill="#E7E7E7"/>
<path d="M27.1093 18.6988H48.1829C47.6938 20.1183 47.2087 21.5258 46.7356 22.9334C45.5109 26.5875 44.2624 30.2376 43.0974 33.9076C42.7912 34.8698 42.3022 35.2197 41.3161 35.172C39.9563 35.1004 38.5924 35.1521 37.0497 35.1521L38.4413 31.1998C35.9046 31.1998 33.5189 31.1998 31.1332 31.2197C30.8827 31.2197 30.6362 31.5258 30.3897 31.6928C30.3618 31.6928 30.3539 31.7684 30.3499 31.8081C30.0358 35.2515 27.7217 35.5139 25.006 35.16C24.5398 35.1335 24.0725 35.1335 23.6064 35.16L26.505 26.6869C27.1093 24.9414 27.674 23.1759 28.3499 21.4582C28.7475 20.4602 28.6879 19.7445 27.6382 19.2674C27.507 19.2078 27.4235 19.0447 27.1093 18.6988ZM31.7137 28.003C34.2545 28.003 36.6362 28.003 39.0179 28.003C39.1523 28.0018 39.2847 27.9695 39.4047 27.9089C39.5247 27.8482 39.6291 27.7607 39.7097 27.6531C40.2664 26.0626 40.7674 24.4205 41.328 22.663H32.1074C33.3916 23.6491 32.8231 24.7227 32.4374 25.7922C32.1909 26.4642 31.9841 27.164 31.7137 28.003Z" fill="#E7E7E7"/>
<path d="M124.151 18.7346C123.838 19.803 123.451 20.8485 122.994 21.8638C122.799 22.2376 122.083 22.5278 121.598 22.5358C118.02 22.5915 114.414 22.5676 110.823 22.5676H109.483L111.105 25.2714H118.553C118.287 26.2445 117.948 27.1962 117.539 28.1183C117.352 28.4602 116.68 28.7068 116.223 28.7187C113.913 28.7783 111.598 28.7425 109.284 28.7505C108.887 28.7505 108.489 28.7863 107.893 28.8181L108.855 29.9751C108.767 30.3728 108.68 30.7425 108.577 31.2157H119.885C119.443 32.4364 119.089 33.5537 118.62 34.5994C118.489 34.7668 118.322 34.9029 118.131 34.9978C117.941 35.0927 117.732 35.144 117.519 35.1481C113.278 35.1879 109.025 35.1879 104.759 35.1481C102.95 35.1481 102.072 33.7048 102.696 31.836C103.853 28.3688 105.01 24.9016 106.239 21.4583C106.6 20.4443 106.712 19.673 105.535 19.2038C105.412 19.1561 105.34 18.9771 105.137 18.7187L124.151 18.7346Z" fill="#E7E7E7"/>
<path d="M68.3221 18.7068C68.3315 18.7727 68.3315 18.8396 68.3221 18.9056C67.2207 22.5477 67.2207 22.5477 63.4354 22.5477H60.2545C60.3062 22.8022 60.2863 23.0248 60.3698 23.0805C61.837 23.9791 61.495 25.1441 61.002 26.4523C60.0597 28.9493 59.2008 31.4781 58.3738 34.007C58.0994 34.8579 57.6541 35.1998 56.7634 35.1561C55.3678 35.1004 53.9801 35.1561 52.4175 35.1561L56.7913 22.5914H49.9443L50.9265 20.0746L49.2127 18.9413L49.3161 18.7068H68.3221Z" fill="#E7E7E7"/>
<path d="M70.0398 22.5517L71.002 20.0984L69.0139 18.7425H88.497C88.176 19.7939 87.7937 20.8255 87.3519 21.832C87.2056 22.0305 87.0177 22.1945 86.8014 22.3127C86.585 22.4308 86.3454 22.5002 86.0994 22.5159C84.2187 22.5875 82.33 22.5477 80.4016 22.5477C80.4215 22.8022 80.4016 22.9811 80.4453 23.0169C81.9404 23.9433 81.6382 25.1282 81.1173 26.496C80.159 28.9891 79.3161 31.5258 78.4771 34.0507C78.2187 34.8459 77.8092 35.1839 76.9622 35.1561C75.5626 35.1044 74.1789 35.1561 72.5447 35.1561L76.8708 22.5517H70.0398Z" fill="#E7E7E7"/>
<path d="M89.6779 18.7028H97.3479C95.4831 22.7783 95.0656 27.3588 92.2107 31.164H102.501C102.083 32.3569 101.777 33.4225 101.332 34.4245C101.228 34.6094 101.084 34.7682 100.91 34.8888C100.735 35.0094 100.536 35.0886 100.326 35.1203C95.6223 35.164 90.9225 35.1521 86.0596 35.1521C86.6322 33.4543 87.1571 31.8678 87.7058 30.2893C88.7276 27.339 89.7256 24.3807 90.8151 21.4582C91.1849 20.4682 91.2127 19.7525 90.1392 19.2714C89.9801 19.2078 89.9006 18.993 89.6779 18.7028Z" fill="#E7E7E7"/>
<path d="M169.646 0.623261L144.712 25.8161C147.59 30.1342 150.41 34.3608 153.352 38.7664C150.437 38.8777 147.785 39.0129 145.117 39.0447C144.755 39.0447 144.29 38.5795 144.048 38.2177C142.274 35.5934 140.549 32.9414 138.744 30.1978L109.837 48.4881L109.658 48.2694C110.672 47.2237 111.686 46.17 112.708 45.1282C120.302 37.3907 127.898 29.6544 135.495 21.9195C135.851 21.5259 136.251 21.175 136.688 20.8738C147.506 14.1461 158.323 7.42247 169.141 0.702784C169.268 0.623261 169.412 0.567594 169.539 0.5L169.646 0.623261Z" fill="#EA2128"/>
<path d="M133.221 22.4761L124.97 11.1998C127.924 11.1998 130.628 11.1998 133.32 11.2237C133.475 11.251 133.623 11.3086 133.755 11.3932C133.887 11.4778 134.002 11.5878 134.091 11.7167C135.702 13.8479 137.272 15.999 138.863 18.1421L133.221 22.4761Z" fill="#EA2128"/>
</g>
<defs>
<clipPath id="clip0_156_3773">
<rect width="169.65" height="48" fill="white" transform="translate(0 0.5)"/>
</clipPath>
</defs>
</svg>
