<svg width="48" height="49" viewBox="0 0 48 49" fill="none" xmlns="http://www.w3.org/2000/svg">
<g clip-path="url(#clip0_156_3641)">
<g clip-path="url(#clip1_156_3641)">
<path d="M47.212 24.1961H44.4139C44.2137 19.0565 42.0823 14.1815 38.4453 10.5445C34.8083 6.90746 29.9333 4.77604 24.7937 4.5758V1.83491C24.7703 1.6408 24.6767 1.46197 24.5305 1.33224C24.3842 1.2025 24.1955 1.13086 23.9999 1.13086C23.8044 1.13086 23.6158 1.2025 23.4695 1.33224C23.3232 1.46197 23.2296 1.6408 23.2063 1.83491V4.63293C18.0667 4.83316 13.1916 6.96455 9.55463 10.6016C5.91761 14.2386 3.78619 19.1136 3.58596 24.2532H0.78801C0.593902 24.2765 0.415034 24.3702 0.2853 24.5164C0.155566 24.6627 0.0839233 24.8514 0.0839233 25.0469C0.0839233 25.2424 0.155566 25.4311 0.2853 25.5774C0.415034 25.7237 0.593902 25.8173 0.78801 25.8406H3.58596C3.79961 30.9645 5.93243 35.8207 9.56083 39.4448C13.1892 43.069 18.0479 45.1961 23.172 45.4038V48.2018C23.1953 48.3959 23.2889 48.5747 23.4352 48.7045C23.5815 48.8342 23.7702 48.9059 23.9657 48.9059C24.1612 48.9059 24.3499 48.8342 24.4962 48.7045C24.6424 48.5747 24.7361 48.3959 24.7594 48.2018V45.4038C29.8994 45.2125 34.7781 43.0897 38.4215 39.459C42.0649 35.8283 44.2047 30.9571 44.4139 25.8178H47.212C47.4061 25.7945 47.5849 25.7008 47.7147 25.5545C47.8444 25.4083 47.916 25.2196 47.916 25.0241C47.916 24.8286 47.8444 24.6398 47.7147 24.4936C47.5849 24.3473 47.4061 24.2537 47.212 24.2303V24.1961ZM23.2291 6.16326V10.4573C19.6627 10.6666 16.2972 12.1776 13.7711 14.7038C11.2449 17.2299 9.73386 20.5954 9.52459 24.1618H5.21914C5.4353 19.4657 7.39478 15.019 10.7147 11.6906C14.0347 8.36217 18.4764 6.39135 23.172 6.16326H23.2291ZM23.2291 43.8506C18.5116 43.6387 14.0441 41.6695 10.705 38.3304C7.36592 34.9913 5.3968 30.5238 5.18484 25.8064H9.4675C9.67678 29.3727 11.1878 32.7383 13.714 35.2644C16.2401 37.7906 19.6056 39.3016 23.172 39.5108L23.2291 43.8506ZM24.0285 35.765C23.8165 35.765 23.6131 35.8492 23.4632 35.9991C23.3133 36.149 23.2291 36.3524 23.2291 36.5644V37.9577C20.0737 37.752 17.1002 36.4079 14.8611 34.1751C12.622 31.9423 11.2696 28.9726 11.055 25.8178H12.4596C12.6537 25.7945 12.8326 25.7008 12.9624 25.5545C13.0921 25.4083 13.1637 25.2196 13.1637 25.0241C13.1637 24.8286 13.0921 24.6398 12.9624 24.4936C12.8326 24.3473 12.6537 24.2537 12.4596 24.2303H11.055C11.2574 21.0765 12.5971 18.1033 14.8254 15.8624C17.0538 13.6214 20.0194 12.265 23.172 12.0448V13.4495C23.1953 13.6436 23.2889 13.8224 23.4352 13.9522C23.5815 14.0819 23.7702 14.1535 23.9657 14.1535C24.1612 14.1535 24.3499 14.0819 24.4962 13.9522C24.6424 13.8224 24.7361 13.6436 24.7594 13.4495V12.0448C27.9126 12.2561 30.8821 13.6042 33.1167 15.8388C35.3513 18.0735 36.6994 21.0429 36.9108 24.1961H35.506C35.3119 24.2194 35.1331 24.313 35.0034 24.4593C34.8737 24.6056 34.802 24.7943 34.802 24.9898C34.802 25.1853 34.8737 25.374 35.0034 25.5203C35.1331 25.6665 35.3119 25.7602 35.506 25.7835H36.9108C36.6994 28.9367 35.3513 31.9061 33.1167 34.1408C30.8821 36.3754 27.9126 37.7235 24.7594 37.9348V36.5416C24.7626 36.3364 24.6857 36.1381 24.5449 35.9888C24.4041 35.8395 24.2107 35.751 24.0057 35.7421L24.0285 35.765ZM24.8165 43.8506V39.5223C28.3829 39.313 31.7484 37.8019 34.2746 35.2758C36.8007 32.7497 38.3118 29.3842 38.521 25.8178H42.8266C42.6065 30.5273 40.6353 34.9848 37.2994 38.3165C33.9635 41.6482 29.5035 43.6137 24.7937 43.8278L24.8165 43.8506ZM38.521 24.2189C38.3118 20.6526 36.8007 17.2871 34.2746 14.7609C31.7484 12.2348 28.3829 10.7237 24.8165 10.5144V6.22035C29.5338 6.42695 34.0027 8.39283 37.3426 11.7306C40.6825 15.0684 42.6512 19.536 42.8608 24.2532L38.521 24.2189Z" fill="#EA2128"/>
<path d="M1.39325 14.0434C1.60225 14.0434 1.80269 13.9604 1.95047 13.8126C2.09825 13.6649 2.18127 13.4644 2.18127 13.2554V4.32464H11.1006C11.3096 4.32464 11.51 4.24163 11.6578 4.09385C11.8056 3.94607 11.8886 3.74562 11.8886 3.53663C11.8886 3.32764 11.8056 3.12723 11.6578 2.97944C11.51 2.83166 11.3096 2.74862 11.1006 2.74862H1.39325C1.28881 2.7471 1.18515 2.7664 1.08823 2.80532C0.991299 2.84425 0.903033 2.90204 0.828646 2.97537C0.754259 3.04869 0.695186 3.13608 0.654872 3.23244C0.614559 3.3288 0.5938 3.43218 0.593811 3.53663V13.2554C0.5938 13.3599 0.614559 13.4633 0.654872 13.5596C0.695186 13.656 0.754259 13.7434 0.828646 13.8167C0.903033 13.89 0.991299 13.9478 1.08823 13.9868C1.18515 14.0257 1.28881 14.0449 1.39325 14.0434Z" fill="#E7E7E7"/>
<path d="M37.0249 4.32458H45.8187V13.1297C45.842 13.3238 45.9356 13.5026 46.0819 13.6324C46.2281 13.7621 46.4169 13.8338 46.6124 13.8338C46.8079 13.8338 46.9966 13.7621 47.1428 13.6324C47.2891 13.5026 47.3827 13.3238 47.406 13.1297V3.52517C47.406 3.31617 47.323 3.11573 47.1753 2.96795C47.0275 2.82017 46.8271 2.73716 46.6181 2.73716H37.0249C36.9127 2.72367 36.7989 2.73413 36.691 2.76786C36.5831 2.80159 36.4836 2.85781 36.399 2.93282C36.3145 3.00782 36.2468 3.0999 36.2005 3.20299C36.1541 3.30608 36.1301 3.41782 36.1301 3.53085C36.1301 3.64388 36.1541 3.75565 36.2005 3.85874C36.2468 3.96183 36.3145 4.05391 36.399 4.12891C36.4836 4.20392 36.5831 4.26014 36.691 4.29387C36.7989 4.3276 36.9127 4.33806 37.0249 4.32458Z" fill="#E7E7E7"/>
<path d="M46.6181 35.9363C46.4061 35.9363 46.2028 36.0205 46.0528 36.1705C45.9029 36.3204 45.8187 36.5237 45.8187 36.7357V45.6551H36.8765C36.7643 45.6416 36.6505 45.652 36.5426 45.6858C36.4347 45.7195 36.3352 45.7757 36.2506 45.8507C36.166 45.9257 36.0984 46.0178 36.052 46.1209C36.0057 46.224 35.9817 46.3358 35.9817 46.4488C35.9817 46.5618 36.0057 46.6736 36.052 46.7766C36.0984 46.8797 36.166 46.9718 36.2506 47.0469C36.3352 47.1219 36.4347 47.1781 36.5426 47.2118C36.6505 47.2455 36.7643 47.256 36.8765 47.2425H46.5953C46.6997 47.2425 46.8031 47.2218 46.8995 47.1815C46.9958 47.1411 47.0832 47.0821 47.1565 47.0077C47.2299 46.9333 47.2877 46.8451 47.3266 46.7481C47.3655 46.6512 47.3848 46.5475 47.3833 46.4431V36.7357C47.3864 36.5287 47.3078 36.3287 47.1646 36.1791C47.0214 36.0295 46.8251 35.9423 46.6181 35.9363Z" fill="#E7E7E7"/>
<path d="M10.975 45.6665H2.18123V36.8614C2.19472 36.7492 2.18429 36.6354 2.15056 36.5275C2.11683 36.4196 2.06058 36.3201 1.98557 36.2355C1.91056 36.1509 1.81849 36.0832 1.7154 36.0369C1.61231 35.9905 1.50054 35.9666 1.38751 35.9666C1.27447 35.9666 1.1627 35.9905 1.05961 36.0369C0.956525 36.0832 0.864446 36.1509 0.789439 36.2355C0.714432 36.3201 0.658245 36.4196 0.624518 36.5275C0.59079 36.6354 0.580292 36.7492 0.593778 36.8614V46.4545C0.593767 46.559 0.614526 46.6624 0.654839 46.7588C0.695153 46.8551 0.754226 46.9425 0.828613 47.0158C0.903 47.0891 0.991265 47.1469 1.08819 47.1859C1.18512 47.2248 1.28878 47.2441 1.39322 47.2425H10.975C11.0784 47.2425 11.1809 47.2222 11.2765 47.1826C11.3721 47.143 11.459 47.0849 11.5322 47.0117C11.6054 46.9385 11.6634 46.8517 11.703 46.7561C11.7426 46.6605 11.763 46.558 11.763 46.4545C11.763 46.351 11.7426 46.2486 11.703 46.153C11.6634 46.0573 11.6054 45.9705 11.5322 45.8973C11.459 45.8241 11.3721 45.7661 11.2765 45.7265C11.1809 45.6869 11.0784 45.6665 10.975 45.6665Z" fill="#E7E7E7"/>
<path d="M30.2278 25.0025C30.2315 23.768 29.8685 22.5603 29.185 21.5323C28.5015 20.5044 27.5281 19.7026 26.3883 19.2285C25.2485 18.7544 23.9936 18.6294 22.7827 18.8694C21.5718 19.1093 20.4594 19.7033 19.5865 20.5762C18.7136 21.4491 18.1196 22.5615 17.8797 23.7725C17.6398 24.9834 17.7647 26.2382 18.2388 27.378C18.7129 28.5178 19.5148 29.4911 20.5427 30.1747C21.5706 30.8582 22.7783 31.2212 24.0127 31.2175C25.6581 31.2078 27.2333 30.5499 28.3968 29.3864C29.5602 28.223 30.2181 26.6478 30.2278 25.0025ZM24.0127 28.7019C23.281 28.7019 22.5658 28.4849 21.9574 28.0784C21.3491 27.6719 20.875 27.0942 20.595 26.4182C20.315 25.7422 20.2417 24.9984 20.3844 24.2808C20.5272 23.5632 20.8795 22.904 21.3969 22.3866C21.9143 21.8692 22.5735 21.5169 23.2911 21.3741C24.0087 21.2314 24.7525 21.3047 25.4285 21.5847C26.1044 21.8647 26.6822 22.3388 27.0887 22.9472C27.4952 23.5555 27.7121 24.2708 27.7121 25.0025C27.6976 25.974 27.3015 26.9007 26.6093 27.5826C25.917 28.2644 24.9843 28.6465 24.0127 28.6464V28.7019Z" fill="#E7E7E7"/>
</g>
</g>
<defs>
<clipPath id="clip0_156_3641">
<rect width="48" height="48" fill="white" transform="translate(0 0.989746)"/>
</clipPath>
<clipPath id="clip1_156_3641">
<rect width="48" height="48" fill="white" transform="translate(0 0.989746)"/>
</clipPath>
</defs>
</svg>
