<svg width="53" height="159" viewBox="0 0 53 159" fill="none" xmlns="http://www.w3.org/2000/svg">
<rect y="0.591797" width="10.96" height="10.96" fill="#E7E7E7"/>
<rect x="20.96" y="0.591797" width="10.96" height="10.96" fill="#292929"/>
<rect x="41.92" y="0.591797" width="10.96" height="10.96" fill="#292929"/>
<rect y="21.5518" width="10.96" height="10.96" fill="#EA2128"/>
<rect x="20.96" y="21.5518" width="10.96" height="10.96" fill="#292929"/>
<rect x="41.92" y="21.5518" width="10.96" height="10.96" fill="#292929"/>
<rect y="42.5117" width="10.96" height="10.96" fill="#292929"/>
<rect x="20.96" y="42.5117" width="10.96" height="10.96" fill="#EA2128"/>
<rect x="41.92" y="42.5117" width="10.96" height="10.96" fill="#EA2128"/>
<rect y="63.4717" width="10.96" height="10.96" fill="#292929"/>
<rect x="20.96" y="63.4717" width="10.96" height="10.96" fill="#292929"/>
<rect x="41.92" y="63.4717" width="10.96" height="10.96" fill="#EA2128"/>
<rect y="84.4316" width="10.96" height="10.96" fill="#292929"/>
<rect x="20.96" y="84.4316" width="10.96" height="10.96" fill="#EA2128"/>
<rect x="41.92" y="84.4316" width="10.96" height="10.96" fill="#292929"/>
<rect y="105.392" width="10.96" height="10.96" fill="#292929"/>
<rect x="20.96" y="105.392" width="10.96" height="10.96" fill="#292929"/>
<rect x="41.92" y="105.392" width="10.96" height="10.96" fill="#292929"/>
<rect y="126.352" width="10.96" height="10.96" fill="#292929"/>
<rect x="20.96" y="126.352" width="10.96" height="10.96" fill="#292929"/>
<rect x="41.92" y="126.352" width="10.96" height="10.96" fill="#E7E7E7"/>
<rect y="147.312" width="10.96" height="10.96" fill="#292929"/>
</svg>
