<svg width="48" height="49" viewBox="0 0 48 49" fill="none" xmlns="http://www.w3.org/2000/svg">
<g clip-path="url(#clip0_156_3658)">
<g clip-path="url(#clip1_156_3658)">
<path d="M47.9774 9.81025C47.9432 9.68264 47.876 9.56628 47.7826 9.47286C47.6892 9.37943 47.5728 9.31224 47.4452 9.278L41.3294 7.64109L39.6924 1.52526C39.6582 1.39818 39.5914 1.28227 39.4984 1.18909C39.4055 1.09591 39.2898 1.02872 39.1629 0.994178C39.0359 0.959639 38.902 0.958974 38.7747 0.992247C38.6474 1.02552 38.531 1.09157 38.4371 1.18382L32.0803 7.55071C31.9882 7.64427 31.9214 7.75973 31.8863 7.88623C31.8511 8.01273 31.8488 8.1461 31.8795 8.27376L33.5264 14.3896L19.8185 28.0874C19.6775 28.2286 19.5983 28.4201 19.5983 28.6197C19.5983 28.8193 19.6775 29.0107 19.8185 29.1519C19.9597 29.293 20.1512 29.3722 20.3508 29.3722C20.5504 29.3722 20.7418 29.293 20.883 29.1519L34.5809 15.444L40.6967 17.091H40.8875C41.0872 17.0908 41.2787 17.0114 41.4198 16.8701L47.7866 10.5132C47.8761 10.4223 47.9406 10.3098 47.9741 10.1867C48.0075 10.0636 48.0086 9.93395 47.9774 9.81025ZM40.6666 15.5244L34.9726 13.9979L33.4461 8.30389L38.5777 3.16218L39.9938 8.44447C40.028 8.57207 40.0952 8.68844 40.1886 8.78186C40.282 8.87528 40.3984 8.94247 40.526 8.97671L45.8083 10.3827L40.6666 15.5244Z" fill="#EA2128"/>
<path d="M37.9551 18.4371C40.4339 22.703 41.2772 27.7246 40.3279 32.5662C39.3787 37.4078 36.7018 41.7392 32.7958 44.7534C28.8898 47.7676 24.0212 49.259 19.0971 48.9497C14.173 48.6404 9.52933 46.5515 6.03122 43.0722C2.53311 39.5929 0.41916 34.9605 0.0832773 30.0382C-0.252606 25.1159 1.21249 20.2393 4.20555 16.3171C7.19861 12.3949 11.5155 9.69456 16.3519 8.71923C21.1883 7.7439 26.2144 8.56008 30.4936 11.0157C30.6593 11.1161 30.7799 11.2765 30.8304 11.4635C30.8809 11.6506 30.8574 11.8498 30.7648 12.02C30.6661 12.1876 30.5057 12.3099 30.318 12.3606C30.1302 12.4112 29.9301 12.3863 29.7605 12.2911C25.8107 10.0103 21.1665 9.24322 16.6931 10.1328C12.2196 11.0223 8.22217 13.5078 5.44546 17.1262C2.66875 20.7446 1.30218 25.2491 1.6004 29.8003C1.89861 34.3516 3.84126 38.6392 7.06638 41.8643C10.2915 45.0895 14.5791 47.0321 19.1304 47.3303C23.6817 47.6285 28.1861 46.262 31.8045 43.4853C35.4229 40.7085 37.9084 36.7111 38.7979 32.2377C39.6875 27.7642 38.9204 23.12 36.6396 19.1702C36.5628 19.0003 36.5518 18.8079 36.6086 18.6304C36.6655 18.4528 36.7861 18.3026 36.9473 18.2089C37.1085 18.1151 37.2988 18.0845 37.4812 18.123C37.6637 18.1614 37.8254 18.2662 37.935 18.417L37.9551 18.4371Z" fill="#FFF0F0"/>
<path d="M20.3508 18.1155C21.8966 18.1132 23.4235 18.4563 24.8197 19.1198C24.91 19.1627 25.0079 19.1873 25.1077 19.1923C25.2076 19.1974 25.3075 19.1827 25.4017 19.1491C25.4959 19.1155 25.5825 19.0637 25.6567 18.9967C25.7308 18.9296 25.7911 18.8486 25.8339 18.7583C25.8768 18.6679 25.9014 18.57 25.9065 18.4702C25.9115 18.3703 25.8968 18.2704 25.8633 18.1763C25.8297 18.0821 25.7779 17.9954 25.7108 17.9212C25.6438 17.8471 25.5627 17.7868 25.4724 17.744C23.8773 16.9914 22.1346 16.6037 20.3709 16.6092C17.9995 16.6191 15.6843 17.3314 13.7174 18.656C11.7505 19.9807 10.2201 21.8584 9.31953 24.0521C8.41893 26.2458 8.18843 28.6571 8.65713 30.9817C9.12583 33.3063 10.2727 35.4399 11.953 37.1132C13.6333 38.7865 15.7718 39.9245 18.0983 40.3835C20.4248 40.8425 22.8351 40.6019 25.0251 39.6922C27.215 38.7824 29.0863 37.2442 30.4027 35.2718C31.7192 33.2994 32.4217 30.9813 32.4217 28.6099C32.4272 26.8462 32.0395 25.1034 31.287 23.5083C31.2454 23.4193 31.1868 23.3394 31.1143 23.273C31.0419 23.2067 30.9571 23.1552 30.8647 23.1216C30.7724 23.0881 30.6744 23.073 30.5762 23.0773C30.4781 23.0816 30.3818 23.1053 30.2928 23.1468C30.2037 23.1884 30.1238 23.247 30.0574 23.3195C29.9911 23.3919 29.9397 23.4767 29.9061 23.569C29.8725 23.6614 29.8575 23.7594 29.8618 23.8575C29.8661 23.9557 29.8897 24.052 29.9312 24.141C30.9011 26.1985 31.1769 28.5153 30.7172 30.743C30.2574 32.9707 29.087 34.989 27.3818 36.4944C25.6767 37.9999 23.5289 38.9112 21.2614 39.0913C18.9938 39.2714 16.7291 38.7106 14.8077 37.4932C12.8862 36.2758 11.4118 34.4676 10.6062 32.3404C9.80054 30.2132 9.70714 27.882 10.34 25.6971C10.973 23.5123 12.298 21.5919 14.1159 20.2247C15.9338 18.8575 18.1464 18.1174 20.4211 18.1155H20.3508Z" fill="#FFF0F0"/>
</g>
</g>
<defs>
<clipPath id="clip0_156_3658">
<rect y="0.989746" width="48" height="48" rx="10" fill="white"/>
</clipPath>
<clipPath id="clip1_156_3658">
<rect width="48" height="48" fill="white" transform="translate(0 0.989746)"/>
</clipPath>
</defs>
</svg>
