<svg width="781" height="781" viewBox="0 0 781 781" fill="none" xmlns="http://www.w3.org/2000/svg">
<path d="M215.37 452.3L126.965 481.043C164.182 588.784 265.531 666.557 385.321 668.752V575.787C347.852 574.744 311.573 562.394 281.245 540.357C250.916 518.32 227.953 487.625 215.37 452.3Z" fill="url(#paint0_linear_156_3221)"/>
<path d="M328.174 214.741C313.051 220.146 298.691 227.485 285.45 236.576L230.832 161.368L230.67 161.16L217.968 143.692L205.243 126.259L192.541 108.826L179.839 91.3927C201.211 76.2935 224.145 63.539 248.245 53.3496C256.297 49.9454 264.426 46.8415 272.632 44.0381L279.284 64.5442L286.073 85.0271L292.736 105.533L299.399 126.028L324.629 203.778L328.174 214.741Z" fill="url(#paint1_linear_156_3221)"/>
<path d="M385.379 67.6987V204.021C369.341 204.441 353.426 206.95 338.036 211.484L309.168 122.759L302.505 102.357L295.854 81.8624C324.873 72.9181 355.017 68.1491 385.379 67.6987Z" fill="url(#paint2_linear_156_3221)"/>
<path d="M277.113 242.618C248.823 264.416 227.411 293.909 215.439 327.565C214.285 330.8 213.234 334.069 212.252 337.373C207.717 352.772 205.194 368.693 204.747 384.74H89.968C91.2493 306.79 122.812 232.402 177.969 177.334C187.88 167.404 198.472 158.178 209.666 149.723L222.368 167.179L222.529 167.398L277.113 242.618Z" fill="url(#paint3_linear_156_3221)"/>
<path d="M601.068 688.703C579.722 703.781 556.815 716.516 532.744 726.688C524.707 730.1 516.578 733.204 508.356 736L501.693 715.505L495.077 695.011L488.426 674.505L481.763 654.022L481.625 653.594L452.849 565.158C467.949 559.761 482.287 552.429 495.504 543.347L550.134 618.566L550.399 618.936L563.101 636.392L575.803 653.837L588.505 671.27L601.068 688.703Z" fill="url(#paint4_linear_156_3221)"/>
<path d="M485.181 698.223C456.165 707.143 426.03 711.896 395.679 712.34V575.787C411.717 575.368 427.632 572.86 443.022 568.324L471.752 656.772L471.89 657.211L485.181 698.223Z" fill="url(#paint5_linear_156_3221)"/>
<path d="M212.172 442.468L179.066 453.235L123.755 471.211L123.432 471.315L102.936 477.981L82.4856 484.635L62.0586 491.301C52.4635 460.123 47.3736 427.733 46.9434 395.113H204.747C205.155 411.154 207.651 427.073 212.172 442.468Z" fill="url(#paint6_linear_156_3221)"/>
<path d="M734.264 390.019C734.314 424.358 729.199 458.509 719.092 491.325L698.607 484.67L678.122 478.016L657.626 471.338L657.245 471.223L568.828 442.468C573.347 427.068 575.846 411.146 576.265 395.102C576.311 393.377 576.334 391.655 576.334 389.938C576.334 388.205 576.334 386.472 576.265 384.762C575.842 368.719 573.342 352.797 568.828 337.396L657.245 308.641L657.591 308.526L678.076 301.872L698.572 295.287L719.092 288.586C729.211 321.443 734.326 355.637 734.264 390.019Z" fill="url(#paint7_linear_156_3221)"/>
<path d="M674.889 292.074L654.428 298.752L654.046 298.867L565.618 327.634C553.042 292.304 530.083 261.603 499.756 239.559C469.429 217.516 433.15 205.16 395.679 204.112V89.2896C453.902 90.3058 510.579 108.201 558.838 140.806C607.096 173.411 644.863 219.324 667.557 272.978C670.22 279.262 672.664 285.628 674.889 292.074Z" fill="url(#paint8_linear_156_3221)"/>
<path d="M674.924 487.858C672.699 494.343 670.243 500.755 667.557 507.093C646.857 555.887 613.702 598.38 571.415 630.314L558.713 612.858L558.436 612.477L503.806 537.257C532.125 515.449 553.577 485.954 565.607 452.287L653.954 481.03L654.428 481.18L674.924 487.858Z" fill="url(#paint9_linear_156_3221)"/>
<path d="M179.179 292.747V294.139H171.131V293.051L175.691 288.651C176.246 288.117 176.619 287.659 176.811 287.275C177.003 286.88 177.099 286.485 177.099 286.091C177.099 285.504 176.891 285.051 176.475 284.731C176.07 284.4 175.483 284.235 174.715 284.235C173.478 284.235 172.523 284.64 171.851 285.451L170.763 284.507C171.201 283.973 171.771 283.557 172.475 283.259C173.19 282.96 173.985 282.811 174.859 282.811C176.033 282.811 176.966 283.093 177.659 283.659C178.353 284.213 178.699 284.971 178.699 285.931C178.699 286.528 178.571 287.093 178.315 287.627C178.059 288.16 177.574 288.768 176.859 289.451L173.435 292.747H179.179ZM185.344 294.267C184.458 294.267 183.669 294.043 182.976 293.595C182.293 293.136 181.754 292.475 181.36 291.611C180.965 290.747 180.768 289.723 180.768 288.539C180.768 287.355 180.965 286.331 181.36 285.467C181.754 284.603 182.293 283.947 182.976 283.499C183.669 283.04 184.458 282.811 185.344 282.811C186.218 282.811 186.997 283.04 187.68 283.499C188.373 283.947 188.917 284.603 189.312 285.467C189.706 286.331 189.904 287.355 189.904 288.539C189.904 289.723 189.706 290.747 189.312 291.611C188.917 292.475 188.373 293.136 187.68 293.595C186.997 294.043 186.218 294.267 185.344 294.267ZM185.344 292.843C186.24 292.843 186.954 292.475 187.488 291.739C188.032 291.003 188.304 289.936 188.304 288.539C188.304 287.141 188.032 286.075 187.488 285.339C186.954 284.603 186.24 284.235 185.344 284.235C184.437 284.235 183.712 284.603 183.168 285.339C182.634 286.075 182.368 287.141 182.368 288.539C182.368 289.936 182.634 291.003 183.168 291.739C183.712 292.475 184.437 292.843 185.344 292.843ZM194.192 288.955C193.413 288.955 192.784 288.672 192.304 288.107C191.824 287.541 191.584 286.805 191.584 285.899C191.584 284.992 191.824 284.256 192.304 283.691C192.784 283.125 193.413 282.843 194.192 282.843C194.97 282.843 195.594 283.125 196.064 283.691C196.544 284.245 196.784 284.981 196.784 285.899C196.784 286.816 196.544 287.557 196.064 288.123C195.594 288.677 194.97 288.955 194.192 288.955ZM200.944 282.939H202.176L194.528 294.139H193.296L200.944 282.939ZM194.192 288.043C194.682 288.043 195.066 287.856 195.344 287.483C195.621 287.099 195.76 286.571 195.76 285.899C195.76 285.227 195.621 284.704 195.344 284.331C195.066 283.947 194.682 283.755 194.192 283.755C193.712 283.755 193.328 283.947 193.04 284.331C192.762 284.715 192.624 285.237 192.624 285.899C192.624 286.56 192.762 287.083 193.04 287.467C193.328 287.851 193.712 288.043 194.192 288.043ZM201.28 294.235C200.501 294.235 199.872 293.957 199.392 293.403C198.922 292.837 198.688 292.096 198.688 291.179C198.688 290.261 198.922 289.525 199.392 288.971C199.872 288.405 200.501 288.123 201.28 288.123C202.058 288.123 202.688 288.405 203.168 288.971C203.648 289.536 203.888 290.272 203.888 291.179C203.888 292.085 203.648 292.821 203.168 293.387C202.688 293.952 202.058 294.235 201.28 294.235ZM201.28 293.323C201.76 293.323 202.138 293.131 202.416 292.747C202.704 292.363 202.848 291.84 202.848 291.179C202.848 290.517 202.704 289.995 202.416 289.611C202.138 289.227 201.76 289.035 201.28 289.035C200.789 289.035 200.405 289.227 200.128 289.611C199.85 289.984 199.712 290.507 199.712 291.179C199.712 291.851 199.85 292.379 200.128 292.763C200.405 293.136 200.789 293.323 201.28 293.323Z" fill="#E7E7E7"/>
<path d="M245.678 577.932V579.324H237.63V578.236L242.19 573.836C242.745 573.303 243.118 572.844 243.31 572.46C243.502 572.066 243.598 571.671 243.598 571.276C243.598 570.69 243.39 570.236 242.974 569.916C242.569 569.586 241.982 569.42 241.214 569.42C239.977 569.42 239.022 569.826 238.35 570.636L237.262 569.692C237.7 569.159 238.27 568.743 238.974 568.444C239.689 568.146 240.484 567.996 241.358 567.996C242.532 567.996 243.465 568.279 244.158 568.844C244.852 569.399 245.198 570.156 245.198 571.116C245.198 571.714 245.07 572.279 244.814 572.812C244.558 573.346 244.073 573.954 243.358 574.636L239.934 577.932H245.678ZM251.843 579.452C250.958 579.452 250.168 579.228 249.475 578.78C248.792 578.322 248.254 577.66 247.859 576.796C247.464 575.932 247.267 574.908 247.267 573.724C247.267 572.54 247.464 571.516 247.859 570.652C248.254 569.788 248.792 569.132 249.475 568.684C250.168 568.226 250.958 567.996 251.843 567.996C252.718 567.996 253.496 568.226 254.179 568.684C254.872 569.132 255.416 569.788 255.811 570.652C256.206 571.516 256.403 572.54 256.403 573.724C256.403 574.908 256.206 575.932 255.811 576.796C255.416 577.66 254.872 578.322 254.179 578.78C253.496 579.228 252.718 579.452 251.843 579.452ZM251.843 578.028C252.739 578.028 253.454 577.66 253.987 576.924C254.531 576.188 254.803 575.122 254.803 573.724C254.803 572.327 254.531 571.26 253.987 570.524C253.454 569.788 252.739 569.42 251.843 569.42C250.936 569.42 250.211 569.788 249.667 570.524C249.134 571.26 248.867 572.327 248.867 573.724C248.867 575.122 249.134 576.188 249.667 576.924C250.211 577.66 250.936 578.028 251.843 578.028ZM260.691 574.14C259.912 574.14 259.283 573.858 258.803 573.292C258.323 572.727 258.083 571.991 258.083 571.084C258.083 570.178 258.323 569.442 258.803 568.876C259.283 568.311 259.912 568.028 260.691 568.028C261.469 568.028 262.093 568.311 262.563 568.876C263.043 569.431 263.283 570.167 263.283 571.084C263.283 572.002 263.043 572.743 262.563 573.308C262.093 573.863 261.469 574.14 260.691 574.14ZM267.443 568.124H268.675L261.027 579.324H259.795L267.443 568.124ZM260.691 573.228C261.181 573.228 261.565 573.042 261.843 572.668C262.12 572.284 262.259 571.756 262.259 571.084C262.259 570.412 262.12 569.89 261.843 569.516C261.565 569.132 261.181 568.94 260.691 568.94C260.211 568.94 259.827 569.132 259.539 569.516C259.261 569.9 259.123 570.423 259.123 571.084C259.123 571.746 259.261 572.268 259.539 572.652C259.827 573.036 260.211 573.228 260.691 573.228ZM267.779 579.42C267 579.42 266.371 579.143 265.891 578.588C265.421 578.023 265.187 577.282 265.187 576.364C265.187 575.447 265.421 574.711 265.891 574.156C266.371 573.591 267 573.308 267.779 573.308C268.557 573.308 269.187 573.591 269.667 574.156C270.147 574.722 270.387 575.458 270.387 576.364C270.387 577.271 270.147 578.007 269.667 578.572C269.187 579.138 268.557 579.42 267.779 579.42ZM267.779 578.508C268.259 578.508 268.637 578.316 268.915 577.932C269.203 577.548 269.347 577.026 269.347 576.364C269.347 575.703 269.203 575.18 268.915 574.796C268.637 574.412 268.259 574.22 267.779 574.22C267.288 574.22 266.904 574.412 266.627 574.796C266.349 575.17 266.211 575.692 266.211 576.364C266.211 577.036 266.349 577.564 266.627 577.948C266.904 578.322 267.288 578.508 267.779 578.508Z" fill="#E7E7E7"/>
<path d="M420.167 619.428C421.767 619.428 422.94 619.732 423.687 620.34C424.444 620.937 424.823 621.759 424.823 622.804C424.823 623.465 424.663 624.063 424.343 624.596C424.034 625.119 423.559 625.535 422.919 625.844C422.29 626.143 421.511 626.292 420.583 626.292C419.794 626.292 419.031 626.175 418.295 625.94C417.559 625.695 416.951 625.359 416.471 624.932L417.207 623.668C417.591 624.031 418.082 624.324 418.679 624.548C419.276 624.761 419.906 624.868 420.567 624.868C421.41 624.868 422.06 624.692 422.519 624.34C422.988 623.977 423.223 623.487 423.223 622.868C423.223 622.196 422.967 621.689 422.455 621.348C421.943 620.996 421.068 620.82 419.831 620.82H417.287L417.879 614.964H424.199V616.356H419.223L418.919 619.428H420.167ZM428.75 620.98C427.972 620.98 427.342 620.697 426.862 620.132C426.382 619.567 426.142 618.831 426.142 617.924C426.142 617.017 426.382 616.281 426.862 615.716C427.342 615.151 427.972 614.868 428.75 614.868C429.529 614.868 430.153 615.151 430.622 615.716C431.102 616.271 431.342 617.007 431.342 617.924C431.342 618.841 431.102 619.583 430.622 620.148C430.153 620.703 429.529 620.98 428.75 620.98ZM435.502 614.964H436.734L429.086 626.164H427.854L435.502 614.964ZM428.75 620.068C429.241 620.068 429.625 619.881 429.902 619.508C430.18 619.124 430.318 618.596 430.318 617.924C430.318 617.252 430.18 616.729 429.902 616.356C429.625 615.972 429.241 615.78 428.75 615.78C428.27 615.78 427.886 615.972 427.598 616.356C427.321 616.74 427.182 617.263 427.182 617.924C427.182 618.585 427.321 619.108 427.598 619.492C427.886 619.876 428.27 620.068 428.75 620.068ZM435.838 626.26C435.06 626.26 434.43 625.983 433.95 625.428C433.481 624.863 433.246 624.121 433.246 623.204C433.246 622.287 433.481 621.551 433.95 620.996C434.43 620.431 435.06 620.148 435.838 620.148C436.617 620.148 437.246 620.431 437.726 620.996C438.206 621.561 438.446 622.297 438.446 623.204C438.446 624.111 438.206 624.847 437.726 625.412C437.246 625.977 436.617 626.26 435.838 626.26ZM435.838 625.348C436.318 625.348 436.697 625.156 436.974 624.772C437.262 624.388 437.406 623.865 437.406 623.204C437.406 622.543 437.262 622.02 436.974 621.636C436.697 621.252 436.318 621.06 435.838 621.06C435.348 621.06 434.964 621.252 434.686 621.636C434.409 622.009 434.27 622.532 434.27 623.204C434.27 623.876 434.409 624.404 434.686 624.788C434.964 625.161 435.348 625.348 435.838 625.348Z" fill="#E7E7E7"/>
<path d="M490.544 596.031C492.144 596.031 493.318 596.335 494.064 596.943C494.822 597.54 495.2 598.361 495.2 599.407C495.2 600.068 495.04 600.665 494.72 601.199C494.411 601.721 493.936 602.137 493.296 602.447C492.667 602.745 491.888 602.895 490.96 602.895C490.171 602.895 489.408 602.777 488.672 602.543C487.936 602.297 487.328 601.961 486.848 601.535L487.584 600.271C487.968 600.633 488.459 600.927 489.056 601.151C489.654 601.364 490.283 601.471 490.944 601.471C491.787 601.471 492.438 601.295 492.896 600.943C493.366 600.58 493.6 600.089 493.6 599.471C493.6 598.799 493.344 598.292 492.832 597.951C492.32 597.599 491.446 597.423 490.208 597.423H487.664L488.256 591.567H494.576V592.959H489.6L489.296 596.031H490.544ZM499.127 597.583C498.349 597.583 497.719 597.3 497.239 596.735C496.759 596.169 496.519 595.433 496.519 594.527C496.519 593.62 496.759 592.884 497.239 592.319C497.719 591.753 498.349 591.471 499.127 591.471C499.906 591.471 500.53 591.753 500.999 592.319C501.479 592.873 501.719 593.609 501.719 594.527C501.719 595.444 501.479 596.185 500.999 596.751C500.53 597.305 499.906 597.583 499.127 597.583ZM505.879 591.567H507.111L499.463 602.767H498.231L505.879 591.567ZM499.127 596.671C499.618 596.671 500.002 596.484 500.279 596.111C500.557 595.727 500.695 595.199 500.695 594.527C500.695 593.855 500.557 593.332 500.279 592.959C500.002 592.575 499.618 592.383 499.127 592.383C498.647 592.383 498.263 592.575 497.975 592.959C497.698 593.343 497.559 593.865 497.559 594.527C497.559 595.188 497.698 595.711 497.975 596.095C498.263 596.479 498.647 596.671 499.127 596.671ZM506.215 602.863C505.437 602.863 504.807 602.585 504.327 602.031C503.858 601.465 503.623 600.724 503.623 599.807C503.623 598.889 503.858 598.153 504.327 597.599C504.807 597.033 505.437 596.751 506.215 596.751C506.994 596.751 507.623 597.033 508.103 597.599C508.583 598.164 508.823 598.9 508.823 599.807C508.823 600.713 508.583 601.449 508.103 602.015C507.623 602.58 506.994 602.863 506.215 602.863ZM506.215 601.951C506.695 601.951 507.074 601.759 507.351 601.375C507.639 600.991 507.783 600.468 507.783 599.807C507.783 599.145 507.639 598.623 507.351 598.239C507.074 597.855 506.695 597.663 506.215 597.663C505.725 597.663 505.341 597.855 505.063 598.239C504.786 598.612 504.647 599.135 504.647 599.807C504.647 600.479 504.786 601.007 505.063 601.391C505.341 601.764 505.725 601.951 506.215 601.951Z" fill="#E7E7E7"/>
<path d="M561.133 516.36V527.56H559.549V517.752H557.021V516.36H561.133ZM568.479 527.688C567.594 527.688 566.804 527.464 566.111 527.016C565.428 526.557 564.89 525.896 564.495 525.032C564.1 524.168 563.903 523.144 563.903 521.96C563.903 520.776 564.1 519.752 564.495 518.888C564.89 518.024 565.428 517.368 566.111 516.92C566.804 516.461 567.594 516.232 568.479 516.232C569.354 516.232 570.132 516.461 570.815 516.92C571.508 517.368 572.052 518.024 572.447 518.888C572.842 519.752 573.039 520.776 573.039 521.96C573.039 523.144 572.842 524.168 572.447 525.032C572.052 525.896 571.508 526.557 570.815 527.016C570.132 527.464 569.354 527.688 568.479 527.688ZM568.479 526.264C569.375 526.264 570.09 525.896 570.623 525.16C571.167 524.424 571.439 523.357 571.439 521.96C571.439 520.562 571.167 519.496 570.623 518.76C570.09 518.024 569.375 517.656 568.479 517.656C567.572 517.656 566.847 518.024 566.303 518.76C565.77 519.496 565.503 520.562 565.503 521.96C565.503 523.357 565.77 524.424 566.303 525.16C566.847 525.896 567.572 526.264 568.479 526.264ZM577.327 522.376C576.548 522.376 575.919 522.093 575.439 521.528C574.959 520.962 574.719 520.226 574.719 519.32C574.719 518.413 574.959 517.677 575.439 517.112C575.919 516.546 576.548 516.264 577.327 516.264C578.106 516.264 578.73 516.546 579.199 517.112C579.679 517.666 579.919 518.402 579.919 519.32C579.919 520.237 579.679 520.978 579.199 521.544C578.73 522.098 578.106 522.376 577.327 522.376ZM584.079 516.36H585.311L577.663 527.56H576.431L584.079 516.36ZM577.327 521.464C577.818 521.464 578.202 521.277 578.479 520.904C578.756 520.52 578.895 519.992 578.895 519.32C578.895 518.648 578.756 518.125 578.479 517.752C578.202 517.368 577.818 517.176 577.327 517.176C576.847 517.176 576.463 517.368 576.175 517.752C575.898 518.136 575.759 518.658 575.759 519.32C575.759 519.981 575.898 520.504 576.175 520.888C576.463 521.272 576.847 521.464 577.327 521.464ZM584.415 527.656C583.636 527.656 583.007 527.378 582.527 526.824C582.058 526.258 581.823 525.517 581.823 524.6C581.823 523.682 582.058 522.946 582.527 522.392C583.007 521.826 583.636 521.544 584.415 521.544C585.194 521.544 585.823 521.826 586.303 522.392C586.783 522.957 587.023 523.693 587.023 524.6C587.023 525.506 586.783 526.242 586.303 526.808C585.823 527.373 585.194 527.656 584.415 527.656ZM584.415 526.744C584.895 526.744 585.274 526.552 585.551 526.168C585.839 525.784 585.983 525.261 585.983 524.6C585.983 523.938 585.839 523.416 585.551 523.032C585.274 522.648 584.895 522.456 584.415 522.456C583.924 522.456 583.54 522.648 583.263 523.032C582.986 523.405 582.847 523.928 582.847 524.6C582.847 525.272 582.986 525.8 583.263 526.184C583.54 526.557 583.924 526.744 584.415 526.744Z" fill="#E7E7E7"/>
<path d="M606.413 390.17V401.37H604.829V391.562H602.301V390.17H606.413ZM613.759 401.498C612.874 401.498 612.084 401.274 611.391 400.826C610.708 400.367 610.17 399.706 609.775 398.842C609.38 397.978 609.183 396.954 609.183 395.77C609.183 394.586 609.38 393.562 609.775 392.698C610.17 391.834 610.708 391.178 611.391 390.73C612.084 390.271 612.874 390.042 613.759 390.042C614.634 390.042 615.412 390.271 616.095 390.73C616.788 391.178 617.332 391.834 617.727 392.698C618.122 393.562 618.319 394.586 618.319 395.77C618.319 396.954 618.122 397.978 617.727 398.842C617.332 399.706 616.788 400.367 616.095 400.826C615.412 401.274 614.634 401.498 613.759 401.498ZM613.759 400.074C614.655 400.074 615.37 399.706 615.903 398.97C616.447 398.234 616.719 397.167 616.719 395.77C616.719 394.373 616.447 393.306 615.903 392.57C615.37 391.834 614.655 391.466 613.759 391.466C612.852 391.466 612.127 391.834 611.583 392.57C611.05 393.306 610.783 394.373 610.783 395.77C610.783 397.167 611.05 398.234 611.583 398.97C612.127 399.706 612.852 400.074 613.759 400.074ZM622.607 396.186C621.828 396.186 621.199 395.903 620.719 395.338C620.239 394.773 619.999 394.037 619.999 393.13C619.999 392.223 620.239 391.487 620.719 390.922C621.199 390.357 621.828 390.074 622.607 390.074C623.386 390.074 624.01 390.357 624.479 390.922C624.959 391.477 625.199 392.213 625.199 393.13C625.199 394.047 624.959 394.789 624.479 395.354C624.01 395.909 623.386 396.186 622.607 396.186ZM629.359 390.17H630.591L622.943 401.37H621.711L629.359 390.17ZM622.607 395.274C623.098 395.274 623.482 395.087 623.759 394.714C624.036 394.33 624.175 393.802 624.175 393.13C624.175 392.458 624.036 391.935 623.759 391.562C623.482 391.178 623.098 390.986 622.607 390.986C622.127 390.986 621.743 391.178 621.455 391.562C621.178 391.946 621.039 392.469 621.039 393.13C621.039 393.791 621.178 394.314 621.455 394.698C621.743 395.082 622.127 395.274 622.607 395.274ZM629.695 401.466C628.916 401.466 628.287 401.189 627.807 400.634C627.338 400.069 627.103 399.327 627.103 398.41C627.103 397.493 627.338 396.757 627.807 396.202C628.287 395.637 628.916 395.354 629.695 395.354C630.474 395.354 631.103 395.637 631.583 396.202C632.063 396.767 632.303 397.503 632.303 398.41C632.303 399.317 632.063 400.053 631.583 400.618C631.103 401.183 630.474 401.466 629.695 401.466ZM629.695 400.554C630.175 400.554 630.554 400.362 630.831 399.978C631.119 399.594 631.263 399.071 631.263 398.41C631.263 397.749 631.119 397.226 630.831 396.842C630.554 396.458 630.175 396.266 629.695 396.266C629.204 396.266 628.82 396.458 628.543 396.842C628.266 397.215 628.127 397.738 628.127 398.41C628.127 399.082 628.266 399.61 628.543 399.994C628.82 400.367 629.204 400.554 629.695 400.554Z" fill="#E7E7E7"/>
<path d="M516.003 211.091V212.483H507.955V211.395L512.515 206.995C513.07 206.462 513.443 206.003 513.635 205.619C513.827 205.225 513.923 204.83 513.923 204.435C513.923 203.849 513.715 203.395 513.299 203.075C512.894 202.745 512.307 202.579 511.539 202.579C510.302 202.579 509.347 202.985 508.675 203.795L507.587 202.851C508.024 202.318 508.595 201.902 509.299 201.603C510.014 201.305 510.808 201.155 511.683 201.155C512.856 201.155 513.79 201.438 514.483 202.003C515.176 202.558 515.523 203.315 515.523 204.275C515.523 204.873 515.395 205.438 515.139 205.971C514.883 206.505 514.398 207.113 513.683 207.795L510.259 211.091H516.003ZM522.168 212.611C521.282 212.611 520.493 212.387 519.8 211.939C519.117 211.481 518.578 210.819 518.184 209.955C517.789 209.091 517.592 208.067 517.592 206.883C517.592 205.699 517.789 204.675 518.184 203.811C518.578 202.947 519.117 202.291 519.8 201.843C520.493 201.385 521.282 201.155 522.168 201.155C523.042 201.155 523.821 201.385 524.504 201.843C525.197 202.291 525.741 202.947 526.136 203.811C526.53 204.675 526.728 205.699 526.728 206.883C526.728 208.067 526.53 209.091 526.136 209.955C525.741 210.819 525.197 211.481 524.504 211.939C523.821 212.387 523.042 212.611 522.168 212.611ZM522.168 211.187C523.064 211.187 523.778 210.819 524.312 210.083C524.856 209.347 525.128 208.281 525.128 206.883C525.128 205.486 524.856 204.419 524.312 203.683C523.778 202.947 523.064 202.579 522.168 202.579C521.261 202.579 520.536 202.947 519.992 203.683C519.458 204.419 519.192 205.486 519.192 206.883C519.192 208.281 519.458 209.347 519.992 210.083C520.536 210.819 521.261 211.187 522.168 211.187ZM531.016 207.299C530.237 207.299 529.608 207.017 529.128 206.451C528.648 205.886 528.408 205.15 528.408 204.243C528.408 203.337 528.648 202.601 529.128 202.035C529.608 201.47 530.237 201.187 531.016 201.187C531.794 201.187 532.418 201.47 532.888 202.035C533.368 202.59 533.608 203.326 533.608 204.243C533.608 205.161 533.368 205.902 532.888 206.467C532.418 207.022 531.794 207.299 531.016 207.299ZM537.768 201.283H539L531.352 212.483H530.12L537.768 201.283ZM531.016 206.387C531.506 206.387 531.89 206.201 532.168 205.827C532.445 205.443 532.584 204.915 532.584 204.243C532.584 203.571 532.445 203.049 532.168 202.675C531.89 202.291 531.506 202.099 531.016 202.099C530.536 202.099 530.152 202.291 529.864 202.675C529.586 203.059 529.448 203.582 529.448 204.243C529.448 204.905 529.586 205.427 529.864 205.811C530.152 206.195 530.536 206.387 531.016 206.387ZM538.104 212.579C537.325 212.579 536.696 212.302 536.216 211.747C535.746 211.182 535.512 210.441 535.512 209.523C535.512 208.606 535.746 207.87 536.216 207.315C536.696 206.75 537.325 206.467 538.104 206.467C538.882 206.467 539.512 206.75 539.992 207.315C540.472 207.881 540.712 208.617 540.712 209.523C540.712 210.43 540.472 211.166 539.992 211.731C539.512 212.297 538.882 212.579 538.104 212.579ZM538.104 211.667C538.584 211.667 538.962 211.475 539.24 211.091C539.528 210.707 539.672 210.185 539.672 209.523C539.672 208.862 539.528 208.339 539.24 207.955C538.962 207.571 538.584 207.379 538.104 207.379C537.613 207.379 537.229 207.571 536.952 207.955C536.674 208.329 536.536 208.851 536.536 209.523C536.536 210.195 536.674 210.723 536.952 211.107C537.229 211.481 537.613 211.667 538.104 211.667Z" fill="#E7E7E7"/>
<path d="M148.339 422.218C149.939 422.218 151.112 422.522 151.859 423.13C152.616 423.727 152.995 424.549 152.995 425.594C152.995 426.255 152.835 426.853 152.515 427.386C152.205 427.909 151.731 428.325 151.091 428.634C150.461 428.933 149.683 429.082 148.755 429.082C147.965 429.082 147.203 428.965 146.467 428.73C145.731 428.485 145.123 428.149 144.643 427.722L145.379 426.458C145.763 426.821 146.253 427.114 146.851 427.338C147.448 427.551 148.077 427.658 148.739 427.658C149.581 427.658 150.232 427.482 150.691 427.13C151.16 426.767 151.395 426.277 151.395 425.658C151.395 424.986 151.139 424.479 150.627 424.138C150.115 423.786 149.24 423.61 148.003 423.61H145.459L146.051 417.754H152.371V419.146H147.395L147.091 422.218H148.339ZM156.922 423.77C156.143 423.77 155.514 423.487 155.034 422.922C154.554 422.357 154.314 421.621 154.314 420.714C154.314 419.807 154.554 419.071 155.034 418.506C155.514 417.941 156.143 417.658 156.922 417.658C157.701 417.658 158.325 417.941 158.794 418.506C159.274 419.061 159.514 419.797 159.514 420.714C159.514 421.631 159.274 422.373 158.794 422.938C158.325 423.493 157.701 423.77 156.922 423.77ZM163.674 417.754H164.906L157.258 428.954H156.026L163.674 417.754ZM156.922 422.858C157.413 422.858 157.797 422.671 158.074 422.298C158.351 421.914 158.49 421.386 158.49 420.714C158.49 420.042 158.351 419.519 158.074 419.146C157.797 418.762 157.413 418.57 156.922 418.57C156.442 418.57 156.058 418.762 155.77 419.146C155.493 419.53 155.354 420.053 155.354 420.714C155.354 421.375 155.493 421.898 155.77 422.282C156.058 422.666 156.442 422.858 156.922 422.858ZM164.01 429.05C163.231 429.05 162.602 428.773 162.122 428.218C161.653 427.653 161.418 426.911 161.418 425.994C161.418 425.077 161.653 424.341 162.122 423.786C162.602 423.221 163.231 422.938 164.01 422.938C164.789 422.938 165.418 423.221 165.898 423.786C166.378 424.351 166.618 425.087 166.618 425.994C166.618 426.901 166.378 427.637 165.898 428.202C165.418 428.767 164.789 429.05 164.01 429.05ZM164.01 428.138C164.49 428.138 164.869 427.946 165.146 427.562C165.434 427.178 165.578 426.655 165.578 425.994C165.578 425.333 165.434 424.81 165.146 424.426C164.869 424.042 164.49 423.85 164.01 423.85C163.519 423.85 163.135 424.042 162.858 424.426C162.581 424.799 162.442 425.322 162.442 425.994C162.442 426.666 162.581 427.194 162.858 427.578C163.135 427.951 163.519 428.138 164.01 428.138Z" fill="#E7E7E7"/>
<path d="M348.346 161.5C349.946 161.5 351.119 161.804 351.866 162.412C352.623 163.01 353.002 163.831 353.002 164.876C353.002 165.538 352.842 166.135 352.522 166.668C352.212 167.191 351.738 167.607 351.098 167.916C350.468 168.215 349.69 168.364 348.762 168.364C347.972 168.364 347.21 168.247 346.474 168.012C345.738 167.767 345.13 167.431 344.65 167.004L345.386 165.74C345.77 166.103 346.26 166.396 346.858 166.62C347.455 166.834 348.084 166.94 348.746 166.94C349.588 166.94 350.239 166.764 350.698 166.412C351.167 166.05 351.402 165.559 351.402 164.94C351.402 164.268 351.146 163.762 350.634 163.42C350.122 163.068 349.247 162.892 348.01 162.892H345.466L346.058 157.036H352.378V158.428H347.402L347.098 161.5H348.346ZM356.929 163.052C356.15 163.052 355.521 162.77 355.041 162.204C354.561 161.639 354.321 160.903 354.321 159.996C354.321 159.09 354.561 158.354 355.041 157.788C355.521 157.223 356.15 156.94 356.929 156.94C357.707 156.94 358.331 157.223 358.801 157.788C359.281 158.343 359.521 159.079 359.521 159.996C359.521 160.914 359.281 161.655 358.801 162.22C358.331 162.775 357.707 163.052 356.929 163.052ZM363.681 157.036H364.913L357.265 168.236H356.033L363.681 157.036ZM356.929 162.14C357.419 162.14 357.803 161.954 358.081 161.58C358.358 161.196 358.497 160.668 358.497 159.996C358.497 159.324 358.358 158.802 358.081 158.428C357.803 158.044 357.419 157.852 356.929 157.852C356.449 157.852 356.065 158.044 355.777 158.428C355.499 158.812 355.361 159.335 355.361 159.996C355.361 160.658 355.499 161.18 355.777 161.564C356.065 161.948 356.449 162.14 356.929 162.14ZM364.017 168.332C363.238 168.332 362.609 168.055 362.129 167.5C361.659 166.935 361.425 166.194 361.425 165.276C361.425 164.359 361.659 163.623 362.129 163.068C362.609 162.503 363.238 162.22 364.017 162.22C364.795 162.22 365.425 162.503 365.905 163.068C366.385 163.634 366.625 164.37 366.625 165.276C366.625 166.183 366.385 166.919 365.905 167.484C365.425 168.05 364.795 168.332 364.017 168.332ZM364.017 167.42C364.497 167.42 364.875 167.228 365.153 166.844C365.441 166.46 365.585 165.938 365.585 165.276C365.585 164.615 365.441 164.092 365.153 163.708C364.875 163.324 364.497 163.132 364.017 163.132C363.526 163.132 363.142 163.324 362.865 163.708C362.587 164.082 362.449 164.604 362.449 165.276C362.449 165.948 362.587 166.476 362.865 166.86C363.142 167.234 363.526 167.42 364.017 167.42Z" fill="#E7E7E7"/>
<path d="M279.823 176.207C281.423 176.207 282.597 176.511 283.343 177.119C284.101 177.716 284.479 178.538 284.479 179.583C284.479 180.244 284.319 180.842 283.999 181.375C283.69 181.898 283.215 182.314 282.575 182.623C281.946 182.922 281.167 183.071 280.239 183.071C279.45 183.071 278.687 182.954 277.951 182.719C277.215 182.474 276.607 182.138 276.127 181.711L276.863 180.447C277.247 180.81 277.738 181.103 278.335 181.327C278.933 181.54 279.562 181.647 280.223 181.647C281.066 181.647 281.717 181.471 282.175 181.119C282.645 180.756 282.879 180.266 282.879 179.647C282.879 178.975 282.623 178.468 282.111 178.127C281.599 177.775 280.725 177.599 279.487 177.599H276.943L277.535 171.743H283.855V173.135H278.879L278.575 176.207H279.823ZM288.407 177.759C287.628 177.759 286.999 177.476 286.519 176.911C286.039 176.346 285.799 175.61 285.799 174.703C285.799 173.796 286.039 173.06 286.519 172.495C286.999 171.93 287.628 171.647 288.407 171.647C289.185 171.647 289.809 171.93 290.279 172.495C290.759 173.05 290.999 173.786 290.999 174.703C290.999 175.62 290.759 176.362 290.279 176.927C289.809 177.482 289.185 177.759 288.407 177.759ZM295.159 171.743H296.391L288.743 182.943H287.511L295.159 171.743ZM288.407 176.847C288.897 176.847 289.281 176.66 289.559 176.287C289.836 175.903 289.975 175.375 289.975 174.703C289.975 174.031 289.836 173.508 289.559 173.135C289.281 172.751 288.897 172.559 288.407 172.559C287.927 172.559 287.543 172.751 287.255 173.135C286.977 173.519 286.839 174.042 286.839 174.703C286.839 175.364 286.977 175.887 287.255 176.271C287.543 176.655 287.927 176.847 288.407 176.847ZM295.495 183.039C294.716 183.039 294.087 182.762 293.607 182.207C293.137 181.642 292.903 180.9 292.903 179.983C292.903 179.066 293.137 178.33 293.607 177.775C294.087 177.21 294.716 176.927 295.495 176.927C296.273 176.927 296.903 177.21 297.383 177.775C297.863 178.34 298.103 179.076 298.103 179.983C298.103 180.89 297.863 181.626 297.383 182.191C296.903 182.756 296.273 183.039 295.495 183.039ZM295.495 182.127C295.975 182.127 296.353 181.935 296.631 181.551C296.919 181.167 297.063 180.644 297.063 179.983C297.063 179.322 296.919 178.799 296.631 178.415C296.353 178.031 295.975 177.839 295.495 177.839C295.004 177.839 294.62 178.031 294.343 178.415C294.065 178.788 293.927 179.311 293.927 179.983C293.927 180.655 294.065 181.183 294.343 181.567C294.62 181.94 295.004 182.127 295.495 182.127Z" fill="#E7E7E7"/>
<circle cx="390.5" cy="390.349" r="173.063" fill="#161616" stroke="#292929"/>
<path d="M319.293 393.317C322.293 393.317 324.493 393.887 325.893 395.027C327.313 396.147 328.023 397.687 328.023 399.647C328.023 400.887 327.723 402.007 327.123 403.007C326.543 403.987 325.653 404.767 324.453 405.347C323.273 405.907 321.813 406.187 320.073 406.187C318.593 406.187 317.163 405.967 315.783 405.527C314.403 405.067 313.263 404.437 312.363 403.637L313.743 401.267C314.463 401.947 315.383 402.497 316.503 402.917C317.623 403.317 318.803 403.517 320.043 403.517C321.623 403.517 322.843 403.187 323.703 402.527C324.583 401.847 325.023 400.927 325.023 399.767C325.023 398.507 324.543 397.557 323.583 396.917C322.623 396.257 320.983 395.927 318.663 395.927H313.893L315.003 384.947H326.853V387.557H317.523L316.953 393.317H319.293ZM339.099 406.187C337.439 406.187 335.959 405.767 334.659 404.927C333.379 404.067 332.369 402.827 331.629 401.207C330.889 399.587 330.519 397.667 330.519 395.447C330.519 393.227 330.889 391.307 331.629 389.687C332.369 388.067 333.379 386.837 334.659 385.997C335.959 385.137 337.439 384.707 339.099 384.707C340.739 384.707 342.199 385.137 343.479 385.997C344.779 386.837 345.799 388.067 346.539 389.687C347.279 391.307 347.649 393.227 347.649 395.447C347.649 397.667 347.279 399.587 346.539 401.207C345.799 402.827 344.779 404.067 343.479 404.927C342.199 405.767 340.739 406.187 339.099 406.187ZM339.099 403.517C340.779 403.517 342.119 402.827 343.119 401.447C344.139 400.067 344.649 398.067 344.649 395.447C344.649 392.827 344.139 390.827 343.119 389.447C342.119 388.067 340.779 387.377 339.099 387.377C337.399 387.377 336.039 388.067 335.019 389.447C334.019 390.827 333.519 392.827 333.519 395.447C333.519 398.067 334.019 400.067 335.019 401.447C336.039 402.827 337.399 403.517 339.099 403.517ZM359.109 406.187C357.449 406.187 355.969 405.767 354.669 404.927C353.389 404.067 352.379 402.827 351.639 401.207C350.899 399.587 350.529 397.667 350.529 395.447C350.529 393.227 350.899 391.307 351.639 389.687C352.379 388.067 353.389 386.837 354.669 385.997C355.969 385.137 357.449 384.707 359.109 384.707C360.749 384.707 362.209 385.137 363.489 385.997C364.789 386.837 365.809 388.067 366.549 389.687C367.289 391.307 367.659 393.227 367.659 395.447C367.659 397.667 367.289 399.587 366.549 401.207C365.809 402.827 364.789 404.067 363.489 404.927C362.209 405.767 360.749 406.187 359.109 406.187ZM359.109 403.517C360.789 403.517 362.129 402.827 363.129 401.447C364.149 400.067 364.659 398.067 364.659 395.447C364.659 392.827 364.149 390.827 363.129 389.447C362.129 388.067 360.789 387.377 359.109 387.377C357.409 387.377 356.049 388.067 355.029 389.447C354.029 390.827 353.529 392.827 353.529 395.447C353.529 398.067 354.029 400.067 355.029 401.447C356.049 402.827 357.409 403.517 359.109 403.517ZM379.119 406.187C377.459 406.187 375.979 405.767 374.679 404.927C373.399 404.067 372.389 402.827 371.649 401.207C370.909 399.587 370.539 397.667 370.539 395.447C370.539 393.227 370.909 391.307 371.649 389.687C372.389 388.067 373.399 386.837 374.679 385.997C375.979 385.137 377.459 384.707 379.119 384.707C380.759 384.707 382.219 385.137 383.499 385.997C384.799 386.837 385.819 388.067 386.559 389.687C387.299 391.307 387.669 393.227 387.669 395.447C387.669 397.667 387.299 399.587 386.559 401.207C385.819 402.827 384.799 404.067 383.499 404.927C382.219 405.767 380.759 406.187 379.119 406.187ZM379.119 403.517C380.799 403.517 382.139 402.827 383.139 401.447C384.159 400.067 384.669 398.067 384.669 395.447C384.669 392.827 384.159 390.827 383.139 389.447C382.139 388.067 380.799 387.377 379.119 387.377C377.419 387.377 376.059 388.067 375.039 389.447C374.039 390.827 373.539 392.827 373.539 395.447C373.539 398.067 374.039 400.067 375.039 401.447C376.059 402.827 377.419 403.517 379.119 403.517ZM399.128 406.187C397.468 406.187 395.988 405.767 394.688 404.927C393.408 404.067 392.398 402.827 391.658 401.207C390.918 399.587 390.548 397.667 390.548 395.447C390.548 393.227 390.918 391.307 391.658 389.687C392.398 388.067 393.408 386.837 394.688 385.997C395.988 385.137 397.468 384.707 399.128 384.707C400.768 384.707 402.228 385.137 403.508 385.997C404.808 386.837 405.828 388.067 406.568 389.687C407.308 391.307 407.678 393.227 407.678 395.447C407.678 397.667 407.308 399.587 406.568 401.207C405.828 402.827 404.808 404.067 403.508 404.927C402.228 405.767 400.768 406.187 399.128 406.187ZM399.128 403.517C400.808 403.517 402.148 402.827 403.148 401.447C404.168 400.067 404.678 398.067 404.678 395.447C404.678 392.827 404.168 390.827 403.148 389.447C402.148 388.067 400.808 387.377 399.128 387.377C397.428 387.377 396.068 388.067 395.048 389.447C394.048 390.827 393.548 392.827 393.548 395.447C393.548 398.067 394.048 400.067 395.048 401.447C396.068 402.827 397.428 403.517 399.128 403.517ZM419.138 406.187C417.478 406.187 415.998 405.767 414.698 404.927C413.418 404.067 412.408 402.827 411.668 401.207C410.928 399.587 410.558 397.667 410.558 395.447C410.558 393.227 410.928 391.307 411.668 389.687C412.408 388.067 413.418 386.837 414.698 385.997C415.998 385.137 417.478 384.707 419.138 384.707C420.778 384.707 422.238 385.137 423.518 385.997C424.818 386.837 425.838 388.067 426.578 389.687C427.318 391.307 427.688 393.227 427.688 395.447C427.688 397.667 427.318 399.587 426.578 401.207C425.838 402.827 424.818 404.067 423.518 404.927C422.238 405.767 420.778 406.187 419.138 406.187ZM419.138 403.517C420.818 403.517 422.158 402.827 423.158 401.447C424.178 400.067 424.688 398.067 424.688 395.447C424.688 392.827 424.178 390.827 423.158 389.447C422.158 388.067 420.818 387.377 419.138 387.377C417.438 387.377 416.078 388.067 415.058 389.447C414.058 390.827 413.558 392.827 413.558 395.447C413.558 398.067 414.058 400.067 415.058 401.447C416.078 402.827 417.438 403.517 419.138 403.517ZM439.148 406.187C437.488 406.187 436.008 405.767 434.708 404.927C433.428 404.067 432.418 402.827 431.678 401.207C430.938 399.587 430.568 397.667 430.568 395.447C430.568 393.227 430.938 391.307 431.678 389.687C432.418 388.067 433.428 386.837 434.708 385.997C436.008 385.137 437.488 384.707 439.148 384.707C440.788 384.707 442.248 385.137 443.528 385.997C444.828 386.837 445.848 388.067 446.588 389.687C447.328 391.307 447.698 393.227 447.698 395.447C447.698 397.667 447.328 399.587 446.588 401.207C445.848 402.827 444.828 404.067 443.528 404.927C442.248 405.767 440.788 406.187 439.148 406.187ZM439.148 403.517C440.828 403.517 442.168 402.827 443.168 401.447C444.188 400.067 444.698 398.067 444.698 395.447C444.698 392.827 444.188 390.827 443.168 389.447C442.168 388.067 440.828 387.377 439.148 387.377C437.448 387.377 436.088 388.067 435.068 389.447C434.068 390.827 433.568 392.827 433.568 395.447C433.568 398.067 434.068 400.067 435.068 401.447C436.088 402.827 437.448 403.517 439.148 403.517ZM459.158 406.187C457.498 406.187 456.018 405.767 454.718 404.927C453.438 404.067 452.428 402.827 451.688 401.207C450.948 399.587 450.578 397.667 450.578 395.447C450.578 393.227 450.948 391.307 451.688 389.687C452.428 388.067 453.438 386.837 454.718 385.997C456.018 385.137 457.498 384.707 459.158 384.707C460.798 384.707 462.258 385.137 463.538 385.997C464.838 386.837 465.858 388.067 466.598 389.687C467.338 391.307 467.708 393.227 467.708 395.447C467.708 397.667 467.338 399.587 466.598 401.207C465.858 402.827 464.838 404.067 463.538 404.927C462.258 405.767 460.798 406.187 459.158 406.187ZM459.158 403.517C460.838 403.517 462.178 402.827 463.178 401.447C464.198 400.067 464.708 398.067 464.708 395.447C464.708 392.827 464.198 390.827 463.178 389.447C462.178 388.067 460.838 387.377 459.158 387.377C457.458 387.377 456.098 388.067 455.078 389.447C454.078 390.827 453.578 392.827 453.578 395.447C453.578 398.067 454.078 400.067 455.078 401.447C456.098 402.827 457.458 403.517 459.158 403.517Z" fill="white"/>
<path d="M356.737 425.647V438.947H354.856V427.3H351.854V425.647H356.737ZM365.08 439.099C364.029 439.099 363.092 438.833 362.268 438.301C361.458 437.757 360.818 436.971 360.349 435.945C359.881 434.919 359.646 433.703 359.646 432.297C359.646 430.891 359.881 429.675 360.349 428.649C360.818 427.623 361.458 426.844 362.268 426.312C363.092 425.768 364.029 425.495 365.08 425.495C366.119 425.495 367.044 425.768 367.854 426.312C368.678 426.844 369.324 427.623 369.792 428.649C370.261 429.675 370.495 430.891 370.495 432.297C370.495 433.703 370.261 434.919 369.792 435.945C369.324 436.971 368.678 437.757 367.854 438.301C367.044 438.833 366.119 439.099 365.08 439.099ZM365.08 437.408C366.144 437.408 366.993 436.971 367.626 436.097C368.272 435.223 368.595 433.957 368.595 432.297C368.595 430.638 368.272 429.371 367.626 428.497C366.993 427.623 366.144 427.186 365.08 427.186C364.004 427.186 363.142 427.623 362.496 428.497C361.863 429.371 361.546 430.638 361.546 432.297C361.546 433.957 361.863 435.223 362.496 436.097C363.142 436.971 364.004 437.408 365.08 437.408ZM377.753 439.099C376.702 439.099 375.765 438.833 374.941 438.301C374.131 437.757 373.491 436.971 373.022 435.945C372.554 434.919 372.319 433.703 372.319 432.297C372.319 430.891 372.554 429.675 373.022 428.649C373.491 427.623 374.131 426.844 374.941 426.312C375.765 425.768 376.702 425.495 377.753 425.495C378.792 425.495 379.717 425.768 380.527 426.312C381.351 426.844 381.997 427.623 382.465 428.649C382.934 429.675 383.168 430.891 383.168 432.297C383.168 433.703 382.934 434.919 382.465 435.945C381.997 436.971 381.351 437.757 380.527 438.301C379.717 438.833 378.792 439.099 377.753 439.099ZM377.753 437.408C378.817 437.408 379.666 436.971 380.299 436.097C380.945 435.223 381.268 433.957 381.268 432.297C381.268 430.638 380.945 429.371 380.299 428.497C379.666 427.623 378.817 427.186 377.753 427.186C376.677 427.186 375.815 427.623 375.169 428.497C374.536 429.371 374.219 430.638 374.219 432.297C374.219 433.957 374.536 435.223 375.169 436.097C375.815 436.971 376.677 437.408 377.753 437.408ZM386.023 439.061C385.669 439.061 385.365 438.941 385.111 438.7C384.858 438.447 384.731 438.13 384.731 437.75C384.731 437.383 384.858 437.079 385.111 436.838C385.365 436.585 385.669 436.458 386.023 436.458C386.378 436.458 386.676 436.579 386.916 436.819C387.157 437.06 387.277 437.37 387.277 437.75C387.277 438.13 387.151 438.447 386.897 438.7C386.657 438.941 386.365 439.061 386.023 439.061ZM394.286 439.099C393.234 439.099 392.297 438.833 391.474 438.301C390.663 437.757 390.023 436.971 389.555 435.945C389.086 434.919 388.852 433.703 388.852 432.297C388.852 430.891 389.086 429.675 389.555 428.649C390.023 427.623 390.663 426.844 391.474 426.312C392.297 425.768 393.234 425.495 394.286 425.495C395.324 425.495 396.249 425.768 397.06 426.312C397.883 426.844 398.529 427.623 398.998 428.649C399.466 429.675 399.701 430.891 399.701 432.297C399.701 433.703 399.466 434.919 398.998 435.945C398.529 436.971 397.883 437.757 397.06 438.301C396.249 438.833 395.324 439.099 394.286 439.099ZM394.286 437.408C395.35 437.408 396.198 436.971 396.832 436.097C397.478 435.223 397.801 433.957 397.801 432.297C397.801 430.638 397.478 429.371 396.832 428.497C396.198 427.623 395.35 427.186 394.286 427.186C393.209 427.186 392.348 427.623 391.702 428.497C391.068 429.371 390.752 430.638 390.752 432.297C390.752 433.957 391.068 435.223 391.702 436.097C392.348 436.971 393.209 437.408 394.286 437.408ZM406.958 439.099C405.907 439.099 404.97 438.833 404.146 438.301C403.336 437.757 402.696 436.971 402.227 435.945C401.759 434.919 401.524 433.703 401.524 432.297C401.524 430.891 401.759 429.675 402.227 428.649C402.696 427.623 403.336 426.844 404.146 426.312C404.97 425.768 405.907 425.495 406.958 425.495C407.997 425.495 408.922 425.768 409.732 426.312C410.556 426.844 411.202 427.623 411.67 428.649C412.139 429.675 412.373 430.891 412.373 432.297C412.373 433.703 412.139 434.919 411.67 435.945C411.202 436.971 410.556 437.757 409.732 438.301C408.922 438.833 407.997 439.099 406.958 439.099ZM406.958 437.408C408.022 437.408 408.871 436.971 409.504 436.097C410.15 435.223 410.473 433.957 410.473 432.297C410.473 430.638 410.15 429.371 409.504 428.497C408.871 427.623 408.022 427.186 406.958 427.186C405.882 427.186 405.02 427.623 404.374 428.497C403.741 429.371 403.424 430.638 403.424 432.297C403.424 433.957 403.741 435.223 404.374 436.097C405.02 436.971 405.882 437.408 406.958 437.408ZM417.085 432.791C416.161 432.791 415.413 432.456 414.843 431.784C414.273 431.113 413.988 430.239 413.988 429.162C413.988 428.086 414.273 427.212 414.843 426.54C415.413 425.869 416.161 425.533 417.085 425.533C418.01 425.533 418.751 425.869 419.308 426.54C419.878 427.199 420.163 428.073 420.163 429.162C420.163 430.252 419.878 431.132 419.308 431.803C418.751 432.462 418.01 432.791 417.085 432.791ZM425.103 425.647H426.566L417.484 438.947H416.021L425.103 425.647ZM417.085 431.708C417.668 431.708 418.124 431.487 418.453 431.043C418.783 430.587 418.947 429.96 418.947 429.162C418.947 428.364 418.783 427.744 418.453 427.3C418.124 426.844 417.668 426.616 417.085 426.616C416.515 426.616 416.059 426.844 415.717 427.3C415.388 427.756 415.223 428.377 415.223 429.162C415.223 429.948 415.388 430.568 415.717 431.024C416.059 431.48 416.515 431.708 417.085 431.708ZM425.502 439.061C424.578 439.061 423.83 438.732 423.26 438.073C422.703 437.402 422.424 436.522 422.424 435.432C422.424 434.343 422.703 433.469 423.26 432.81C423.83 432.139 424.578 431.803 425.502 431.803C426.427 431.803 427.174 432.139 427.744 432.81C428.314 433.482 428.599 434.356 428.599 435.432C428.599 436.509 428.314 437.383 427.744 438.054C427.174 438.726 426.427 439.061 425.502 439.061ZM425.502 437.978C426.072 437.978 426.522 437.75 426.851 437.294C427.193 436.838 427.364 436.218 427.364 435.432C427.364 434.647 427.193 434.026 426.851 433.57C426.522 433.114 426.072 432.886 425.502 432.886C424.92 432.886 424.464 433.114 424.134 433.57C423.805 434.014 423.64 434.634 423.64 435.432C423.64 436.23 423.805 436.857 424.134 437.313C424.464 437.757 424.92 437.978 425.502 437.978Z" fill="white"/>
<rect x="340.5" y="343.119" width="100" height="1" fill="#292929"/>
<path d="M361.404 318.029H374.64L373.824 320.369L369.792 320.381H368.28L369.432 321.425C369.2 322.089 368.96 322.777 368.712 323.489C368.608 323.793 368.496 324.117 368.376 324.461C368.256 324.805 368.132 325.161 368.004 325.529C367.876 325.889 367.748 326.257 367.62 326.633C367.492 327.009 367.364 327.381 367.236 327.749H363.972C364.116 327.333 364.26 326.909 364.404 326.477C364.556 326.045 364.704 325.617 364.848 325.193C365 324.769 365.144 324.357 365.28 323.957C365.424 323.557 365.556 323.177 365.676 322.817C365.964 321.977 366.248 321.161 366.528 320.369H362.496L362.856 319.337L361.404 318.029ZM374.896 327.113C374.512 326.681 374.432 326.153 374.656 325.529L376.48 320.237C376.688 319.637 377.056 319.129 377.584 318.713L376.816 318.029H385.792C386.56 318.029 387.132 318.241 387.508 318.665C387.884 319.097 387.964 319.621 387.748 320.237L385.924 325.529C385.804 325.865 385.64 326.173 385.432 326.453C385.224 326.725 384.98 326.957 384.7 327.149C384.42 327.341 384.116 327.489 383.788 327.593C383.46 327.697 383.116 327.749 382.756 327.749H376.612C375.844 327.749 375.272 327.537 374.896 327.113ZM378.016 325.217C377.976 325.337 378.028 325.397 378.172 325.397H382.492C382.628 325.397 382.716 325.337 382.756 325.217L384.376 320.549C384.424 320.429 384.376 320.369 384.232 320.369H379.912C379.904 320.369 379.9 320.373 379.9 320.381C379.9 320.381 379.896 320.381 379.888 320.381H378.172L379.324 321.425L378.016 325.217ZM388.287 318.029H401.523L400.719 320.369L396.687 320.381H395.163L396.327 321.425C396.095 322.089 395.855 322.777 395.607 323.489C395.503 323.793 395.391 324.117 395.271 324.461C395.151 324.805 395.027 325.161 394.899 325.529C394.771 325.889 394.643 326.257 394.515 326.633C394.387 327.009 394.259 327.381 394.131 327.749H390.867C391.011 327.333 391.155 326.909 391.299 326.477C391.451 326.045 391.599 325.617 391.743 325.193C391.895 324.769 392.039 324.357 392.175 323.957C392.319 323.557 392.451 323.177 392.571 322.817C392.859 321.977 393.143 321.161 393.423 320.369H389.391L389.751 319.337L388.287 318.029ZM393.195 331.505C393.651 330.977 394.155 330.393 394.707 329.753C395.251 329.121 395.819 328.461 396.411 327.773C397.003 327.093 397.599 326.405 398.199 325.709C398.807 325.005 399.391 324.329 399.951 323.681C401.271 322.161 402.619 320.605 403.995 319.013L402.903 318.029H408.063C408.223 318.917 408.379 319.801 408.531 320.681C408.595 321.057 408.663 321.453 408.735 321.869C408.815 322.277 408.891 322.689 408.963 323.105C409.035 323.521 409.107 323.933 409.179 324.341C409.259 324.741 409.331 325.121 409.395 325.481C409.451 325.817 409.503 326.121 409.551 326.393C409.599 326.657 409.643 326.893 409.683 327.101C409.723 327.341 409.759 327.557 409.791 327.749H405.627L402.903 325.277H405.963L405.279 321.437V321.449L404.391 322.493C403.439 323.621 402.503 324.729 401.583 325.817C401.191 326.281 400.783 326.765 400.359 327.269C399.935 327.773 399.511 328.273 399.087 328.769C398.671 329.265 398.267 329.745 397.875 330.209C397.483 330.681 397.119 331.113 396.783 331.505H393.195ZM409.908 327.749L412.824 319.313L411.396 318.029H416.532L413.988 325.397H419.592L418.776 327.749H409.908Z" fill="#EA2128"/>
<defs>
<linearGradient id="paint0_linear_156_3221" x1="29.5187" y1="626.765" x2="385.321" y2="628.801" gradientUnits="userSpaceOnUse">
<stop stop-color="#EA2128"/>
<stop offset="1" stop-color="#161616"/>
</linearGradient>
<linearGradient id="paint1_linear_156_3221" x1="338.554" y1="84.9353" x2="226.809" y2="159.749" gradientUnits="userSpaceOnUse">
<stop stop-color="#EA2128"/>
<stop offset="1" stop-color="#161616"/>
</linearGradient>
<linearGradient id="paint2_linear_156_3221" x1="391.644" y1="98.2403" x2="306.137" y2="123.217" gradientUnits="userSpaceOnUse">
<stop stop-color="#EA2128"/>
<stop offset="1" stop-color="#161616"/>
</linearGradient>
<linearGradient id="paint3_linear_156_3221" x1="147.59" y1="14.0145" x2="147.59" y2="384.74" gradientUnits="userSpaceOnUse">
<stop stop-color="#EA2128"/>
<stop offset="1" stop-color="#161616"/>
</linearGradient>
<linearGradient id="paint4_linear_156_3221" x1="547.589" y1="612.292" x2="477.839" y2="667.943" gradientUnits="userSpaceOnUse">
<stop stop-color="#161616"/>
<stop offset="1" stop-color="#EA2128"/>
</linearGradient>
<linearGradient id="paint5_linear_156_3221" x1="453.352" y1="604.129" x2="374.698" y2="630.1" gradientUnits="userSpaceOnUse">
<stop stop-color="#161616"/>
<stop offset="1" stop-color="#EA2128"/>
</linearGradient>
<linearGradient id="paint6_linear_156_3221" x1="116.037" y1="373.318" x2="141.483" y2="463.908" gradientUnits="userSpaceOnUse">
<stop stop-color="#EA2128"/>
<stop offset="1" stop-color="#161616"/>
</linearGradient>
<linearGradient id="paint7_linear_156_3221" x1="683.435" y1="499.942" x2="638.964" y2="313.802" gradientUnits="userSpaceOnUse">
<stop stop-color="#EA2128"/>
<stop offset="1" stop-color="#161616"/>
</linearGradient>
<linearGradient id="paint8_linear_156_3221" x1="694.427" y1="139.917" x2="395.679" y2="139.917" gradientUnits="userSpaceOnUse">
<stop stop-color="#EA2128"/>
<stop offset="1" stop-color="#161616"/>
</linearGradient>
<linearGradient id="paint9_linear_156_3221" x1="618.538" y1="468.475" x2="562.496" y2="630.314" gradientUnits="userSpaceOnUse">
<stop stop-color="#161616"/>
<stop offset="1" stop-color="#EA2128"/>
</linearGradient>
</defs>
</svg>
