<svg width="48" height="40" viewBox="0 0 48 40" fill="none" xmlns="http://www.w3.org/2000/svg">
<g clip-path="url(#clip0_156_3626)">
<path d="M47.8731 19.5628C45.4106 15.6363 42.0146 12.3803 37.988 10.0852C33.9614 7.79002 29.4294 6.52709 24.7961 6.40897V0.0512695H23.2038V6.46665C18.5706 6.58477 14.0385 7.84773 10.012 10.1429C5.98537 12.438 2.5894 15.694 0.126899 19.6205C0.0471295 19.7486 0.00485229 19.8965 0.00485229 20.0474C0.00485229 20.1983 0.0471295 20.3463 0.126899 20.4744C2.58769 24.4015 5.98356 27.6574 10.0107 29.9509C14.0379 32.2444 18.5708 33.5038 23.2038 33.6166V40.0436H24.7961V33.5128C29.4292 33.4 33.9621 32.1405 37.9892 29.8471C42.0164 27.5536 45.4123 24.2976 47.8731 20.3705C47.9439 20.2477 47.9813 20.1084 47.9813 19.9667C47.9813 19.8249 47.9439 19.6856 47.8731 19.5628ZM1.71921 19.9897C4.98145 14.9949 9.83666 11.2498 15.4961 9.36282C14.0055 10.55 12.7819 12.0381 11.9052 13.73C11.0284 15.4219 10.5181 17.2796 10.4077 19.182H3.96923V20.8205H10.4077C10.518 22.7246 11.0281 24.584 11.9048 26.2779C12.7816 27.9717 14.0052 29.4618 15.4961 30.6513C9.84778 28.742 5.00689 24.9864 1.75383 19.9897H1.71921ZM23.1692 27.1897V31.9436C20.274 31.749 17.5477 30.511 15.4959 28.4592C13.4441 26.4074 12.2061 23.6811 12.0115 20.7859H16.7654V19.182H12.0115C12.2109 16.2885 13.4504 13.5649 15.5012 11.5141C17.5521 9.46321 20.2757 8.22367 23.1692 8.02435V12.7436H24.7615V7.97819C27.655 8.1775 30.3787 9.41704 32.4295 11.4679C34.4804 13.5187 35.7199 16.2424 35.9192 19.1359H31.1654V20.8205H35.9192C35.7247 23.7157 34.4866 26.442 32.4348 28.4938C30.383 30.5456 27.6567 31.7837 24.7615 31.9782V27.2243L23.1692 27.1897ZM32.4 30.6513C33.8919 29.4619 35.117 27.972 35.9957 26.2783C36.8743 24.5847 37.3868 22.7252 37.5 20.8205H43.9384V19.2166H37.5C37.3874 17.3135 36.875 15.4555 35.9963 13.7636C35.1176 12.0717 33.8922 10.584 32.4 9.39743C38.0646 11.2805 42.9246 15.0262 46.1885 20.0243C42.9268 24.9931 38.0916 28.7231 32.4577 30.6166L32.4 30.6513Z" fill="#EA2128"/>
<path d="M29.5615 19.9897C29.5615 18.8829 29.2333 17.8009 28.6184 16.8806C28.0035 15.9604 27.1295 15.2431 26.1069 14.8195C25.0843 14.396 23.9592 14.2852 22.8736 14.5011C21.7881 14.717 20.7909 15.25 20.0083 16.0326C19.2256 16.8153 18.6927 17.8124 18.4767 18.8979C18.2608 19.9835 18.3716 21.1087 18.7952 22.1313C19.2188 23.1538 19.936 24.0278 20.8563 24.6427C21.7766 25.2576 22.8585 25.5859 23.9654 25.5859C25.4486 25.5828 26.8702 24.9922 27.9191 23.9434C28.9679 22.8946 29.5585 21.473 29.5615 19.9897ZM23.9654 23.982C23.173 23.982 22.3984 23.7469 21.7397 23.3064C21.0811 22.866 20.5679 22.24 20.2652 21.5077C19.9625 20.7754 19.8839 19.9698 20.0393 19.1928C20.1948 18.4158 20.5772 17.7024 21.1383 17.1429C21.6994 16.5835 22.4139 16.203 23.1913 16.0498C23.9688 15.8967 24.7742 15.9776 25.5056 16.2824C26.237 16.5872 26.8615 17.1022 27.3001 17.7622C27.7386 18.4221 27.9715 19.1973 27.9692 19.9897C27.9692 21.0445 27.5518 22.0565 26.8081 22.8046C26.0643 23.5526 25.0548 23.9759 24 23.982H23.9654Z" fill="#E7E7E7"/>
<path d="M5.59616 1.58611H11.2038V0.0515137H4.8C4.58885 0.0515137 4.38633 0.135384 4.23702 0.284691C4.08772 0.433999 4.00385 0.636517 4.00385 0.84767V7.23999H5.59616V1.58611Z" fill="#E7E7E7"/>
<path d="M42.3923 7.18209H43.9962V0.789809C43.9962 0.578656 43.9123 0.376138 43.763 0.22683C43.6136 0.0775223 43.4112 -0.00634766 43.2 -0.00634766H36.7961V1.58593H42.3923V7.18209Z" fill="#E7E7E7"/>
<path d="M42.3923 38.3823H36.7961V39.9861H43.2C43.3055 39.9861 43.41 39.9652 43.5074 39.9245C43.6047 39.8837 43.693 39.8241 43.7671 39.7489C43.8412 39.6737 43.8996 39.5846 43.9389 39.4867C43.9782 39.3887 43.9977 39.284 43.9962 39.1785V32.7861H42.3923V38.3823Z" fill="#E7E7E7"/>
<path d="M5.59618 32.7861H4.00387V39.1785C4.00234 39.284 4.0218 39.3887 4.06112 39.4867C4.10045 39.5846 4.15884 39.6737 4.23293 39.7489C4.30701 39.8241 4.3953 39.8837 4.49265 39.9245C4.59001 39.9652 4.69449 39.9861 4.80002 39.9861H11.2039V38.3823H5.59618V32.7861Z" fill="#E7E7E7"/>
</g>
<defs>
<clipPath id="clip0_156_3626">
<rect width="48" height="39.9923" fill="white" transform="translate(0 -0.00634766)"/>
</clipPath>
</defs>
</svg>
